STARTFONT 2.1
COMMENT
COMMENT Converted from OpenType font "UbuntuMono-BoldItalic.ttf" by "otf2bdf 3.0".
COMMENT
FONT -FreeType-Ubuntu Mono-Bold-I-Normal--89-640-100-100-P-438-ISO10646-1
SIZE 64 100 100
FONTBOUNDINGBOX 86 89 -25 -15
STARTPROPERTIES 19
FOUNDRY "FreeType"
FAMILY_NAME "Ubuntu Mono"
WEIGHT_NAME "Bold"
SLANT "I"
SETWIDTH_NAME "Normal"
ADD_STYLE_NAME ""
PIXEL_SIZE 89
POINT_SIZE 640
RESOLUTION_X 100
RESOLUTION_Y 100
SPACING "P"
AVERAGE_WIDTH 438
CHARSET_REGISTRY "ISO10646"
CHARSET_ENCODING "1"
FONT_ASCENT 73
FONT_DESCENT 15
COPYRIGHT "Copyright 2011 Canonical Ltd.  Licensed under the Ubuntu Font Licence 1.0"
_OTF_FONTFILE "UbuntuMono-BoldItalic.ttf"
_OTF_PSNAME "UbuntuMono-BoldItalic"
ENDPROPERTIES
CHARS 1224
STARTCHAR 0000
ENCODING 0
SWIDTH 495 0
DWIDTH 44 0
BBX 0 0 0 0
BITMAP
ENDCHAR
STARTCHAR 0008
ENCODING 8
SWIDTH 495 0
DWIDTH 44 0
BBX 0 0 0 0
BITMAP
ENDCHAR
STARTCHAR 0009
ENCODING 9
SWIDTH 495 0
DWIDTH 44 0
BBX 0 0 0 0
BITMAP
ENDCHAR
STARTCHAR 000D
ENCODING 13
SWIDTH 495 0
DWIDTH 44 0
BBX 0 0 0 0
BITMAP
ENDCHAR
STARTCHAR 001D
ENCODING 29
SWIDTH 495 0
DWIDTH 44 0
BBX 0 0 0 0
BITMAP
ENDCHAR
STARTCHAR 0020
ENCODING 32
SWIDTH 495 0
DWIDTH 44 0
BBX 0 0 0 0
BITMAP
ENDCHAR
STARTCHAR 0021
ENCODING 33
SWIDTH 495 0
DWIDTH 44 0
BBX 24 56 15 -1
BITMAP
000FFF
000FFF
001FFF
001FFF
001FFE
001FFE
003FFE
003FFE
003FFE
003FFC
007FFC
007FFC
007FFC
007FF8
00FFF8
00FFF8
00FFF8
00FFF0
01FFF0
01FFF0
01FFF0
01FFE0
01FFE0
01FFE0
03FFC0
03FFC0
03FFC0
03FF80
03FF80
03FF00
03FF00
03FF00
07FE00
07FE00
07FE00
000000
000000
000000
000000
000000
000000
038000
1FF000
3FF800
7FFC00
7FFC00
FFFC00
FFFC00
FFFC00
FFFC00
FFFC00
FFF800
FFF800
7FF000
3FE000
1F8000
ENDCHAR
STARTCHAR 0022
ENCODING 34
SWIDTH 495 0
DWIDTH 44 0
BBX 32 25 17 35
BITMAP
1FFE07FF
1FFC0FFF
1FFC0FFF
3FFC0FFE
3FFC0FFE
3FF80FFE
3FF81FFE
3FF81FFE
7FF81FFC
7FF01FFC
7FF01FFC
7FF01FF8
7FE01FF8
7FE03FF8
7FE03FF0
7FC03FF0
7FC03FE0
FF803FE0
FF803FE0
FF803FC0
FF003FC0
FF003F80
FE003F80
FE003F00
FC003F00
ENDCHAR
STARTCHAR 0023
ENCODING 35
SWIDTH 495 0
DWIDTH 44 0
BBX 47 55 3 0
BITMAP
000003FE03FE
000007FC03FE
000007FC07FC
000007F807FC
00000FF80FF8
00000FF80FF8
00001FF00FF8
00001FF01FF0
00001FE01FF0
00003FE03FE0
00003FE03FE0
00007FC03FC0
00007FC07FC0
01FFFFFFFFFE
03FFFFFFFFFE
03FFFFFFFFFE
03FFFFFFFFFE
03FFFFFFFFFC
07FFFFFFFFFC
07FFFFFFFFFC
07FFFFFFFFFC
07FFFFFFFFF8
0007FC07FC00
0007F807FC00
000FF80FF800
000FF80FF800
001FF00FF800
001FF01FF000
001FE01FF000
003FE03FE000
003FE03FE000
007FC03FC000
007FC07FC000
3FFFFFFFFFE0
3FFFFFFFFFC0
7FFFFFFFFFC0
7FFFFFFFFFC0
7FFFFFFFFFC0
7FFFFFFFFF80
FFFFFFFFFF80
FFFFFFFFFF80
07FC03FC0000
07FC07FC0000
0FF807FC0000
0FF80FF80000
0FF80FF80000
1FF00FF00000
1FF01FF00000
3FE01FF00000
3FE03FE00000
3FE03FE00000
7FC03FC00000
7FC07FC00000
FF807FC00000
FF80FF800000
ENDCHAR
STARTCHAR 0024
ENCODING 36
SWIDTH 495 0
DWIDTH 44 0
BBX 44 71 4 -9
BITMAP
0000001FF000
0000003FF000
0000003FE000
0000003FE000
0000003FE000
0000007FE000
0000007FC000
0000007FC000
0000007FC000
00000FFFF000
00007FFFFE00
0001FFFFFFC0
0003FFFFFFF0
0007FFFFFFE0
000FFFFFFFE0
001FFFFFFFC0
003FFFFFFF80
003FFFC0FF80
007FFC000F00
007FF8000300
007FF0000000
00FFF0000000
00FFE0000000
00FFE0000000
00FFF0000000
00FFF0000000
00FFF8000000
007FFC000000
007FFE000000
007FFF800000
003FFFE00000
003FFFF00000
001FFFFC0000
000FFFFF0000
0007FFFF8000
0003FFFFC000
0000FFFFE000
00007FFFF000
00001FFFF000
000007FFF800
000001FFF800
0000007FFC00
0000003FFC00
0000003FFC00
0000001FFC00
0000001FFC00
0000001FFC00
0000001FFC00
0000001FFC00
0C00003FFC00
0F00007FF800
1FE001FFF800
1FFFFFFFF800
3FFFFFFFF000
7FFFFFFFE000
7FFFFFFFE000
FFFFFFFFC000
7FFFFFFF0000
1FFFFFFE0000
03FFFFF00000
007FFF800000
000FF8000000
000FF8000000
000FF8000000
001FF8000000
001FF0000000
001FF0000000
001FF0000000
003FF0000000
003FE0000000
003FE0000000
ENDCHAR
STARTCHAR 0025
ENCODING 37
SWIDTH 495 0
DWIDTH 44 0
BBX 53 57 1 -1
BITMAP
0000FF00000000
0003FF800007F8
0007FFC0000FF0
000FFFE0001FE0
001FFFE0003FC0
001FFFF0003FC0
003FFFF0007F80
003F87F000FF00
007F07F001FE00
007F07F003FC00
00FE07F007F800
00FE07F007F800
00FE07F00FF000
00FE07F01FE000
01FC07E03FC000
01FC0FE07F8000
01FC0FE0FF0000
01FC1FE0FF0000
01FC1FC1FE0000
01FC3FC3FC0000
01FFFF87F80000
00FFFF8FF00000
00FFFF1FE00000
00FFFE1FE00000
007FFC3FC00000
003FF87F800000
001FE0FF000000
000001FE000000
000003FC000000
000003FC000000
000007F83F8000
00000FF0FFE000
00001FE1FFF000
00003FC3FFF000
00007F87FFF800
00007F0FFFF800
0000FF1FF7F800
0001FE1FC3F800
0003FC1FC1F800
0007F83F81F800
000FF03F81F800
001FE07F01F800
001FE07F03F800
003FC07F03F800
007F807F03F800
00FF007E03F800
01FE007E07F000
03FC007E07F000
03FC007E0FF000
07F8007F1FE000
0FF0007FFFE000
1FE0007FFFC000
3FC0007FFF8000
7F80003FFF0000
7F80003FFE0000
FF00001FFC0000
00000007F00000
ENDCHAR
STARTCHAR 0026
ENCODING 38
SWIDTH 495 0
DWIDTH 44 0
BBX 43 57 4 -1
BITMAP
000003FF8000
00001FFFE000
00003FFFF000
0000FFFFF800
0001FFFFF800
0003FFFFFC00
0007FFFFFC00
0007FFFFFC00
000FFE07FE00
000FFC07FE00
001FF803FE00
001FF003FE00
001FF003FE00
001FF003FC00
003FE007FC00
003FE007FC00
003FE00FF800
003FE00FF800
003FE01FF000
003FE03FE000
001FF0FFE000
001FF1FFC000
001FFFFF8000
001FFFFF0000
000FFFFC0000
000FFFF80000
000FFFF02000
001FFFC03FE0
003FFF803FC0
00FFFF807FC0
01FFFFC07FC0
03FFFFE07FC0
07FF7FE0FF80
0FFE7FF0FF80
1FF83FF9FF00
1FF01FF9FF00
3FF01FFFFE00
7FE00FFFFE00
7FE007FFFC00
7FC007FFFC00
FFC003FFF800
FFC003FFF000
FFC001FFF000
FFC000FFE000
FFC000FFE000
FFC001FFE000
FFE003FFF000
FFF00FFFF000
FFFEFFFFF800
7FFFFFFFF800
7FFFFFFFFC00
3FFFFFEFFC00
3FFFFFCFFC00
1FFFFF0FFC00
07FFFE07FE00
03FFF007FE00
007F80000000
ENDCHAR
STARTCHAR 0027
ENCODING 39
SWIDTH 495 0
DWIDTH 44 0
BBX 15 26 25 34
BITMAP
1FFE
1FFE
1FFE
1FFC
3FFC
3FFC
3FFC
3FF8
7FF8
7FF8
7FF0
7FF0
7FF0
7FE0
7FE0
7FE0
FFC0
FFC0
FFC0
FF80
FF80
FF00
FF00
FE00
FE00
FE00
ENDCHAR
STARTCHAR 0028
ENCODING 40
SWIDTH 495 0
DWIDTH 44 0
BBX 36 78 12 -15
BITMAP
0000000100
0000000700
0000001F80
0000003FC0
000000FFC0
000001FFE0
000003FFE0
000007FFF0
00001FFFC0
00003FFF80
00007FFF00
0000FFFC00
0001FFF800
0003FFF000
0007FFE000
0007FFC000
000FFF8000
001FFF0000
003FFE0000
003FFC0000
007FF80000
00FFF00000
00FFF00000
01FFE00000
03FFC00000
03FFC00000
07FF800000
07FF000000
0FFF000000
0FFE000000
0FFE000000
1FFC000000
1FFC000000
1FFC000000
3FF8000000
3FF8000000
3FF0000000
7FF0000000
7FF0000000
7FF0000000
7FE0000000
7FE0000000
FFE0000000
FFE0000000
FFE0000000
FFE0000000
FFC0000000
FFC0000000
FFC0000000
FFC0000000
FFC0000000
FFE0000000
FFE0000000
FFE0000000
FFE0000000
7FE0000000
7FE0000000
7FE0000000
7FF0000000
3FF0000000
3FF0000000
3FF8000000
1FF8000000
1FFC000000
1FFC000000
0FFE000000
0FFF000000
07FF000000
07FF800000
03FFC00000
01FFE00000
01FFF00000
00FFE00000
007FC00000
007F800000
003F000000
001E000000
000C000000
ENDCHAR
STARTCHAR 0029
ENCODING 41
SWIDTH 495 0
DWIDTH 44 0
BBX 35 78 4 -15
BITMAP
0000020000
0000070000
00000F8000
00001FC000
00003FE000
00007FF000
0000FFF000
00007FF800
00003FFC00
00003FFC00
00001FFE00
00000FFE00
00000FFF00
000007FF00
000003FF80
000003FF80
000001FF80
000001FFC0
000001FFC0
000000FFC0
000000FFC0
000000FFE0
000000FFE0
0000007FE0
0000007FE0
0000007FE0
0000007FE0
0000007FE0
0000007FE0
0000007FE0
0000007FE0
0000007FE0
0000007FE0
0000007FE0
0000007FE0
0000007FE0
000000FFE0
000000FFE0
000000FFC0
000000FFC0
000001FFC0
000001FFC0
000001FFC0
000003FF80
000003FF80
000007FF80
000007FF00
000007FF00
00000FFE00
00000FFE00
00001FFE00
00003FFC00
00003FFC00
00007FF800
0000FFF800
0000FFF000
0001FFE000
0003FFE000
0007FFC000
0007FF8000
000FFF0000
001FFF0000
003FFE0000
007FFC0000
00FFF80000
03FFF00000
07FFE00000
0FFFC00000
1FFF800000
7FFF000000
FFFE000000
FFFC000000
7FF0000000
7FE0000000
3FC0000000
3F00000000
1E00000000
0800000000
ENDCHAR
STARTCHAR 002A
ENCODING 42
SWIDTH 495 0
DWIDTH 44 0
BBX 36 35 11 20
BITMAP
0007FE0000
0007FE0000
0007FE0000
0007FE0000
0007FE0000
0007FE0000
0003FE0000
1803FE0000
1E03FC03C0
3F83FC0FC0
3FE3FC3FC0
3FF1FCFFE0
7FFDF9FFE0
7FFFFFFFE0
7FFFFFFFF0
FFFFFFFFF0
FFFFFFFFF0
3FFFFFFFE0
01FFFFFE00
0007FE0000
000FFF8000
003FFFC000
007FFFE000
00FFDFF000
01FF9FF800
03FF9FFC00
07FF8FFE00
07FF0FFF00
0FFF07FF80
07FE07FF00
03FE03FC00
00FC03F800
007C01E000
003801C000
0000008000
ENDCHAR
STARTCHAR 002B
ENCODING 43
SWIDTH 495 0
DWIDTH 44 0
BBX 39 40 6 3
BITMAP
00000FF800
00001FF800
00001FF800
00001FF000
00001FF000
00003FF000
00003FF000
00003FE000
00003FE000
00007FE000
00007FE000
00007FC000
00007FC000
00007FC000
0000FFC000
3FFFFFFFFE
3FFFFFFFFE
3FFFFFFFFE
7FFFFFFFFE
7FFFFFFFFC
7FFFFFFFFC
7FFFFFFFFC
FFFFFFFFFC
FFFFFFFFF8
0003FE0000
0003FE0000
0007FE0000
0007FE0000
0007FC0000
0007FC0000
000FFC0000
000FFC0000
000FF80000
000FF80000
001FF80000
001FF80000
001FF00000
001FF00000
001FF00000
003FF00000
ENDCHAR
STARTCHAR 002C
ENCODING 44
SWIDTH 495 0
DWIDTH 44 0
BBX 21 28 9 -13
BITMAP
000F80
007FE0
00FFF0
01FFF0
01FFF8
03FFF8
03FFF8
03FFF8
07FFF8
07FFF8
03FFF8
03FFF8
03FFF8
01FFF0
00FFF0
003FF0
001FE0
003FE0
007FC0
01FFC0
07FF80
FFFF00
FFFE00
FFFC00
FFF000
FFE000
FF8000
FC0000
ENDCHAR
STARTCHAR 002D
ENCODING 45
SWIDTH 495 0
DWIDTH 44 0
BBX 27 11 12 17
BITMAP
1FFFFFE0
1FFFFFE0
3FFFFFE0
3FFFFFC0
3FFFFFC0
3FFFFFC0
7FFFFFC0
7FFFFF80
7FFFFF80
7FFFFF80
FFFFFF80
ENDCHAR
STARTCHAR 002E
ENCODING 46
SWIDTH 495 0
DWIDTH 44 0
BBX 16 16 14 -1
BITMAP
01F0
07FC
1FFE
3FFE
3FFF
7FFF
7FFF
7FFF
FFFF
FFFF
7FFF
7FFE
7FFC
3FFC
1FF0
0FC0
ENDCHAR
STARTCHAR 002F
ENCODING 47
SWIDTH 495 0
DWIDTH 44 0
BBX 52 77 -1 -15
BITMAP
00000000007FF0
0000000000FFF0
0000000000FFE0
0000000001FFE0
0000000001FFC0
0000000003FFC0
0000000003FF80
0000000007FF00
000000000FFF00
000000000FFE00
000000001FFE00
000000001FFC00
000000003FFC00
000000003FF800
000000007FF800
000000007FF000
00000000FFF000
00000000FFE000
00000001FFE000
00000001FFC000
00000003FFC000
00000003FF8000
00000007FF0000
0000000FFF0000
0000000FFE0000
0000001FFE0000
0000001FFC0000
0000003FFC0000
0000003FF80000
0000007FF80000
0000007FF00000
000000FFF00000
000000FFE00000
000001FFE00000
000001FFC00000
000003FFC00000
000007FF800000
000007FF000000
00000FFF000000
00000FFE000000
00001FFE000000
00001FFC000000
00003FFC000000
00003FF8000000
00007FF8000000
00007FF0000000
0000FFF0000000
0000FFE0000000
0001FFE0000000
0001FFC0000000
0003FF80000000
0007FF80000000
0007FF00000000
000FFF00000000
000FFE00000000
001FFE00000000
001FFC00000000
003FFC00000000
003FF800000000
007FF800000000
007FF000000000
00FFF000000000
00FFE000000000
01FFE000000000
01FFC000000000
03FF8000000000
07FF8000000000
07FF0000000000
0FFF0000000000
0FFE0000000000
1FFE0000000000
1FFC0000000000
3FFC0000000000
3FF80000000000
7FF80000000000
7FF00000000000
FFF00000000000
ENDCHAR
STARTCHAR 0030
ENCODING 48
SWIDTH 495 0
DWIDTH 44 0
BBX 42 57 6 -1
BITMAP
000007FF0000
00003FFFC000
0000FFFFF000
0001FFFFF800
0007FFFFFC00
000FFFFFFE00
001FFFFFFE00
003FFFFFFF00
003FFFFFFF00
007FFE0FFF80
00FFF803FF80
00FFE003FF80
01FFC001FF80
03FFC001FF80
03FF8001FFC0
07FF0001FFC0
07FF0001FFC0
07FE0001FFC0
0FFE0001FFC0
0FFC0001FFC0
1FFC0001FFC0
1FFC0001FF80
1FF81F81FF80
1FF83FC1FF80
3FF83FC1FF80
3FF07FC1FF80
3FF07FC1FF80
3FF0FFC3FF80
7FF0FFC3FF80
7FE0FF83FF00
7FE0FF83FF00
7FE07F03FF00
7FE07E07FF00
7FE00007FE00
7FE00007FE00
FFE0000FFE00
FFE0000FFC00
FFC0000FFC00
FFE0001FFC00
FFC0001FF800
FFC0003FF800
FFE0003FF000
FFE0007FF000
7FE000FFE000
7FE001FFE000
7FF003FFC000
7FF007FFC000
7FFC1FFF8000
3FFFFFFF0000
3FFFFFFF0000
1FFFFFFE0000
0FFFFFFC0000
0FFFFFF80000
07FFFFE00000
01FFFFC00000
00FFFF000000
001FF8000000
ENDCHAR
STARTCHAR 0031
ENCODING 49
SWIDTH 495 0
DWIDTH 44 0
BBX 35 55 6 0
BITMAP
0000003FE0
0000007FE0
000001FFE0
000003FFC0
00000FFFC0
00001FFFC0
00007FFFC0
0001FFFFC0
0007FFFF80
001FFFFF80
007FFFFF80
03FFFFFF80
03FFFFFF00
01FFFFFF00
01FFF7FF00
01FFE7FF00
00FF8FFE00
00FE0FFE00
00F80FFE00
00600FFE00
00001FFC00
00001FFC00
00001FFC00
00001FFC00
00001FF800
00003FF800
00003FF800
00003FF800
00003FF800
00007FF000
00007FF000
00007FF000
00007FF000
0000FFE000
0000FFE000
0000FFE000
0000FFE000
0001FFC000
0001FFC000
0001FFC000
0001FFC000
0003FF8000
0003FF8000
0003FF8000
0003FF8000
0007FF0000
3FFFFFFFE0
7FFFFFFFE0
7FFFFFFFE0
7FFFFFFFC0
7FFFFFFFC0
7FFFFFFFC0
FFFFFFFFC0
FFFFFFFF80
FFFFFFFF80
ENDCHAR
STARTCHAR 0032
ENCODING 50
SWIDTH 495 0
DWIDTH 44 0
BBX 43 56 4 0
BITMAP
000003FFC000
00003FFFF000
0000FFFFFC00
0003FFFFFE00
000FFFFFFF00
001FFFFFFF80
007FFFFFFFC0
007FFFFFFFC0
003FFFFFFFE0
003FFF0FFFE0
001FF001FFE0
001FC001FFE0
000F0000FFE0
000C0000FFE0
00000000FFE0
00000000FFE0
00000000FFE0
00000000FFE0
00000001FFC0
00000001FFC0
00000003FF80
00000007FF80
0000000FFF00
0000001FFE00
0000007FFE00
000000FFFC00
000001FFF800
000007FFF000
00000FFFE000
00001FFFC000
00007FFF0000
0000FFFE0000
0001FFFC0000
0007FFF00000
000FFFE00000
001FFFC00000
003FFF000000
007FFE000000
00FFF8000000
01FFF0000000
03FFE0000000
07FFC0000000
0FFF80000000
0FFF00000000
1FFE00000000
1FFC00000000
3FF800000000
3FFFFFFFF800
7FFFFFFFF800
7FFFFFFFF800
7FFFFFFFF800
FFFFFFFFF000
FFFFFFFFF000
FFFFFFFFF000
FFFFFFFFF000
FFFFFFFFE000
ENDCHAR
STARTCHAR 0033
ENCODING 51
SWIDTH 495 0
DWIDTH 44 0
BBX 43 57 3 -1
BITMAP
000007FFC000
00003FFFF000
0001FFFFFC00
0007FFFFFF00
000FFFFFFF80
000FFFFFFF80
0007FFFFFFC0
0007FFFFFFE0
0007FFFFFFE0
0003F807FFE0
0003C001FFE0
00030000FFE0
00000000FFE0
000000007FE0
000000007FE0
00000000FFE0
00000000FFE0
00000000FFC0
00000001FFC0
00000001FF80
00000007FF80
0000000FFF00
000000FFFE00
0000FFFFFC00
0000FFFFF000
0000FFFFE000
0000FFFF8000
0001FFFF0000
0001FFFFC000
0001FFFFE000
0001FFFFF000
00003FFFF800
000000FFFC00
0000003FFC00
0000001FFE00
0000000FFE00
0000000FFE00
0000000FFE00
00000007FE00
0000000FFE00
0000000FFE00
0000000FFE00
0000000FFE00
0000001FFE00
0000001FFE00
1800003FFC00
1E0000FFFC00
3FC003FFF800
3FFFFFFFF800
7FFFFFFFF000
7FFFFFFFE000
FFFFFFFFC000
FFFFFFFF8000
FFFFFFFE0000
3FFFFFF80000
0FFFFFE00000
00FFFE000000
ENDCHAR
STARTCHAR 0034
ENCODING 52
SWIDTH 495 0
DWIDTH 44 0
BBX 44 55 4 0
BITMAP
000000007FF0
00000000FFF0
00000001FFF0
00000003FFF0
00000007FFE0
0000000FFFE0
0000003FFFE0
0000007FFFE0
000000FFFFC0
000001FFFFC0
000003FFFFC0
000007FFFFC0
00000FFFFF80
00001FFDFF80
00003FF9FF80
00007FE3FF80
0000FFC3FF00
0001FF83FF00
0001FF03FF00
0003FF07FF00
0007FE07FE00
000FFC07FE00
001FF807FE00
003FF00FFE00
007FE00FFC00
00FFC00FFC00
01FF800FFC00
03FF001FFC00
03FE001FFC00
07FC001FF800
0FFC001FF800
1FF8003FF800
3FF0003FF800
3FFFFFFFFFC0
7FFFFFFFFFC0
7FFFFFFFFFC0
7FFFFFFFFF80
7FFFFFFFFF80
FFFFFFFFFF80
FFFFFFFFFF80
FFFFFFFFFF00
FFFFFFFFFF00
000000FFC000
000001FFC000
000001FFC000
000001FF8000
000001FF8000
000001FF8000
000003FF8000
000003FF0000
000003FF0000
000003FF0000
000007FF0000
000007FE0000
000007FE0000
ENDCHAR
STARTCHAR 0035
ENCODING 53
SWIDTH 495 0
DWIDTH 44 0
BBX 46 56 3 -1
BITMAP
00007FFFFFFC
00007FFFFFFC
00007FFFFFFC
0000FFFFFFFC
0000FFFFFFF8
0000FFFFFFF8
0000FFFFFFF8
0001FFFFFFF8
0001FFFFFFF0
0001FF000000
0003FF000000
0003FE000000
0003FE000000
0007FE000000
0007FE000000
0007FC000000
000FFC000000
000FFC000000
000FF8000000
001FF8000000
001FF8000000
001FFFC00000
001FFFF80000
003FFFFE0000
003FFFFF8000
007FFFFFC000
007FFFFFE000
007FFFFFF000
00FFFFFFF800
00001FFFFC00
000003FFFC00
0000007FFE00
0000003FFE00
0000001FFE00
0000000FFE00
0000000FFE00
0000000FFE00
00000007FE00
0000000FFE00
0000000FFE00
0000000FFE00
0000000FFE00
0000001FFE00
0000001FFC00
0800003FFC00
1F0000FFFC00
1FE007FFF800
3FFFFFFFF000
3FFFFFFFF000
7FFFFFFFE000
7FFFFFFFC000
FFFFFFFF8000
FFFFFFFE0000
3FFFFFFC0000
07FFFFE00000
007FFE000000
ENDCHAR
STARTCHAR 0036
ENCODING 54
SWIDTH 495 0
DWIDTH 44 0
BBX 42 56 7 -1
BITMAP
00000003FFC0
0000007FFFC0
000001FFFFC0
00000FFFFFC0
00003FFFFFC0
0000FFFFFFC0
0001FFFFFF80
0007FFFFFF80
000FFFFFFE00
001FFFFC0000
003FFFC00000
007FFF000000
00FFFC000000
01FFF0000000
01FFE0000000
03FFC0000000
07FF80000000
07FF00000000
0FFE00000000
0FFC00000000
1FFC07C00000
1FF87FFC0000
3FFBFFFF0000
3FFFFFFF8000
3FFFFFFFC000
7FFFFFFFE000
7FFFFFFFF000
7FFFFFFFF000
7FFFFFFFF800
FFFC00FFF800
FFE0003FF800
FFE0003FFC00
FFE0001FFC00
FFC0001FFC00
FFC0001FFC00
FFC0001FFC00
FFC0001FFC00
FFC0001FFC00
FFC0001FFC00
FFC0001FF800
FFC0001FF800
FFE0003FF800
FFE0003FF800
FFF0007FF000
7FF000FFF000
7FF801FFE000
3FFE03FFE000
3FFFFFFFC000
1FFFFFFFC000
1FFFFFFF8000
0FFFFFFF0000
07FFFFFE0000
03FFFFF80000
01FFFFF00000
007FFFC00000
000FFC000000
ENDCHAR
STARTCHAR 0037
ENCODING 55
SWIDTH 495 0
DWIDTH 44 0
BBX 42 55 11 0
BITMAP
1FFFFFFFFFC0
1FFFFFFFFF80
1FFFFFFFFF80
1FFFFFFFFF80
3FFFFFFFFF80
3FFFFFFFFF00
3FFFFFFFFF00
3FFFFFFFFF00
7FFFFFFFFE00
0000003FFC00
0000007FF800
000000FFF000
000001FFE000
000003FFC000
000003FF8000
000007FF8000
00000FFF0000
00001FFE0000
00001FFC0000
00003FF80000
00007FF80000
0000FFF00000
0000FFE00000
0001FFC00000
0003FFC00000
0003FF800000
0007FF000000
000FFF000000
000FFE000000
001FFC000000
003FFC000000
003FF8000000
007FF8000000
007FF0000000
00FFE0000000
00FFE0000000
01FFC0000000
01FFC0000000
03FF80000000
03FF80000000
07FF00000000
07FF00000000
0FFE00000000
0FFE00000000
1FFC00000000
1FFC00000000
3FFC00000000
3FF800000000
3FF800000000
7FF000000000
7FF000000000
FFF000000000
FFE000000000
FFE000000000
FFE000000000
ENDCHAR
STARTCHAR 0038
ENCODING 56
SWIDTH 495 0
DWIDTH 44 0
BBX 42 57 6 -1
BITMAP
00000FFF0000
00007FFFE000
0001FFFFF800
0003FFFFFC00
0007FFFFFE00
000FFFFFFF00
001FFFFFFF00
003FFFFFFF80
007FFF3FFF80
007FF807FFC0
00FFE001FFC0
00FFE001FFC0
00FFC000FFC0
00FFC000FFC0
01FF8000FFC0
01FF8000FFC0
01FF8001FF80
01FF8001FF80
01FFC003FF80
00FFC003FF00
00FFE007FF00
00FFF00FFE00
007FF83FFC00
007FFEFFF800
003FFFFFF000
001FFFFFE000
000FFFFF8000
001FFFFE0000
003FFFFE0000
00FFFFFF0000
01FFFFFF8000
03FFDFFFC000
0FFF07FFE000
0FFE01FFF000
1FFC00FFF000
3FF0007FF800
7FF0003FF800
7FE0003FF800
FFE0001FF800
FFC0001FF800
FFC0001FF800
FFC0001FF800
FFC0003FF800
FFC0003FF800
FFC0007FF800
FFE0007FF000
FFF000FFF000
FFF803FFF000
FFFFBFFFE000
7FFFFFFFC000
7FFFFFFF8000
3FFFFFFF8000
1FFFFFFE0000
0FFFFFFC0000
07FFFFF00000
01FFFFC00000
003FFE000000
ENDCHAR
STARTCHAR 0039
ENCODING 57
SWIDTH 495 0
DWIDTH 44 0
BBX 43 56 5 0
BITMAP
00001FFE0000
0000FFFF8000
0003FFFFE000
000FFFFFF000
001FFFFFF800
003FFFFFFC00
007FFFFFFE00
00FFFFFFFF00
00FFFFFFFF00
01FFF81FFF80
01FFE007FF80
03FFC003FF80
03FF8001FFC0
07FF0001FFC0
07FF0001FFC0
07FE0000FFC0
07FE0000FFC0
0FFE0000FFE0
0FFE0000FFE0
0FFE0000FFE0
0FFE0000FFE0
0FFE0000FFC0
0FFE0000FFC0
0FFE0000FFC0
07FF0001FFC0
07FF8003FFC0
07FFE01FFFC0
03FFFFFFFFC0
03FFFFFFFF80
01FFFFFFFF80
01FFFFFFFF80
00FFFFFFFF80
007FFFFBFF00
001FFFE7FF00
0007FF07FF00
0000000FFE00
0000000FFE00
0000001FFC00
0000003FFC00
0000007FF800
000000FFF000
000001FFF000
000003FFE000
00000FFFC000
00003FFF8000
0000FFFF0000
0007FFFE0000
1FFFFFFC0000
7FFFFFF80000
7FFFFFE00000
7FFFFFC00000
7FFFFF000000
FFFFFC000000
FFFFF0000000
FFFF80000000
FFF000000000
ENDCHAR
STARTCHAR 003A
ENCODING 58
SWIDTH 495 0
DWIDTH 44 0
BBX 23 43 14 -1
BITMAP
000780
001FF0
003FF8
007FFC
00FFFC
00FFFC
01FFFE
01FFFE
01FFFC
01FFFC
01FFFC
01FFFC
00FFF8
00FFF0
007FE0
001F80
000000
000000
000000
000000
000000
000000
000000
000000
000000
000000
000000
01F000
07FC00
1FFE00
3FFE00
3FFF00
7FFF00
7FFF00
7FFF00
FFFF00
FFFF00
7FFF00
7FFE00
7FFC00
3FFC00
1FF000
0FC000
ENDCHAR
STARTCHAR 003B
ENCODING 59
SWIDTH 495 0
DWIDTH 44 0
BBX 28 55 9 -13
BITMAP
00003C00
0000FF80
0001FFC0
0003FFE0
0007FFE0
0007FFE0
000FFFF0
000FFFF0
000FFFE0
000FFFE0
000FFFE0
000FFFE0
0007FFC0
0007FF80
0003FF00
0000FC00
00000000
00000000
00000000
00000000
00000000
00000000
00000000
00000000
00000000
00000000
00000000
000F8000
007FE000
00FFF000
01FFF000
01FFF800
03FFF800
03FFF800
03FFF800
07FFF800
07FFF800
03FFF800
03FFF800
03FFF800
01FFF000
00FFF000
003FF000
001FE000
003FE000
007FC000
01FFC000
07FF8000
FFFF0000
FFFE0000
FFFC0000
FFF00000
FFE00000
FF800000
FC000000
ENDCHAR
STARTCHAR 003C
ENCODING 60
SWIDTH 495 0
DWIDTH 44 0
BBX 40 38 7 4
BITMAP
0000000003
000000001F
000000007F
00000003FF
0000000FFF
0000007FFF
000003FFFF
00000FFFFF
00007FFFFF
0003FFFFFF
000FFFFFFC
007FFFFFE0
01FFFFFF00
0FFFFFF800
3FFFFFE000
3FFFFF0000
3FFFF80000
7FFFC00000
7FFE000000
7FF8000000
7FFF000000
FFFFC00000
FFFFF00000
7FFFFC0000
1FFFFF0000
07FFFFE000
01FFFFF800
007FFFFE00
001FFFFF80
0007FFFFE0
0001FFFFE0
00007FFFE0
00001FFFC0
000003FFC0
000000FF80
0000003F00
0000000F00
0000000200
ENDCHAR
STARTCHAR 003D
ENCODING 61
SWIDTH 495 0
DWIDTH 44 0
BBX 44 27 4 10
BITMAP
03FFFFFFFFF0
03FFFFFFFFE0
03FFFFFFFFE0
03FFFFFFFFE0
07FFFFFFFFE0
07FFFFFFFFC0
07FFFFFFFFC0
07FFFFFFFFC0
0FFFFFFFFFC0
0FFFFFFFFF80
000000000000
000000000000
000000000000
000000000000
000000000000
000000000000
000000000000
000000000000
3FFFFFFFFE00
3FFFFFFFFE00
7FFFFFFFFE00
7FFFFFFFFE00
7FFFFFFFFC00
7FFFFFFFFC00
7FFFFFFFFC00
FFFFFFFFFC00
FFFFFFFFF800
ENDCHAR
STARTCHAR 003E
ENCODING 62
SWIDTH 495 0
DWIDTH 44 0
BBX 40 38 5 4
BITMAP
0060000000
00F8000000
00FE000000
01FF800000
01FFE00000
03FFF80000
03FFFE0000
07FFFF8000
07FFFFE000
01FFFFF800
007FFFFE00
001FFFFF80
0003FFFFE0
0000FFFFF8
00003FFFFE
00000FFFFF
000003FFFF
0000007FFF
0000001FFE
0000007FFE
000003FFFE
00001FFFFE
0000FFFFFC
0007FFFFFC
001FFFFFF0
00FFFFFF80
07FFFFFE00
3FFFFFF000
FFFFFFC000
FFFFFE0000
FFFFF00000
FFFFC00000
FFFE000000
FFF8000000
FFC0000000
FE00000000
F800000000
C000000000
ENDCHAR
STARTCHAR 003F
ENCODING 63
SWIDTH 495 0
DWIDTH 44 0
BBX 33 57 14 -1
BITMAP
000FFF8000
00FFFFF000
03FFFFF800
0FFFFFFC00
1FFFFFFE00
1FFFFFFF00
1FFFFFFF00
0FFFFFFF80
0FFFFFFF80
0FE01FFF80
0F8007FF80
0C0007FF80
000007FF80
000007FF80
000007FF80
000007FF80
00000FFF00
00000FFF00
00001FFE00
00007FFC00
0000FFFC00
0001FFF800
0007FFF000
000FFFC000
001FFF8000
003FFF0000
007FFC0000
00FFF80000
01FFF00000
03FFC00000
03FF800000
07FF000000
07FF000000
0FFE000000
0FFE000000
0FFC000000
0000000000
0000000000
0000000000
0000000000
0000000000
0000000000
0380000000
1FF0000000
3FF8000000
7FFC000000
7FFC000000
FFFC000000
FFFC000000
FFFC000000
FFFC000000
FFFC000000
FFF8000000
FFF8000000
7FF0000000
3FE0000000
1F80000000
ENDCHAR
STARTCHAR 0040
ENCODING 64
SWIDTH 495 0
DWIDTH 44 0
BBX 45 68 5 -12
BITMAP
000001FFF000
00000FFFFE00
00003FFFFF00
00007FFFFF80
0001FFFFFFC0
0003FFFFFFE0
0007FFFFFFE0
000FFFE3FFF0
001FFE007FF0
003FF8001FF0
007FF0001FF8
00FFE0000FF8
00FFC0000FF8
01FF80000FF8
01FF00000FF8
03FE00000FF8
03FC00000FF8
07FC003FFFF0
07F801FFFFF0
0FF803FFFFF0
0FF007FFFFF0
1FF00FFFFFF0
1FE01FFFFFE0
1FE03FFFFFE0
3FE07FFFFFE0
3FC07FF87FE0
3FC0FFE07FC0
3FC0FFC07FC0
7FC1FF807FC0
7F81FF00FFC0
7F81FF00FF80
7F83FF00FF80
7F83FE00FF80
FF83FE01FF80
FF83FE01FF80
FF03FE01FF00
FF03FE01FF00
FF03FC03FF00
FF03FC03FF00
FF03FC03FE00
FF03FE03FE00
FF03FE03FE00
FF03FE07FE00
FF03FF07FC00
FF03FFFFFC00
FF01FFFFFC00
FF01FFFFFC00
FF81FFFFF800
FF80FFFFF800
FF807FFFF800
FF803FFFF800
7F800FFFE000
7FC003FC0000
7FC000000000
7FE000000000
3FF000000000
3FF800000000
1FFC00000000
1FFE00000000
0FFFC0030000
0FFFFFFF0000
07FFFFFF0000
03FFFFFF0000
01FFFFFF0000
00FFFFFE0000
003FFFFE0000
000FFFFE0000
0000FFF00000
ENDCHAR
STARTCHAR 0041
ENCODING 65
SWIDTH 495 0
DWIDTH 44 0
BBX 42 55 0 0
BITMAP
0000001FFE00
0000001FFF00
0000003FFF00
0000003FFF00
0000007FFF00
000000FFFF00
000000FFFF00
000001FFFF00
000001FFFF00
000003FFFF00
000003FFFF00
000007FFFF80
00000FFDFF80
00000FFDFF80
00001FF9FF80
00001FF8FF80
00003FF0FF80
00003FF0FF80
00007FE0FF80
00007FE0FF80
0000FFC0FF80
0000FFC0FF80
0001FF80FF80
0001FF80FF80
0003FF00FFC0
0003FF00FFC0
0007FE00FFC0
0007FE00FFC0
000FFC00FFC0
000FFC00FFC0
001FF800FFC0
001FF800FFC0
003FF000FFC0
003FFFFFFFC0
007FFFFFFFC0
007FFFFFFFC0
00FFFFFFFFC0
00FFFFFFFFC0
01FFFFFFFFC0
01FFFFFFFFC0
03FFFFFFFFC0
03FFFFFFFFC0
07FF0000FFC0
07FE0000FFC0
0FFE0000FFC0
0FFE0000FFC0
1FFC0000FFC0
1FFC0001FFC0
3FF80001FFC0
3FF80001FFC0
3FF00001FFC0
7FF00001FFC0
7FF00001FFC0
FFE00001FFC0
FFE00001FFC0
ENDCHAR
STARTCHAR 0042
ENCODING 66
SWIDTH 495 0
DWIDTH 44 0
BBX 44 57 4 -1
BITMAP
000001FC0000
0001FFFFE000
000FFFFFFC00
000FFFFFFE00
000FFFFFFF00
001FFFFFFF80
001FFFFFFFC0
001FFFFFFFC0
001FFFFFFFE0
003FFFFFFFE0
003FF801FFE0
003FF800FFF0
003FF0007FF0
007FF0007FF0
007FF0007FF0
007FF0007FE0
007FE0007FE0
00FFE0007FE0
00FFE000FFE0
00FFE000FFC0
00FFC001FFC0
01FFC007FF80
01FFC03FFF00
01FFFFFFFE00
01FFFFFFFC00
01FFFFFFF800
03FFFFFFE000
03FFFFFFE000
03FFFFFFF000
03FFFFFFF800
07FFFFFFFC00
07FFFFFFFE00
07FE003FFF00
07FE000FFF00
0FFE0007FF00
0FFE0003FF80
0FFE0003FF80
0FFC0003FF80
1FFC0003FF80
1FFC0003FF80
1FFC0003FF80
1FF80007FF00
3FF80007FF00
3FF8000FFF00
3FF8001FFF00
3FF0003FFE00
7FF001FFFE00
7FFFFFFFFC00
7FFFFFFFF800
7FFFFFFFF000
FFFFFFFFE000
FFFFFFFFC000
FFFFFFFF0000
FFFFFFFE0000
FFFFFFF00000
3FFFFF800000
003FC0000000
ENDCHAR
STARTCHAR 0043
ENCODING 67
SWIDTH 495 0
DWIDTH 44 0
BBX 42 57 8 -1
BITMAP
000001FFE000
00000FFFFC00
00007FFFFF00
0000FFFFFFC0
0003FFFFFFC0
0007FFFFFFC0
000FFFFFFF80
001FFFFFFF80
003FFFFFFF00
007FFFC0FF00
00FFFE001E00
01FFF8000600
01FFF0000000
03FFE0000000
03FFC0000000
07FF80000000
07FF00000000
0FFF00000000
0FFE00000000
1FFE00000000
1FFC00000000
3FFC00000000
3FF800000000
3FF800000000
3FF800000000
7FF000000000
7FF000000000
7FF000000000
7FF000000000
FFE000000000
FFE000000000
FFE000000000
FFE000000000
FFE000000000
FFE000000000
FFE000000000
FFE000000000
FFE000000000
FFE000000000
FFE000000000
FFE000000000
FFE000000000
FFF000000000
FFF000000000
7FF800000000
7FFC00030000
7FFE001F0000
7FFFF7FF0000
3FFFFFFF0000
3FFFFFFF0000
1FFFFFFF8000
0FFFFFFF8000
07FFFFFF8000
03FFFFFF8000
01FFFFFE0000
007FFFF00000
000FFF800000
ENDCHAR
STARTCHAR 0044
ENCODING 68
SWIDTH 495 0
DWIDTH 44 0
BBX 44 57 3 -1
BITMAP
000003F00000
0003FFFF8000
0007FFFFE000
000FFFFFF800
000FFFFFFC00
000FFFFFFE00
000FFFFFFF00
001FFFFFFF80
001FFFFFFF80
001FFFFFFFC0
001FFC07FFC0
003FF803FFE0
003FF801FFE0
003FF800FFE0
003FF800FFF0
007FF0007FF0
007FF0007FF0
007FF0007FF0
007FF0007FF0
00FFE0007FF0
00FFE0007FF0
00FFE0007FF0
00FFE0007FF0
01FFC0007FF0
01FFC0007FF0
01FFC0007FF0
01FFC000FFF0
03FF8000FFE0
03FF8000FFE0
03FF8000FFE0
03FF8000FFE0
03FF0001FFE0
07FF0001FFE0
07FF0001FFC0
07FF0003FFC0
07FF0003FFC0
0FFE0003FF80
0FFE0007FF80
0FFE0007FF80
0FFE000FFF00
1FFC001FFF00
1FFC003FFE00
1FFC003FFE00
1FFC007FFC00
3FF801FFFC00
3FF803FFF800
3FF81FFFF000
3FFFFFFFE000
7FFFFFFFC000
7FFFFFFF8000
7FFFFFFF0000
7FFFFFFE0000
FFFFFFF80000
FFFFFFE00000
FFFFFF800000
FFFFFC000000
01FF80000000
ENDCHAR
STARTCHAR 0045
ENCODING 69
SWIDTH 495 0
DWIDTH 44 0
BBX 45 55 5 0
BITMAP
0007FFFFFFF8
000FFFFFFFF8
000FFFFFFFF8
000FFFFFFFF8
000FFFFFFFF0
000FFFFFFFF0
001FFFFFFFF0
001FFFFFFFF0
001FFFFFFFE0
001FFC000000
003FF8000000
003FF8000000
003FF8000000
003FF8000000
007FF0000000
007FF0000000
007FF0000000
007FF0000000
00FFE0000000
00FFE0000000
00FFE0000000
00FFFFFFF800
01FFFFFFF800
01FFFFFFF800
01FFFFFFF800
01FFFFFFF800
01FFFFFFF000
03FFFFFFF000
03FFFFFFF000
03FFFFFFF000
03FF80000000
07FF00000000
07FF00000000
07FF00000000
07FF00000000
0FFE00000000
0FFE00000000
0FFE00000000
0FFE00000000
1FFC00000000
1FFC00000000
1FFC00000000
1FFC00000000
3FF800000000
3FF800000000
3FF800000000
3FFFFFFFF000
3FFFFFFFF000
7FFFFFFFF000
7FFFFFFFF000
7FFFFFFFE000
7FFFFFFFE000
FFFFFFFFE000
FFFFFFFFE000
FFFFFFFFC000
ENDCHAR
STARTCHAR 0046
ENCODING 70
SWIDTH 495 0
DWIDTH 44 0
BBX 47 55 5 0
BITMAP
0007FFFFFFFE
0007FFFFFFFE
0007FFFFFFFC
000FFFFFFFFC
000FFFFFFFFC
000FFFFFFFFC
000FFFFFFFF8
001FFFFFFFF8
001FFFFFFFF8
001FFC000000
001FFC000000
003FFC000000
003FF8000000
003FF8000000
003FF8000000
007FF8000000
007FF0000000
007FF0000000
007FF0000000
007FF0000000
00FFE0000000
00FFE0000000
00FFFFFFFE00
00FFFFFFFC00
01FFFFFFFC00
01FFFFFFFC00
01FFFFFFFC00
01FFFFFFFC00
03FFFFFFF800
03FFFFFFF800
03FFFFFFF800
03FF80000000
07FF00000000
07FF00000000
07FF00000000
07FF00000000
0FFE00000000
0FFE00000000
0FFE00000000
0FFE00000000
0FFE00000000
1FFC00000000
1FFC00000000
1FFC00000000
1FFC00000000
3FF800000000
3FF800000000
3FF800000000
3FF800000000
7FF000000000
7FF000000000
7FF000000000
7FF000000000
FFE000000000
FFE000000000
ENDCHAR
STARTCHAR 0047
ENCODING 71
SWIDTH 495 0
DWIDTH 44 0
BBX 43 57 7 -1
BITMAP
000000FFF000
00000FFFFE00
00003FFFFF80
0000FFFFFFE0
0001FFFFFFE0
0003FFFFFFE0
000FFFFFFFC0
001FFFFFFFC0
003FFFFFFF80
007FFFE07F80
007FFE000F00
00FFFC000300
01FFF0000000
01FFE0000000
03FFC0000000
07FF80000000
07FF80000000
0FFF00000000
0FFE00000000
1FFE00000000
1FFC00000000
1FFC00000000
3FFC00000000
3FF800000000
3FF800000000
7FF000000000
7FF000000000
7FF0000FFE00
7FF0000FFC00
7FF0001FFC00
FFE0001FFC00
FFE0001FFC00
FFE0001FFC00
FFE0003FF800
FFE0003FF800
FFE0003FF800
FFE0003FF800
FFE0007FF000
FFE0007FF000
FFE0007FF000
FFE0007FF000
FFE000FFE000
FFF000FFE000
FFF000FFE000
7FF800FFE000
7FF801FFC000
7FFC01FFC000
7FFF87FFC000
3FFFFFFFC000
3FFFFFFF8000
1FFFFFFF8000
0FFFFFFF8000
0FFFFFFF8000
07FFFFFF0000
01FFFFFF0000
00FFFFF80000
001FFF000000
ENDCHAR
STARTCHAR 0048
ENCODING 72
SWIDTH 495 0
DWIDTH 44 0
BBX 50 55 2 0
BITMAP
0007FF0001FFC0
0007FF0001FFC0
0007FF0001FFC0
0007FF0003FF80
000FFE0003FF80
000FFE0003FF80
000FFE0003FF80
000FFE0007FF00
000FFC0007FF00
001FFC0007FF00
001FFC0007FF00
001FFC000FFE00
001FF8000FFE00
003FF8000FFE00
003FF8000FFE00
003FF8001FFC00
003FF8001FFC00
007FF0001FFC00
007FF0001FFC00
007FF0003FF800
007FF0003FF800
00FFE0003FF800
00FFFFFFFFF800
00FFFFFFFFF000
00FFFFFFFFF000
01FFFFFFFFF000
01FFFFFFFFF000
01FFFFFFFFE000
01FFFFFFFFE000
03FFFFFFFFE000
03FFFFFFFFE000
03FF8000FFE000
03FF8001FFC000
07FF0001FFC000
07FF0001FFC000
07FF0001FFC000
07FF0003FF8000
07FE0003FF8000
0FFE0003FF8000
0FFE0003FF8000
0FFE0007FF0000
0FFE0007FF0000
1FFC0007FF0000
1FFC0007FF0000
1FFC000FFE0000
1FFC000FFE0000
3FF8000FFE0000
3FF8000FFE0000
3FF8001FFC0000
3FF8001FFC0000
7FF0001FFC0000
7FF0001FFC0000
7FF0003FF80000
7FF0003FF80000
FFE0003FF80000
ENDCHAR
STARTCHAR 0049
ENCODING 73
SWIDTH 495 0
DWIDTH 44 0
BBX 48 55 3 0
BITMAP
0007FFFFFFFF
0007FFFFFFFF
0007FFFFFFFF
000FFFFFFFFE
000FFFFFFFFE
000FFFFFFFFE
000FFFFFFFFE
001FFFFFFFFC
001FFFFFFFFC
000001FFC000
000001FFC000
000001FFC000
000003FF8000
000003FF8000
000003FF8000
000003FF8000
000007FF0000
000007FF0000
000007FF0000
000007FF0000
00000FFE0000
00000FFE0000
00000FFE0000
00000FFE0000
00001FFC0000
00001FFC0000
00001FFC0000
00001FFC0000
00001FF80000
00003FF80000
00003FF80000
00003FF80000
00003FF80000
00007FF00000
00007FF00000
00007FF00000
00007FF00000
0000FFE00000
0000FFE00000
0000FFE00000
0000FFE00000
0001FFC00000
0001FFC00000
0001FFC00000
0001FFC00000
0003FF800000
3FFFFFFFF800
3FFFFFFFF800
3FFFFFFFF800
7FFFFFFFF000
7FFFFFFFF000
7FFFFFFFF000
7FFFFFFFF000
FFFFFFFFE000
FFFFFFFFE000
ENDCHAR
STARTCHAR 004A
ENCODING 74
SWIDTH 495 0
DWIDTH 44 0
BBX 45 56 4 -1
BITMAP
00007FFFFFF8
0000FFFFFFF8
0000FFFFFFF8
0000FFFFFFF8
0000FFFFFFF0
0001FFFFFFF0
0001FFFFFFF0
0001FFFFFFF0
0001FFFFFFF0
00000000FFE0
00000000FFE0
00000000FFE0
00000000FFE0
00000001FFC0
00000001FFC0
00000001FFC0
00000001FFC0
00000003FF80
00000003FF80
00000003FF80
00000003FF80
00000007FF00
00000007FF00
00000007FF00
00000007FF00
00000007FE00
0000000FFE00
0000000FFE00
0000000FFE00
0000000FFC00
0000001FFC00
0000001FFC00
0000001FFC00
0000001FFC00
0000003FF800
0000003FF800
0000003FF800
0000003FF800
0000007FF000
0000007FF000
000000FFF000
000000FFE000
000001FFE000
0C0001FFE000
1F0003FFC000
1FC00FFFC000
3FFC7FFF8000
7FFFFFFF8000
FFFFFFFF0000
FFFFFFFE0000
FFFFFFFC0000
7FFFFFF80000
3FFFFFF00000
0FFFFFE00000
03FFFF000000
007FF8000000
ENDCHAR
STARTCHAR 004B
ENCODING 75
SWIDTH 495 0
DWIDTH 44 0
BBX 50 55 3 0
BITMAP
0007FF0003FFC0
0007FF0007FF80
000FFE000FFF80
000FFE000FFF00
000FFE001FFE00
000FFE003FFC00
001FFC007FFC00
001FFC00FFF800
001FFC00FFF000
001FFC01FFE000
003FF803FFC000
003FF807FF8000
003FF80FFF8000
003FF81FFF0000
007FF01FFE0000
007FF03FFC0000
007FF07FF80000
007FF0FFF00000
00FFE1FFE00000
00FFE3FFC00000
00FFE7FF800000
00FFEFFF000000
00FFFFFE000000
01FFFFFC000000
01FFFFF8000000
01FFFFF0000000
01FFFFE0000000
03FFFFF0000000
03FFFFF8000000
03FFFFF8000000
03FFBFFC000000
07FF3FFE000000
07FF1FFE000000
07FF0FFF000000
07FF0FFF000000
0FFE07FF800000
0FFE07FF800000
0FFE03FFC00000
0FFE03FFC00000
1FFC01FFE00000
1FFC01FFE00000
1FFC00FFF00000
1FFC00FFF00000
3FF8007FF00000
3FF8007FF80000
3FF8007FF80000
3FF8003FF80000
3FF8003FFC0000
7FF0001FFC0000
7FF0001FFC0000
7FF0001FFE0000
7FF0001FFE0000
FFE0000FFE0000
FFE0000FFE0000
FFE0000FFF0000
ENDCHAR
STARTCHAR 004C
ENCODING 76
SWIDTH 495 0
DWIDTH 44 0
BBX 36 55 4 0
BITMAP
0007FF0000
0007FF0000
0007FF0000
000FFE0000
000FFE0000
000FFE0000
000FFE0000
001FFC0000
001FFC0000
001FFC0000
001FFC0000
003FF80000
003FF80000
003FF80000
003FF80000
007FF00000
007FF00000
007FF00000
007FF00000
00FFE00000
00FFE00000
00FFE00000
00FFE00000
00FFC00000
01FFC00000
01FFC00000
01FFC00000
01FFC00000
03FF800000
03FF800000
03FF800000
03FF800000
07FF000000
07FF000000
07FF000000
07FF000000
0FFE000000
0FFE000000
0FFE000000
0FFE000000
1FFC000000
1FFC000000
1FFC000000
1FFC000000
1FF8000000
3FF8000000
3FFFFFFFF0
3FFFFFFFF0
3FFFFFFFF0
7FFFFFFFE0
7FFFFFFFE0
7FFFFFFFE0
7FFFFFFFE0
FFFFFFFFE0
FFFFFFFFC0
ENDCHAR
STARTCHAR 004D
ENCODING 77
SWIDTH 495 0
DWIDTH 44 0
BBX 50 55 1 0
BITMAP
0001FF8000FFC0
0001FF8001FFC0
0001FF8001FFC0
0003FF8003FFC0
0003FF8003FFC0
0003FF8007FF80
0007FFC007FF80
0007FFC00FFF80
0007FFC00FFF80
000FFFC01FFF80
000FFFC01FFF80
000FFFC03FFF80
001FFFC03FFF00
001FEFC07FFF00
001FEFC07EFF00
001FEFC0FEFF00
003FCFC0FCFF00
003FCFC1FDFF00
003FCFC1F9FE00
007FCFC3F9FE00
007FCFE3F1FE00
007F8FE7F3FE00
007F8FEFE3FE00
00FF8FEFE3FC00
00FF8FFFC3FC00
00FF0FFFC7FC00
01FF0FFF87FC00
01FF07FF87FC00
01FF07FF07F800
01FE07FF0FF800
03FE07FE0FF800
03FE07FE0FF800
03FE07FC0FF800
07FE07FC1FF000
07FC07F81FF000
07FC07F81FF000
07FC00001FF000
0FFC00003FF000
0FF800003FE000
0FF800003FE000
0FF800003FE000
1FF800007FE000
1FF000007FE000
1FF000007FC000
3FF000007FC000
3FF00000FFC000
3FF00000FFC000
3FE00000FF8000
7FE00001FF8000
7FE00001FF8000
7FE00001FF8000
FFC00001FF8000
FFC00003FF0000
FFC00003FF0000
FFC00003FF0000
ENDCHAR
STARTCHAR 004E
ENCODING 78
SWIDTH 495 0
DWIDTH 44 0
BBX 50 55 2 0
BITMAP
0007FE0000FFC0
0007FE0000FFC0
0007FF0000FF80
0007FF0001FF80
000FFF0001FF80
000FFF8001FF80
000FFF8001FF00
000FFF8001FF00
001FFF8003FF00
001FFFC003FF00
001FFFC003FE00
001FFFC003FE00
003FFFE007FE00
003FFFE007FE00
003FFFE007FE00
003FFFE007FC00
003FEFF00FFC00
007FEFF00FFC00
007FEFF00FFC00
007FCFF00FF800
007FC7F81FF800
00FFC7F81FF800
00FFC7F81FF800
00FFC7F81FF000
00FF83FC3FF000
01FF83FC3FF000
01FF83FC3FF000
01FF83FC3FE000
01FF01FE3FE000
03FF01FE7FE000
03FF01FE7FE000
03FF01FE7FC000
03FE01FE7FC000
07FE00FFFFC000
07FE00FFFFC000
07FE00FFFFC000
07FC00FFFF8000
0FFC007FFF8000
0FFC007FFF8000
0FFC007FFF8000
0FF8007FFF0000
0FF8007FFF0000
1FF8003FFF0000
1FF8003FFF0000
1FF8003FFE0000
1FF0003FFE0000
3FF0003FFE0000
3FF0001FFE0000
3FF0001FFC0000
3FE0001FFC0000
7FE0001FFC0000
7FE0001FFC0000
7FE0001FF80000
7FC0000FF80000
FFC0000FF80000
ENDCHAR
STARTCHAR 004F
ENCODING 79
SWIDTH 495 0
DWIDTH 44 0
BBX 42 57 6 -1
BITMAP
000007FF0000
00003FFFC000
0000FFFFF000
0001FFFFF800
0007FFFFFC00
000FFFFFFE00
001FFFFFFE00
003FFFFFFF00
007FFFFFFF00
007FFE1FFF80
00FFF807FF80
01FFF003FF80
01FFE003FFC0
03FFC001FFC0
03FF8001FFC0
07FF8001FFC0
07FF0001FFC0
0FFF0001FFC0
0FFE0001FFC0
0FFE0001FFC0
1FFC0001FFC0
1FFC0001FFC0
1FFC0001FFC0
3FF80001FFC0
3FF80001FF80
3FF80003FF80
7FF00003FF80
7FF00003FF80
7FF00003FF80
7FF00003FF80
7FF00007FF00
7FF00007FF00
FFE00007FF00
FFE00007FF00
FFE0000FFE00
FFE0000FFE00
FFE0000FFE00
FFE0001FFC00
FFE0001FFC00
FFE0003FFC00
FFE0003FF800
FFE0007FF800
FFE0007FF000
FFE000FFF000
FFF001FFE000
7FF003FFE000
7FF807FFC000
7FFE3FFF8000
3FFFFFFF8000
3FFFFFFF0000
1FFFFFFE0000
1FFFFFFC0000
0FFFFFF80000
07FFFFE00000
03FFFFC00000
00FFFF000000
003FF8000000
ENDCHAR
STARTCHAR 0050
ENCODING 80
SWIDTH 495 0
DWIDTH 44 0
BBX 46 56 3 0
BITMAP
0000007C0000
0001FFFFF000
0007FFFFFE00
0007FFFFFF80
0007FFFFFFC0
0007FFFFFFE0
000FFFFFFFF0
000FFFFFFFF0
000FFFFFFFF8
000FFFFFFFF8
001FFC01FFFC
001FFC007FFC
001FFC003FFC
001FFC001FFC
003FF8001FFC
003FF8001FFC
003FF8001FFC
003FF8001FFC
007FF0001FFC
007FF0001FFC
007FF0001FFC
007FF0003FFC
00FFE0003FF8
00FFE0007FF8
00FFE000FFF8
00FFE001FFF0
01FFC007FFF0
01FFC03FFFE0
01FFFFFFFFC0
01FFFFFFFF80
03FFFFFFFF00
03FFFFFFFE00
03FFFFFFFC00
03FFFFFFF000
03FFFFFFC000
07FFFFFF0000
07FFFFF00000
07FF00000000
07FF00000000
0FFE00000000
0FFE00000000
0FFE00000000
0FFE00000000
1FFC00000000
1FFC00000000
1FFC00000000
1FFC00000000
3FF800000000
3FF800000000
3FF800000000
3FF800000000
7FF000000000
7FF000000000
7FF000000000
7FF000000000
FFE000000000
ENDCHAR
STARTCHAR 0051
ENCODING 81
SWIDTH 495 0
DWIDTH 44 0
BBX 42 71 6 -15
BITMAP
000007FF0000
00003FFFC000
0000FFFFF000
0001FFFFF800
0007FFFFFC00
000FFFFFFE00
001FFFFFFE00
003FFFFFFF00
007FFFFFFF00
007FFE1FFF80
00FFF807FF80
01FFF003FF80
01FFE003FFC0
03FFC001FFC0
03FF8001FFC0
07FF8001FFC0
07FF0001FFC0
0FFF0001FFC0
0FFE0001FFC0
0FFE0001FFC0
1FFC0001FFC0
1FFC0001FFC0
1FFC0001FFC0
3FF80001FF80
3FF80001FF80
3FF80003FF80
3FF00003FF80
7FF00003FF80
7FF00003FF80
7FF00003FF80
7FF00007FF00
7FF00007FF00
7FE00007FF00
FFE00007FF00
FFE0000FFE00
FFE0000FFE00
FFE0000FFE00
FFE0001FFC00
FFE0001FFC00
FFE0003FFC00
FFE0003FF800
FFE0007FF800
FFE0007FF000
FFE000FFF000
FFF001FFE000
7FF003FFE000
7FF807FFC000
7FFE3FFF8000
3FFFFFFF8000
3FFFFFFF0000
1FFFFFFE0000
1FFFFFFC0000
0FFFFFF80000
07FFFFE00000
03FFFFC00000
00FFFF000000
003FF8000000
003FC0000000
003FE0000000
003FE0000000
003FF0000000
003FFC000000
001FFF000000
001FFFF80000
000FFFFE0000
0007FFFC0000
0003FFFC0000
0001FFF80000
00007FF80000
00000FF00000
000000F00000
ENDCHAR
STARTCHAR 0052
ENCODING 82
SWIDTH 495 0
DWIDTH 44 0
BBX 44 56 3 0
BITMAP
000001F80000
0001FFFFE000
0007FFFFFC00
0007FFFFFE00
000FFFFFFF00
000FFFFFFF80
000FFFFFFFC0
000FFFFFFFE0
001FFFFFFFE0
001FFF3FFFF0
001FFC01FFF0
001FF800FFF0
003FF8007FF0
003FF8007FF0
003FF8007FF0
003FF8007FF0
007FF0007FF0
007FF0007FF0
007FF0007FF0
007FF0007FF0
00FFE0007FF0
00FFE000FFE0
00FFE001FFE0
00FFE001FFE0
00FFC007FFC0
01FFC00FFF80
01FFC0FFFF80
01FFFFFFFF00
01FFFFFFFE00
03FFFFFFFC00
03FFFFFFF800
03FFFFFFF000
03FFFFFFC000
07FFFFFE0000
07FFFFFE0000
07FFFFFF0000
07FE03FF0000
0FFE03FF8000
0FFE01FF8000
0FFE01FFC000
0FFE01FFC000
1FFC00FFE000
1FFC00FFE000
1FFC007FE000
1FFC007FF000
1FF8007FF000
3FF8003FF000
3FF8003FF800
3FF8003FF800
3FF0001FF800
7FF0001FFC00
7FF0001FFC00
7FF0000FFC00
7FE0000FFC00
FFE0000FFE00
FFE0000FFE00
ENDCHAR
STARTCHAR 0053
ENCODING 83
SWIDTH 495 0
DWIDTH 44 0
BBX 45 57 3 -1
BITMAP
000001FFF800
00001FFFFF80
00007FFFFFE0
0000FFFFFFF8
0001FFFFFFF8
0003FFFFFFF8
0007FFFFFFF0
000FFFFFFFE0
001FFFFFFFE0
001FFF003FC0
003FFC0007C0
003FF8000080
003FF8000000
003FF0000000
007FF0000000
007FF0000000
007FF0000000
007FF0000000
007FF8000000
007FF8000000
003FFC000000
003FFF000000
003FFFC00000
003FFFF00000
001FFFFC0000
000FFFFF0000
000FFFFF8000
0007FFFFC000
0001FFFFE000
0000FFFFF000
00003FFFF800
00000FFFFC00
000003FFFC00
000000FFFC00
0000007FFE00
0000003FFE00
0000001FFE00
0000000FFE00
0000000FFE00
0000000FFE00
0000000FFE00
0000000FFE00
0000000FFE00
0000000FFE00
0800001FFC00
0E00003FFC00
1FC0007FFC00
3FF803FFF800
3FFFFFFFF800
7FFFFFFFF000
7FFFFFFFE000
FFFFFFFFC000
FFFFFFFF8000
3FFFFFFF0000
1FFFFFFC0000
03FFFFF00000
003FFF000000
ENDCHAR
STARTCHAR 0054
ENCODING 84
SWIDTH 495 0
DWIDTH 44 0
BBX 41 55 12 0
BITMAP
7FFFFFFFFF80
7FFFFFFFFF80
7FFFFFFFFF80
7FFFFFFFFF80
7FFFFFFFFF80
FFFFFFFFFF00
FFFFFFFFFF00
FFFFFFFFFF00
FFFFFFFFFF00
0003FF800000
0003FF800000
0007FF000000
0007FF000000
0007FF000000
0007FF000000
000FFE000000
000FFE000000
000FFE000000
000FFE000000
001FFC000000
001FFC000000
001FFC000000
001FFC000000
003FF8000000
003FF8000000
003FF8000000
003FF8000000
003FF0000000
007FF0000000
007FF0000000
007FF0000000
007FF0000000
00FFE0000000
00FFE0000000
00FFE0000000
00FFE0000000
01FFC0000000
01FFC0000000
01FFC0000000
01FFC0000000
03FF80000000
03FF80000000
03FF80000000
03FF80000000
07FF00000000
07FF00000000
07FF00000000
07FF00000000
0FFE00000000
0FFE00000000
0FFE00000000
0FFE00000000
0FFC00000000
1FFC00000000
1FFC00000000
ENDCHAR
STARTCHAR 0055
ENCODING 85
SWIDTH 495 0
DWIDTH 44 0
BBX 45 56 6 -1
BITMAP
007FF0003FF8
007FF0003FF8
007FF0003FF8
00FFE0003FF8
00FFE0007FF0
00FFE0007FF0
00FFE0007FF0
01FFC0007FF0
01FFC000FFE0
01FFC000FFE0
01FFC000FFE0
03FF8000FFE0
03FF8001FFC0
03FF8001FFC0
03FF8001FFC0
07FF0001FFC0
07FF0003FF80
07FF0003FF80
07FF0003FF80
0FFE0003FF80
0FFE0007FF00
0FFE0007FF00
0FFE0007FF00
1FFE0007FF00
1FFC0007FE00
1FFC000FFE00
1FFC000FFE00
1FFC000FFE00
3FF8000FFE00
3FF8001FFC00
3FF8001FFC00
3FF8001FFC00
7FF0001FFC00
7FF0003FF800
7FF0003FF800
7FF0003FF800
FFE0003FF800
FFE0007FF000
FFE0007FF000
FFE0007FF000
FFE000FFE000
FFE000FFE000
FFE000FFE000
FFE001FFC000
FFF003FFC000
FFF007FFC000
FFFF3FFF8000
7FFFFFFF8000
7FFFFFFF0000
7FFFFFFE0000
3FFFFFFC0000
1FFFFFFC0000
0FFFFFF00000
07FFFFE00000
03FFFF800000
007FFC000000
ENDCHAR
STARTCHAR 0056
ENCODING 86
SWIDTH 495 0
DWIDTH 44 0
BBX 43 55 12 0
BITMAP
FFE00001FFE0
FFE00001FFC0
FFE00003FFC0
FFE00003FF80
FFE00003FF80
FFE00007FF00
FFE00007FF00
FFE0000FFF00
FFE0000FFE00
FFE0000FFE00
FFE0001FFC00
FFE0001FFC00
FFE0003FF800
FFE0003FF800
FFE0007FF000
FFE0007FF000
FFE000FFE000
FFE000FFE000
FFE000FFC000
FFE001FFC000
FFE001FF8000
FFE003FF8000
FFE003FF0000
7FE007FF0000
7FE007FE0000
7FE00FFE0000
7FE00FFC0000
7FE00FFC0000
7FE01FF80000
7FE01FF80000
7FE03FF00000
7FE03FF00000
7FE07FE00000
7FE07FE00000
7FE0FFC00000
7FE0FFC00000
7FE1FF800000
7FE1FF800000
7FE3FF000000
3FE3FF000000
3FE7FE000000
3FE7FE000000
3FEFFC000000
3FFFF8000000
3FFFF8000000
3FFFF0000000
3FFFF0000000
3FFFE0000000
3FFFE0000000
3FFFC0000000
1FFF80000000
1FFF80000000
1FFF00000000
1FFF00000000
1FFE00000000
ENDCHAR
STARTCHAR 0057
ENCODING 87
SWIDTH 495 0
DWIDTH 44 0
BBX 50 55 4 0
BITMAP
003FF00000FFC0
007FE00000FFC0
007FE00000FF80
007FE00001FF80
007FE00001FF80
007FC00001FF80
00FFC00001FF00
00FFC00003FF00
00FFC00003FF00
00FF800003FF00
01FF800003FE00
01FF800007FE00
01FF800007FE00
01FF000007FC00
01FF000007FC00
03FF000007FC00
03FF00000FFC00
03FE00000FF800
03FE00000FF800
03FE07F80FF800
07FE07F81FF800
07FC0FF81FF000
07FC1FF81FF000
07FC1FF81FF000
07FC3FF83FE000
0FF83FF83FE000
0FF87FF83FE000
0FF87FF83FE000
0FF8FFF83FC000
0FF0FFF87FC000
1FF1FDF87FC000
1FF1FDF87F8000
1FF3F9FC7F8000
1FE3F9FCFF8000
1FE7F1FCFF8000
3FE7F1FCFF0000
3FEFE1FCFF0000
3FCFE1FDFF0000
3FDFC1FDFE0000
3FDFC1FDFE0000
3FFF80FDFE0000
7FBF80FDFE0000
7FFF00FFFC0000
7FFF00FFFC0000
7FFE00FFFC0000
7FFE00FFF80000
7FFC00FFF80000
7FF800FFF80000
FFF800FFF00000
FFF000FFF00000
FFF000FFF00000
FFE000FFE00000
FFE0007FE00000
FFC0007FE00000
FFC0007FC00000
ENDCHAR
STARTCHAR 0058
ENCODING 88
SWIDTH 495 0
DWIDTH 44 0
BBX 53 55 1 0
BITMAP
0007FF00007FF8
0007FF00007FF0
0007FF0000FFE0
0003FF8001FFE0
0003FF8001FFC0
0003FFC003FF80
0001FFC007FF80
0001FFC00FFF00
0000FFE00FFE00
0000FFE01FFC00
0000FFE03FF800
00007FF03FF800
00007FF07FF000
00003FF0FFE000
00003FF9FFC000
00003FF9FFC000
00001FFBFF8000
00001FFFFF0000
00000FFFFE0000
00000FFFFC0000
00000FFFFC0000
000007FFF80000
000007FFF00000
000003FFE00000
000003FFC00000
000003FFC00000
000007FFC00000
00000FFFC00000
00001FFFC00000
00001FFFE00000
00003FFFE00000
00007FFFE00000
0000FFFFF00000
0000FFFFF00000
0001FFFFF00000
0003FFBFF80000
0007FF9FF80000
0007FF1FF80000
000FFE1FFC0000
001FFE1FFC0000
003FFC0FFC0000
007FF80FFC0000
007FF80FFE0000
00FFF00FFE0000
01FFE00FFE0000
03FFC007FE0000
03FFC007FF0000
07FF8007FF0000
0FFF0007FF0000
1FFF0007FF0000
1FFE0003FF8000
3FFC0003FF8000
7FF80003FF8000
FFF80003FF8000
FFF00003FF8000
ENDCHAR
STARTCHAR 0059
ENCODING 89
SWIDTH 495 0
DWIDTH 44 0
BBX 42 55 13 0
BITMAP
FFC00003FFC0
FFC00007FF80
FFE00007FF00
FFE0000FFF00
FFE0000FFE00
FFE0001FFE00
7FE0003FFC00
7FE0003FF800
7FE0007FF800
7FF0007FF000
7FF000FFE000
7FF001FFE000
3FF001FFC000
3FF003FF8000
3FF007FF8000
3FF807FF0000
3FF80FFE0000
1FF80FFE0000
1FF81FFC0000
1FF83FF80000
1FFC3FF80000
0FFC7FF00000
0FFCFFE00000
0FFCFFC00000
0FFFFFC00000
07FFFF800000
07FFFF000000
07FFFE000000
07FFFE000000
03FFFC000000
03FFF8000000
03FFF0000000
01FFE0000000
01FFE0000000
01FFC0000000
01FFC0000000
01FFC0000000
03FF80000000
03FF80000000
03FF80000000
03FF80000000
07FF00000000
07FF00000000
07FF00000000
07FF00000000
0FFE00000000
0FFE00000000
0FFE00000000
0FFE00000000
0FFC00000000
1FFC00000000
1FFC00000000
1FFC00000000
1FFC00000000
3FF800000000
ENDCHAR
STARTCHAR 005A
ENCODING 90
SWIDTH 495 0
DWIDTH 44 0
BBX 48 55 3 0
BITMAP
0007FFFFFFFF
0007FFFFFFFE
0007FFFFFFFE
0007FFFFFFFE
000FFFFFFFFE
000FFFFFFFFC
000FFFFFFFFC
000FFFFFFFFC
001FFFFFFFFC
000000007FF8
00000000FFF0
00000001FFE0
00000003FFC0
00000007FF80
0000000FFF80
0000000FFF00
0000001FFE00
0000003FFC00
0000007FF800
000000FFF000
000001FFE000
000003FFE000
000003FFC000
000007FF8000
00000FFF0000
00001FFE0000
00003FFC0000
00007FF80000
0000FFF00000
0000FFF00000
0001FFE00000
0003FFC00000
0007FF800000
000FFF000000
001FFE000000
001FFE000000
003FFC000000
007FF8000000
00FFF0000000
00FFE0000000
01FFC0000000
03FFC0000000
07FF80000000
0FFF00000000
0FFE00000000
1FFC00000000
3FFFFFFFFC00
7FFFFFFFF800
7FFFFFFFF800
7FFFFFFFF800
7FFFFFFFF800
FFFFFFFFF000
FFFFFFFFF000
FFFFFFFFF000
FFFFFFFFF000
ENDCHAR
STARTCHAR 005B
ENCODING 91
SWIDTH 495 0
DWIDTH 44 0
BBX 43 77 8 -15
BITMAP
00003FFFFFE0
00003FFFFFE0
00003FFFFFC0
00003FFFFFC0
00007FFFFFC0
00007FFFFFC0
00007FFFFFC0
00007FFFFF80
0000FFE00000
0000FFE00000
0000FFC00000
0000FFC00000
0001FFC00000
0001FFC00000
0001FF800000
0001FF800000
0003FF800000
0003FF800000
0003FF000000
0003FF000000
0007FF000000
0007FF000000
0007FE000000
0007FE000000
000FFE000000
000FFE000000
000FFE000000
000FFC000000
001FFC000000
001FFC000000
001FFC000000
001FF8000000
001FF8000000
003FF8000000
003FF8000000
003FF0000000
003FF0000000
007FF0000000
007FF0000000
007FE0000000
007FE0000000
00FFE0000000
00FFE0000000
00FFC0000000
00FFC0000000
01FFC0000000
01FFC0000000
01FF80000000
01FF80000000
03FF80000000
03FF80000000
03FF00000000
03FF00000000
07FF00000000
07FF00000000
07FF00000000
07FE00000000
07FE00000000
0FFE00000000
0FFE00000000
0FFC00000000
0FFC00000000
1FFC00000000
1FFC00000000
1FF800000000
1FF800000000
3FF800000000
3FF800000000
3FFFFFE00000
3FFFFFC00000
7FFFFFC00000
7FFFFFC00000
7FFFFFC00000
7FFFFF800000
FFFFFF800000
FFFFFF800000
FFFFFF800000
ENDCHAR
STARTCHAR 005C
ENCODING 92
SWIDTH 495 0
DWIDTH 44 0
BBX 18 77 18 -15
BITMAP
FFE000
FFE000
7FE000
7FE000
7FE000
7FE000
7FE000
7FE000
7FF000
7FF000
7FF000
7FF000
7FF000
3FF000
3FF000
3FF000
3FF000
3FF000
3FF000
3FF800
3FF800
3FF800
3FF800
3FF800
1FF800
1FF800
1FF800
1FF800
1FF800
1FF800
1FFC00
1FFC00
1FFC00
1FFC00
1FFC00
0FFC00
0FFC00
0FFC00
0FFC00
0FFC00
0FFE00
0FFE00
0FFE00
0FFE00
0FFE00
0FFE00
07FE00
07FE00
07FE00
07FE00
07FE00
07FF00
07FF00
07FF00
07FF00
07FF00
07FF00
03FF00
03FF00
03FF00
03FF00
03FF00
03FF80
03FF80
03FF80
03FF80
03FF80
03FF80
01FF80
01FF80
01FF80
01FF80
01FFC0
01FFC0
01FFC0
01FFC0
01FFC0
ENDCHAR
STARTCHAR 005D
ENCODING 93
SWIDTH 495 0
DWIDTH 44 0
BBX 43 77 1 -15
BITMAP
00001FFFFFE0
00003FFFFFE0
00003FFFFFE0
00003FFFFFE0
00003FFFFFC0
00007FFFFFC0
00007FFFFFC0
00007FFFFFC0
00000001FF80
00000001FF80
00000003FF80
00000003FF80
00000003FF80
00000003FF00
00000003FF00
00000007FF00
00000007FF00
00000007FE00
00000007FE00
0000000FFE00
0000000FFE00
0000000FFC00
0000000FFC00
0000001FFC00
0000001FFC00
0000001FF800
0000001FF800
0000003FF800
0000003FF800
0000003FF000
0000003FF000
0000007FF000
0000007FF000
0000007FE000
0000007FE000
000000FFE000
000000FFE000
000000FFC000
000000FFC000
000001FFC000
000001FFC000
000001FFC000
000001FF8000
000001FF8000
000003FF8000
000003FF8000
000003FF0000
000003FF0000
000007FF0000
000007FF0000
000007FE0000
000007FE0000
00000FFE0000
00000FFE0000
00000FFC0000
00000FFC0000
00001FFC0000
00001FFC0000
00001FF80000
00001FF80000
00003FF80000
00003FF80000
00003FF00000
00003FF00000
00007FF00000
00007FF00000
00007FF00000
00007FE00000
3FFFFFE00000
3FFFFFE00000
3FFFFFE00000
3FFFFFC00000
7FFFFFC00000
7FFFFFC00000
7FFFFFC00000
7FFFFF800000
FFFFFF800000
ENDCHAR
STARTCHAR 005E
ENCODING 94
SWIDTH 495 0
DWIDTH 44 0
BBX 41 32 7 23
BITMAP
000003FF0000
000007FF0000
00000FFF0000
00001FFF8000
00003FFF8000
00003FFF8000
00007FFFC000
0000FFFFC000
0001FFFFC000
0003FFFFE000
0007FFFFE000
0007FFFFE000
000FFFFFF000
001FFE7FF000
003FFC7FF000
007FF87FF800
00FFF83FF800
00FFF03FF800
01FFE03FFC00
03FFC01FFC00
07FF801FFC00
0FFF801FFE00
1FFF000FFE00
1FFE000FFE00
3FFC000FFF00
7FF80007FF00
FFF00007FF00
7FF00007FF80
1FE00003FE00
0FC00003F800
03800003C000
000000010000
ENDCHAR
STARTCHAR 005F
ENCODING 95
SWIDTH 495 0
DWIDTH 44 0
BBX 42 10 -3 -15
BITMAP
3FFFFFFFFFC0
3FFFFFFFFFC0
3FFFFFFFFF80
7FFFFFFFFF80
7FFFFFFFFF80
7FFFFFFFFF80
7FFFFFFFFF80
FFFFFFFFFF00
FFFFFFFFFF00
FFFFFFFFFF00
ENDCHAR
STARTCHAR 0060
ENCODING 96
SWIDTH 495 0
DWIDTH 44 0
BBX 19 16 21 45
BITMAP
060000
0F0000
0FC000
1FE000
3FF000
3FFC00
7FFE00
FFFF00
7FFFC0
1FFFE0
07FFE0
01FFE0
007FC0
001F80
000780
000100
ENDCHAR
STARTCHAR 0061
ENCODING 97
SWIDTH 495 0
DWIDTH 44 0
BBX 41 44 6 -1
BITMAP
000001F80000
00003FFFE000
0001FFFFFE00
0007FFFFFF80
000FFFFFFF00
003FFFFFFF00
007FFFFFFF00
00FFFFFFFF00
01FFFFFFFE00
03FFFFFFFE00
07FFE00FFE00
0FFFC00FFE00
0FFF000FFC00
1FFE001FFC00
1FFC001FFC00
3FFC001FFC00
3FF8001FF800
7FF8003FF800
7FF0003FF800
7FF0003FF800
FFE0003FF000
FFE0007FF000
FFE0007FF000
FFE0007FF000
FFE0007FF000
FFE000FFE000
FFE000FFE000
FFE000FFE000
FFE000FFE000
FFE000FFE000
FFE001FFC000
FFE001FFC000
FFF003FFC000
FFF807FFC000
FFFE3FFFE000
7FFFFFFFE000
7FFFFFFFE000
3FFFFFFFE000
3FFFFFFFE000
1FFFFFFFE000
0FFFFF7FF000
07FFFC3FF000
03FFF03FC000
007F80100000
ENDCHAR
STARTCHAR 0062
ENCODING 98
SWIDTH 495 0
DWIDTH 44 0
BBX 41 63 4 -1
BITMAP
000000800000
00003F800000
0007FF000000
0007FF000000
0007FF000000
0007FF000000
0007FF000000
000FFE000000
000FFE000000
000FFE000000
000FFE000000
001FFC000000
001FFC000000
001FFC000000
001FFC000000
003FF8000000
003FF8000000
003FF8000000
003FF8000000
007FF01C0000
007FF3FF8000
007FFFFFE000
007FFFFFF000
00FFFFFFF800
00FFFFFFFC00
00FFFFFFFE00
00FFFFFFFE00
01FFFFFFFE00
01FFFFFFFF00
01FFF01FFF00
01FFC00FFF00
01FFC007FF00
03FF8007FF00
03FF8003FF80
03FF8003FF80
03FF8003FF80
07FF0003FF80
07FF0003FF80
07FF0003FF80
07FF0003FF00
0FFE0007FF00
0FFE0007FF00
0FFE0007FF00
0FFE0007FF00
1FFC000FFF00
1FFC000FFE00
1FFC000FFE00
1FFC001FFE00
3FF8003FFC00
3FF8007FFC00
3FF800FFF800
3FF801FFF800
7FF003FFF000
7FF83FFFE000
7FFFFFFFC000
7FFFFFFFC000
7FFFFFFF8000
FFFFFFFE0000
FFFFFFFC0000
FFFFFFF80000
FFFFFFE00000
1FFFFF800000
00FFF8000000
ENDCHAR
STARTCHAR 0063
ENCODING 99
SWIDTH 495 0
DWIDTH 44 0
BBX 40 44 7 -1
BITMAP
000001FF80
00001FFFF8
0000FFFFFF
0003FFFFFF
000FFFFFFE
003FFFFFFE
007FFFFFFC
00FFFFFFFC
01FFFFFFFC
03FFFFFFF8
07FFFC0038
0FFFE00000
0FFFC00000
1FFF000000
1FFE000000
3FFC000000
3FFC000000
7FF8000000
7FF0000000
7FF0000000
FFF0000000
FFE0000000
FFE0000000
FFE0000000
FFE0000000
FFE0000000
FFE0000000
FFE0000000
FFE0000000
FFE0000000
FFF0000000
FFF0000000
7FF8000000
7FFE000780
7FFFFFFF80
3FFFFFFF80
3FFFFFFF80
1FFFFFFF80
0FFFFFFF80
07FFFFFF80
03FFFFFF80
01FFFFFF80
003FFFFC00
0007FFC000
ENDCHAR
STARTCHAR 0064
ENCODING 100
SWIDTH 495 0
DWIDTH 44 0
BBX 46 63 6 -1
BITMAP
000000000004
0000000001FC
000000003FF8
000000003FF8
000000003FF8
000000003FF8
000000007FF0
000000007FF0
000000007FF0
000000007FF0
000000007FE0
00000000FFE0
00000000FFE0
00000000FFE0
00000000FFE0
00000001FFC0
00000001FFC0
00000001FFC0
00000001FFC0
00000003FF80
00001FFFFF80
0000FFFFFF80
0003FFFFFF80
000FFFFFFF00
003FFFFFFF00
007FFFFFFF00
00FFFFFFFF00
01FFFFFFFE00
03FFFFFFFE00
07FFE00FFE00
0FFFC00FFE00
0FFF000FFC00
1FFE001FFC00
1FFC001FFC00
3FFC001FFC00
3FF8001FF800
7FF8003FF800
7FF0003FF800
7FF0003FF800
FFE0003FF000
FFE0007FF000
FFE0007FF000
FFE0007FF000
FFE0007FF000
FFE000FFE000
FFE000FFE000
FFE000FFE000
FFE000FFE000
FFE000FFE000
FFE001FFC000
FFE001FFC000
FFF003FFC000
FFF807FFC000
FFFE3FFFE000
7FFFFFFFE000
7FFFFFFFE000
3FFFFFFFE000
3FFFFFFFE000
1FFFFFFFE000
0FFFFF7FF000
07FFFC3FF000
03FFF03FC000
007F80100000
ENDCHAR
STARTCHAR 0065
ENCODING 101
SWIDTH 495 0
DWIDTH 44 0
BBX 39 44 7 -1
BITMAP
000007F800
00007FFF80
0003FFFFE0
000FFFFFF0
001FFFFFF8
007FFFFFFC
00FFFFFFFC
01FFFFFFFE
03FFFFFFFE
07FFF01FFE
07FF800FFE
0FFF0007FE
1FFE0007FE
1FFC0007FE
3FF80007FE
3FF0000FFE
7FF0000FFE
7FE0003FFC
7FE000FFFC
7FE007FFF8
FFE7FFFFF0
FFFFFFFFE0
FFFFFFFFC0
FFFFFFFF80
FFFFFFFE00
FFFFFFF800
FFFFFF8000
FFFFF00000
FFC0000000
FFE0000000
FFE0000000
FFE0000000
FFF0000000
7FF8000100
7FFF001F80
7FFFFFFF80
3FFFFFFF80
1FFFFFFF80
1FFFFFFF80
0FFFFFFF80
03FFFFFF80
01FFFFFF00
007FFFFC00
0007FFC000
ENDCHAR
STARTCHAR 0066
ENCODING 102
SWIDTH 495 0
DWIDTH 44 0
BBX 55 77 -3 -15
BITMAP
00000000000C00
0000000003FFF8
000000001FFFFE
000000007FFFFE
00000000FFFFFE
00000001FFFFFC
00000003FFFFFC
00000007FFFFF8
00000007FFFFF8
0000000FFFFFF0
0000001FFF0030
0000001FFE0000
0000001FFC0000
0000003FF80000
0000003FF80000
0000003FF80000
0000007FF00000
0000007FF00000
0000007FF00000
0000007FF00000
0000FFFFFFFFE0
0000FFFFFFFFC0
0001FFFFFFFFC0
0001FFFFFFFFC0
0001FFFFFFFFC0
0001FFFFFFFF80
0003FFFFFFFF80
0003FFFFFFFF80
0003FFFFFFFF80
000001FFC00000
000003FFC00000
000003FF800000
000003FF800000
000003FF800000
000003FF800000
000007FF800000
000007FF000000
000007FF000000
000007FF000000
000007FF000000
00000FFF000000
00000FFE000000
00000FFE000000
00000FFE000000
00000FFE000000
00001FFE000000
00001FFC000000
00001FFC000000
00001FFC000000
00001FFC000000
00003FFC000000
00003FF8000000
00003FF8000000
00003FF8000000
00003FF8000000
00007FF8000000
00007FF0000000
00007FF0000000
00007FF0000000
00007FF0000000
0000FFF0000000
0000FFE0000000
0000FFE0000000
0001FFE0000000
0001FFC0000000
0007FFC0000000
180FFFC0000000
3FFFFF80000000
3FFFFF00000000
3FFFFF00000000
7FFFFE00000000
7FFFFC00000000
7FFFF800000000
FFFFF000000000
FFFFE000000000
7FFF8000000000
0FF80000000000
ENDCHAR
STARTCHAR 0067
ENCODING 103
SWIDTH 495 0
DWIDTH 44 0
BBX 47 58 0 -15
BITMAP
00000001F800
0000007FFFE0
000003FFFFFC
00000FFFFFFE
00003FFFFFFE
00007FFFFFFE
0001FFFFFFFE
0003FFFFFFFC
0007FFFFFFFC
000FFFF03FFC
001FFF801FFC
001FFF003FF8
003FFC003FF8
003FF8003FF8
007FF8003FF8
007FF0007FF0
00FFE0007FF0
00FFE0007FF0
00FFE0007FF0
01FFC000FFE0
01FFC000FFE0
01FFC000FFE0
01FFC000FFE0
01FF8000FFC0
01FF8001FFC0
01FF8001FFC0
01FFC001FFC0
01FFC001FF80
01FFC003FF80
01FFE003FF80
01FFF00FFF80
00FFFFFFFF80
00FFFFFFFF00
00FFFFFFFF00
007FFFFFFF00
007FFFFFFF00
003FFFFFFE00
001FFFFFFE00
0007FFEFFE00
0001FF0FFE00
0000001FFC00
0000001FFC00
0000001FFC00
0000003FF800
0000003FF800
0000007FF800
0C0000FFF000
1F0003FFF000
1FFC7FFFE000
3FFFFFFFC000
3FFFFFFFC000
7FFFFFFF8000
7FFFFFFF0000
7FFFFFFE0000
FFFFFFF80000
3FFFFFE00000
07FFFF800000
007FF8000000
ENDCHAR
STARTCHAR 0068
ENCODING 104
SWIDTH 495 0
DWIDTH 44 0
BBX 40 62 4 0
BITMAP
000000C000
00003F8000
0003FF8000
0003FF8000
0003FF8000
0007FF0000
0007FF0000
0007FF0000
0007FF0000
000FFE0000
000FFE0000
000FFE0000
000FFE0000
001FFC0000
001FFC0000
001FFC0000
001FFC0000
001FFC0000
003FF80000
003FF87C00
003FFFFFC0
003FFFFFF0
007FFFFFF8
007FFFFFFC
007FFFFFFC
007FFFFFFE
00FFFFFFFE
00FFFFFFFF
00FFFFFFFF
00FFE01FFF
01FFC00FFF
01FFC007FF
01FFC007FF
01FFC007FF
03FFC007FF
03FF8007FF
03FF8007FF
03FF800FFF
03FF800FFE
07FF000FFE
07FF000FFE
07FF000FFE
07FF001FFC
0FFE001FFC
0FFE001FFC
0FFE001FFC
0FFE003FF8
1FFC003FF8
1FFC003FF8
1FFC003FF8
1FFC007FF0
3FF8007FF0
3FF8007FF0
3FF8007FF0
3FF800FFE0
7FF000FFE0
7FF000FFE0
7FF000FFE0
7FF000FFC0
FFE001FFC0
FFE001FFC0
FFE001FFC0
ENDCHAR
STARTCHAR 0069
ENCODING 105
SWIDTH 495 0
DWIDTH 44 0
BBX 31 62 10 -1
BITMAP
00001C00
0000FF80
0001FFC0
0003FFC0
0003FFE0
0003FFE0
0007FFE0
0007FFE0
0007FFE0
0007FFC0
0003FFC0
0003FF80
0001FF00
0000FC00
00000000
00000000
00000000
00000000
00000000
3FFFFF80
3FFFFF00
3FFFFF00
7FFFFF00
7FFFFF00
7FFFFE00
7FFFFE00
FFFFFE00
FFFFFE00
001FFC00
001FFC00
001FFC00
001FFC00
003FF800
003FF800
003FF800
003FF800
007FF800
007FF000
007FF000
007FF000
007FF000
00FFE000
00FFE000
00FFE000
00FFE000
01FFC000
01FFC000
01FFC000
01FFC000
01FFC000
01FFE000
01FFE006
01FFFFFE
01FFFFFE
01FFFFFE
00FFFFFE
00FFFFFE
007FFFFE
007FFFFE
001FFFFE
000FFFF8
0001FF80
ENDCHAR
STARTCHAR 006A
ENCODING 106
SWIDTH 495 0
DWIDTH 44 0
BBX 43 76 0 -15
BITMAP
000000003C00
00000000FF00
00000001FFC0
00000003FFC0
00000003FFC0
00000007FFE0
00000007FFE0
00000007FFE0
00000007FFC0
00000007FFC0
00000007FFC0
00000003FF80
00000003FF00
00000000FC00
000000000000
000000000000
000000000000
000000000000
000000000000
0003FFFFFFC0
0003FFFFFFC0
0003FFFFFFC0
0007FFFFFF80
0007FFFFFF80
0007FFFFFF80
0007FFFFFF80
0007FFFFFF00
000FFFFFFF00
00000007FF00
00000007FF00
0000000FFE00
0000000FFE00
0000000FFE00
0000000FFE00
0000001FFC00
0000001FFC00
0000001FFC00
0000001FFC00
0000001FFC00
0000003FF800
0000003FF800
0000003FF800
0000003FF800
0000007FF000
0000007FF000
0000007FF000
0000007FF000
000000FFE000
000000FFE000
000000FFE000
000000FFE000
000001FFC000
000001FFC000
000001FFC000
000001FFC000
000003FF8000
000003FF8000
000003FF8000
000003FF8000
000007FF0000
000007FF0000
000007FF0000
00000FFF0000
00000FFE0000
1C001FFE0000
1F003FFC0000
3FFFFFFC0000
3FFFFFF80000
7FFFFFF80000
7FFFFFF00000
FFFFFFF00000
FFFFFFE00000
FFFFFFC00000
3FFFFF000000
0FFFFE000000
01FFF0000000
ENDCHAR
STARTCHAR 006B
ENCODING 107
SWIDTH 495 0
DWIDTH 44 0
BBX 45 62 5 0
BITMAP
000000C00000
00003F800000
0003FF800000
0003FF800000
0003FF800000
0007FF000000
0007FF000000
0007FF000000
0007FF000000
000FFE000000
000FFE000000
000FFE000000
000FFE000000
001FFC000000
001FFC000000
001FFC000000
001FFC000000
001FF8000000
003FF8000000
003FF8000000
003FF8007FF8
003FF800FFF0
007FF001FFE0
007FF003FFE0
007FF007FFC0
007FF00FFF80
00FFE01FFF00
00FFE03FFE00
00FFE07FFC00
00FFE0FFF800
01FFC1FFF000
01FFC3FFE000
01FFC7FFC000
01FFCFFF0000
03FF9FFE0000
03FFBFFC0000
03FFFFF80000
03FFFFF00000
07FFFFE00000
07FFFFC00000
07FFFFE00000
07FFFFE00000
0FFEFFF00000
0FFE7FF00000
0FFE3FF80000
0FFE3FFC0000
0FFE1FFC0000
1FFC1FFE0000
1FFC0FFE0000
1FFC0FFF0000
1FFC07FF0000
3FF807FF8000
3FF803FF8000
3FF803FFC000
3FF801FFC000
7FF001FFE000
7FF001FFE000
7FF000FFF000
7FF000FFF000
FFE0007FF000
FFE0007FF800
FFE0007FF800
ENDCHAR
STARTCHAR 006C
ENCODING 108
SWIDTH 495 0
DWIDTH 44 0
BBX 27 62 13 -1
BITMAP
3FFFFF00
3FFFFF00
7FFFFF00
7FFFFF00
7FFFFE00
7FFFFE00
FFFFFE00
FFFFFE00
FFFFFC00
001FFC00
001FFC00
001FFC00
001FFC00
003FF800
003FF800
003FF800
003FF800
007FF000
007FF000
007FF000
007FF000
00FFE000
00FFE000
00FFE000
00FFE000
01FFC000
01FFC000
01FFC000
01FFC000
01FFC000
03FF8000
03FF8000
03FF8000
03FF8000
07FF0000
07FF0000
07FF0000
07FF0000
0FFE0000
0FFE0000
0FFE0000
0FFE0000
1FFC0000
1FFC0000
1FFC0000
1FFC0000
1FFC0000
3FF80000
3FF80000
3FFC0000
3FFC0000
3FFE00E0
3FFFFFE0
1FFFFFE0
1FFFFFE0
1FFFFFE0
0FFFFFE0
0FFFFFE0
07FFFFE0
03FFFFE0
01FFFF80
003FF000
ENDCHAR
STARTCHAR 006D
ENCODING 109
SWIDTH 495 0
DWIDTH 44 0
BBX 45 42 2 0
BITMAP
0001FF807F80
001FFFE3FFC0
007FFFF7FFE0
007FFFFFFFF0
007FFFFFFFF0
007FFFFFFFF8
00FFFFFFFFF8
00FFFFFFFFF8
00FF87FE0FF8
00FF83FC0FF8
01FF03FC0FF8
01FF03FC0FF8
01FF07FC0FF8
01FF07FC1FF0
03FE07FC1FF0
03FE07F81FF0
03FE07F81FF0
03FE0FF81FE0
03FC0FF83FE0
07FC0FF03FE0
07FC0FF03FE0
07FC1FF03FE0
07F81FF07FC0
0FF81FF07FC0
0FF81FE07FC0
0FF83FE07FC0
0FF00000FF80
1FF00000FF80
1FF00000FF80
1FF00000FF80
1FF00001FF00
3FE00001FF00
3FE00001FF00
3FE00001FF00
3FE00001FE00
7FC00003FE00
7FC00003FE00
7FC00003FE00
7FC00003FC00
FF800007FC00
FF800007FC00
FF800007FC00
ENDCHAR
STARTCHAR 006E
ENCODING 110
SWIDTH 495 0
DWIDTH 44 0
BBX 40 43 4 0
BITMAP
000001F800
0001FFFFC0
001FFFFFF0
007FFFFFF8
007FFFFFFC
007FFFFFFC
007FFFFFFE
00FFFFFFFE
00FFFFFFFF
00FFFFFFFF
00FFE01FFF
01FFC00FFF
01FFC007FF
01FFC007FF
01FFC007FF
01FFC007FF
03FF8007FF
03FF8007FF
03FF800FFF
03FF800FFE
07FF000FFE
07FF000FFE
07FF000FFE
07FF001FFC
0FFE001FFC
0FFE001FFC
0FFE001FFC
0FFE003FF8
1FFC003FF8
1FFC003FF8
1FFC003FF8
1FFC007FF0
3FF8007FF0
3FF8007FF0
3FF8007FF0
3FF800FFE0
7FF000FFE0
7FF000FFE0
7FF000FFE0
7FF001FFC0
FFE001FFC0
FFE001FFC0
FFE001FFC0
ENDCHAR
STARTCHAR 006F
ENCODING 111
SWIDTH 495 0
DWIDTH 44 0
BBX 39 44 6 -1
BITMAP
00000FF000
0000FFFE00
0003FFFF80
000FFFFFC0
001FFFFFE0
007FFFFFF0
00FFFFFFF8
01FFFFFFF8
01FFFFFFFC
03FFFFFFFC
07FFC07FFC
0FFF803FFE
0FFF001FFE
1FFE001FFE
1FFC000FFE
3FF8000FFE
3FF8000FFE
3FF0000FFE
7FF0000FFE
7FF0000FFE
7FE0000FFE
FFE0000FFC
FFE0001FFC
FFE0001FFC
FFE0001FFC
FFE0001FFC
FFE0003FF8
FFE0003FF8
FFE0007FF8
FFE0007FF0
FFE000FFF0
FFF001FFE0
FFF003FFE0
FFF807FFC0
7FFE3FFF80
7FFFFFFF80
7FFFFFFF00
3FFFFFFE00
3FFFFFFC00
1FFFFFF800
0FFFFFE000
07FFFFC000
01FFFE0000
007FF00000
ENDCHAR
STARTCHAR 0070
ENCODING 112
SWIDTH 495 0
DWIDTH 44 0
BBX 45 58 0 -15
BITMAP
0000007F0000
00003FFFF800
0001FFFFFE00
0007FFFFFF00
0007FFFFFF80
000FFFFFFFC0
000FFFFFFFE0
000FFFFFFFE0
000FFFFFFFF0
001FFF07FFF0
001FFC00FFF0
001FFC007FF8
001FFC003FF8
003FF8003FF8
003FF8003FF8
003FF8003FF8
003FF8003FF8
003FF0003FF8
007FF0003FF8
007FF0003FF8
007FF0003FF8
007FF0003FF0
00FFE0007FF0
00FFE0007FF0
00FFE0007FF0
00FFE000FFF0
01FFC000FFE0
01FFC001FFE0
01FFC001FFE0
01FFC003FFC0
03FF8007FFC0
03FF800FFF80
03FF803FFF80
03FF80FFFF00
07FFFFFFFE00
07FFFFFFFC00
07FFFFFFF800
07FFFFFFF000
0FFFFFFFE000
0FFFFFFFC000
0FFFFFFF0000
0FFFFFFC0000
1FFFFFF00000
1FFFFF000000
1FFC00000000
1FFC00000000
1FFC00000000
3FF800000000
3FF800000000
3FF800000000
3FF800000000
7FF000000000
7FF000000000
7FF000000000
7FF000000000
FFE000000000
FFE000000000
FFE000000000
ENDCHAR
STARTCHAR 0071
ENCODING 113
SWIDTH 495 0
DWIDTH 44 0
BBX 41 58 6 -15
BITMAP
000001FC0000
00001FFFF000
0000FFFFFE00
0003FFFFFF80
000FFFFFFF80
001FFFFFFF80
003FFFFFFF80
00FFFFFFFF00
01FFFFFFFF00
01FFFFFFFF00
03FFF007FF00
07FFC00FFE00
0FFF800FFE00
0FFF000FFE00
1FFE000FFE00
1FFE001FFC00
3FFC001FFC00
3FF8001FFC00
3FF8001FFC00
7FF0003FF800
7FF0003FF800
7FF0003FF800
7FF0003FF800
7FE0003FF800
7FE0007FF000
FFE0007FF000
FFE0007FF000
FFE0007FF000
FFE000FFE000
FFE000FFE000
7FF000FFE000
7FF000FFE000
7FF001FFC000
7FF803FFC000
7FFF1FFFC000
7FFFFFFFC000
3FFFFFFF8000
3FFFFFFF8000
1FFFFFFF8000
0FFFFFFF8000
07FFFFFF0000
03FFFFFF0000
01FFF7FF0000
003F07FF0000
00000FFE0000
00000FFE0000
00000FFE0000
00000FFE0000
00000FFE0000
00001FFC0000
00001FFC0000
00001FFC0000
00001FFC0000
00003FF80000
00003FF80000
00003FF80000
00003FF80000
00007FF00000
ENDCHAR
STARTCHAR 0072
ENCODING 114
SWIDTH 495 0
DWIDTH 44 0
BBX 41 43 6 0
BITMAP
000000380000
00003FFFFE00
0003FFFFFF80
001FFFFFFF80
007FFFFFFF80
007FFFFFFF00
007FFFFFFF00
007FFFFFFE00
00FFFFFFFE00
00FFFFFFFC00
00FFFFFFFC00
00FFF0001C00
01FFC0000000
01FFC0000000
01FFC0000000
01FFC0000000
03FF80000000
03FF80000000
03FF80000000
03FF80000000
03FF00000000
07FF00000000
07FF00000000
07FF00000000
07FE00000000
0FFE00000000
0FFE00000000
0FFE00000000
0FFE00000000
1FFC00000000
1FFC00000000
1FFC00000000
1FFC00000000
3FF800000000
3FF800000000
3FF800000000
3FF800000000
7FF000000000
7FF000000000
7FF000000000
7FF000000000
FFE000000000
FFE000000000
ENDCHAR
STARTCHAR 0073
ENCODING 115
SWIDTH 495 0
DWIDTH 44 0
BBX 40 44 5 -1
BITMAP
000007FE00
0000FFFFF0
0003FFFFFE
0007FFFFFF
001FFFFFFE
003FFFFFFE
003FFFFFFC
007FFFFFFC
00FFFFFFF8
00FFFC07F8
00FFF00070
00FFE00000
01FFC00000
01FFC00000
01FFC00000
01FFE00000
01FFF80000
00FFFE0000
00FFFFC000
00FFFFF000
007FFFFC00
003FFFFE00
001FFFFF00
000FFFFF80
0003FFFFC0
00007FFFC0
00001FFFE0
000003FFE0
000001FFE0
000000FFE0
000000FFE0
000000FFE0
180001FFE0
1F0003FFE0
3FE00FFFC0
3FFFFFFFC0
7FFFFFFF80
7FFFFFFF80
FFFFFFFF00
FFFFFFFE00
FFFFFFFC00
3FFFFFF000
0FFFFFC000
00FFFE0000
ENDCHAR
STARTCHAR 0074
ENCODING 116
SWIDTH 495 0
DWIDTH 44 0
BBX 37 55 10 -1
BITMAP
0000070000
0003FF0000
0007FF0000
000FFE0000
000FFE0000
000FFE0000
000FFE0000
001FFC0000
001FFC0000
001FFC0000
001FFC0000
003FF80000
3FFFFFFFF8
3FFFFFFFF8
7FFFFFFFF8
7FFFFFFFF0
7FFFFFFFF0
7FFFFFFFF0
FFFFFFFFF0
FFFFFFFFE0
FFFFFFFFE0
00FFE00000
00FFE00000
00FFE00000
01FFC00000
01FFC00000
01FFC00000
01FFC00000
03FF800000
03FF800000
03FF800000
03FF800000
07FF000000
07FF000000
07FF000000
07FF000000
07FE000000
0FFE000000
0FFE000000
0FFE000000
0FFE000000
0FFE000000
0FFE000000
0FFE000200
0FFF001E00
0FFFFFFE00
0FFFFFFE00
0FFFFFFE00
07FFFFFC00
07FFFFFC00
03FFFFFC00
01FFFFFC00
00FFFFFC00
003FFFF000
0007FE0000
ENDCHAR
STARTCHAR 0075
ENCODING 117
SWIDTH 495 0
DWIDTH 44 0
BBX 40 43 7 -1
BITMAP
03FF8007FF
03FF800FFE
07FF000FFE
07FF000FFE
07FF000FFE
07FF001FFC
0FFE001FFC
0FFE001FFC
0FFE001FFC
0FFE001FF8
1FFC003FF8
1FFC003FF8
1FFC003FF8
1FFC003FF0
1FFC007FF0
3FF8007FF0
3FF8007FF0
3FF8007FF0
3FF800FFE0
7FF000FFE0
7FF000FFE0
7FF000FFE0
7FF001FFC0
FFE001FFC0
FFE001FFC0
FFE001FFC0
FFE003FF80
FFE003FF80
FFE003FF80
FFE003FF80
FFE007FF80
FFE00FFF80
FFF01FFF80
FFFFFFFF80
FFFFFFFF80
FFFFFFFF80
7FFFFFFF80
7FFFFFFFC0
3FFFFFFFC0
3FFFFCFFC0
1FFFF8FFE0
07FFE07F00
00FF804000
ENDCHAR
STARTCHAR 0076
ENCODING 118
SWIDTH 495 0
DWIDTH 44 0
BBX 40 42 9 0
BITMAP
FFF0000FFF
FFF0000FFF
7FF0000FFE
7FF0001FFE
7FF0001FFE
7FF0001FFC
7FF0003FFC
7FF0003FF8
7FF0007FF8
7FF0007FF0
7FF0007FF0
7FF000FFE0
7FF000FFE0
7FF001FFC0
3FF801FFC0
3FF803FF80
3FF803FF80
3FF807FF00
3FF807FF00
3FF80FFE00
3FF80FFE00
3FF81FFC00
1FF81FFC00
1FF83FF800
1FF87FF000
1FFC7FF000
1FFCFFE000
1FFCFFE000
0FFDFFC000
0FFFFF8000
0FFFFF8000
0FFFFF0000
0FFFFE0000
07FFFE0000
07FFFC0000
07FFF80000
07FFF80000
07FFF00000
03FFE00000
03FFC00000
03FFC00000
03FF800000
ENDCHAR
STARTCHAR 0077
ENCODING 119
SWIDTH 495 0
DWIDTH 44 0
BBX 45 42 6 0
BITMAP
1FF800000FF8
1FF000001FF8
1FF000001FF8
1FF000001FF0
3FF000001FF0
3FF000003FF0
3FE000003FE0
3FE000003FE0
3FE000003FE0
3FE03FC07FC0
3FE03FC07FC0
3FC07FC07FC0
7FC07FC07F80
7FC07FC0FF80
7FC0FFC0FF80
7FC0FFC0FF00
7FC1FFC1FF00
7F81FFC1FF00
7F83FFC1FE00
7F83FFC1FE00
7F87FFC3FE00
7F87FFE3FC00
FF8FEFE3FC00
FF0FEFE7F800
FF1FCFE7F800
FF1FCFE7F800
FF3F8FEFF000
FF7F8FEFF000
FF7F0FEFF000
FFFF0FFFE000
FEFE0FFFE000
FFFE0FFFC000
FFFC07FFC000
FFF807FFC000
FFF807FF8000
FFF007FF8000
FFF007FF0000
FFE007FF0000
FFC007FE0000
FFC007FE0000
FF8007FC0000
FF0007FC0000
ENDCHAR
STARTCHAR 0078
ENCODING 120
SWIDTH 495 0
DWIDTH 44 0
BBX 48 42 1 0
BITMAP
007FF0000FFF
007FF8001FFE
003FF8001FFC
003FFC003FFC
001FFC007FF8
001FFE007FF0
000FFE00FFE0
000FFF01FFE0
0007FF03FFC0
0007FF03FF80
0003FF87FF00
0003FF8FFE00
0001FFDFFE00
0001FFFFFC00
0000FFFFF800
0000FFFFF000
00007FFFE000
00007FFFC000
00003FFF8000
00003FFF8000
00001FFF0000
00003FFF0000
00007FFF0000
0000FFFF8000
0001FFFF8000
0001FFFFC000
0003FFFFC000
0007FFFFE000
000FFFFFE000
001FFEFFF000
003FFC7FF000
007FF87FF800
00FFF07FF800
01FFE03FF800
01FFC03FFC00
03FFC01FFC00
07FF801FFE00
0FFF000FFE00
1FFE000FFE00
3FFC000FFF00
7FF80007FF00
FFF00007FF80
ENDCHAR
STARTCHAR 0079
ENCODING 121
SWIDTH 495 0
DWIDTH 44 0
BBX 53 57 -4 -15
BITMAP
0003FF80007FF8
0003FF80007FF0
0003FF8000FFF0
0003FFC000FFF0
0003FFC000FFE0
0003FFC001FFE0
0003FFC001FFC0
0001FFC001FFC0
0001FFC003FFC0
0001FFC003FF80
0001FFC003FF80
0001FFC007FF00
0001FFC007FF00
0001FFC007FE00
0001FFC00FFE00
0001FFC00FFE00
0001FFC01FFC00
0000FFE01FFC00
0000FFE03FF800
0000FFE03FF800
0000FFE07FF000
0000FFE07FF000
0000FFE0FFE000
00007FE0FFE000
00007FE1FFC000
00007FF1FFC000
00007FF3FF8000
00007FF3FF8000
00007FF7FF0000
00003FFFFE0000
00003FFFFE0000
00003FFFFC0000
00003FFFFC0000
00003FFFF80000
00001FFFF00000
00001FFFF00000
00001FFFE00000
00001FFFC00000
00000FFFC00000
00000FFF800000
00000FFF000000
00000FFE000000
00001FFE000000
00003FFC000000
00007FF8000000
0000FFF0000000
0003FFF0000000
1FBFFFE0000000
1FFFFFC0000000
3FFFFF80000000
3FFFFF00000000
3FFFFE00000000
7FFFF800000000
7FFFF000000000
FFFFC000000000
7FFF0000000000
0FF80000000000
ENDCHAR
STARTCHAR 007A
ENCODING 122
SWIDTH 495 0
DWIDTH 44 0
BBX 43 42 4 0
BITMAP
001FFFFFFFE0
001FFFFFFFE0
003FFFFFFFE0
003FFFFFFFC0
003FFFFFFFC0
003FFFFFFFC0
007FFFFFFFC0
007FFFFFFF80
007FFFFFFF80
0000001FFF00
0000003FFE00
000000FFFC00
000001FFF800
000003FFF000
000007FFC000
00000FFF8000
00001FFF0000
00003FFE0000
00007FFC0000
0000FFF80000
0001FFF00000
0003FFE00000
0007FFC00000
000FFF800000
000FFF000000
001FFE000000
003FFC000000
007FF8000000
00FFF0000000
01FFE0000000
03FFC0000000
07FF80000000
0FFF00000000
1FFFFFFFF000
3FFFFFFFF000
3FFFFFFFE000
3FFFFFFFE000
3FFFFFFFE000
7FFFFFFFE000
7FFFFFFFC000
7FFFFFFFC000
FFFFFFFFC000
ENDCHAR
STARTCHAR 007B
ENCODING 123
SWIDTH 495 0
DWIDTH 44 0
BBX 42 77 9 -15
BITMAP
0000001FFFC0
000000FFFFC0
000001FFFFC0
000007FFFFC0
00000FFFFF80
00000FFFFF80
00001FFFFF80
00001FFFFF80
00003FFF8000
00003FF80000
00003FF00000
00007FF00000
00007FE00000
00007FE00000
0000FFE00000
0000FFC00000
0000FFC00000
0000FFC00000
0000FFC00000
0001FF800000
0001FF800000
0001FF800000
0001FF800000
0003FF000000
0003FF000000
0003FF000000
0003FF000000
0007FE000000
0007FE000000
0007FE000000
000FFC000000
001FFC000000
003FF8000000
007FF8000000
3FFFF0000000
7FFFE0000000
7FFFC0000000
7FFF00000000
7FF800000000
7FFE00000000
FFFF00000000
FFFF80000000
FFFF80000000
01FFC0000000
00FFC0000000
00FFC0000000
00FFC0000000
00FFC0000000
00FFC0000000
00FFC0000000
00FFC0000000
00FFC0000000
01FF80000000
01FF80000000
01FF80000000
01FF80000000
03FF00000000
03FF00000000
03FF00000000
03FF00000000
03FF00000000
07FE00000000
07FE00000000
07FE00000000
07FE00000000
07FE00000000
07FE00000000
07FF00000000
07FFFFE00000
07FFFFE00000
07FFFFC00000
03FFFFC00000
03FFFFC00000
01FFFFC00000
00FFFF800000
003FFF800000
0003FF800000
ENDCHAR
STARTCHAR 007C
ENCODING 124
SWIDTH 495 0
DWIDTH 44 0
BBX 29 77 11 -15
BITMAP
00003FF8
00003FF8
00003FF8
00003FF8
00007FF0
00007FF0
00007FF0
00007FF0
00007FE0
0000FFE0
0000FFE0
0000FFE0
0000FFE0
0001FFC0
0001FFC0
0001FFC0
0001FFC0
0003FF80
0003FF80
0003FF80
0003FF80
0007FF00
0007FF00
0007FF00
0007FF00
000FFE00
000FFE00
000FFE00
000FFE00
001FFC00
001FFC00
001FFC00
001FFC00
003FF800
003FF800
003FF800
003FF800
003FF800
007FF000
007FF000
007FF000
007FF000
00FFE000
00FFE000
00FFE000
00FFE000
01FFC000
01FFC000
01FFC000
01FFC000
03FF8000
03FF8000
03FF8000
03FF8000
07FF0000
07FF0000
07FF0000
07FF0000
0FFF0000
0FFE0000
0FFE0000
0FFE0000
0FFE0000
1FFC0000
1FFC0000
1FFC0000
1FFC0000
3FF80000
3FF80000
3FF80000
3FF80000
7FF00000
7FF00000
7FF00000
7FF00000
FFE00000
FFE00000
ENDCHAR
STARTCHAR 007D
ENCODING 125
SWIDTH 495 0
DWIDTH 44 0
BBX 43 77 0 -15
BITMAP
00003FFE0000
00007FFFC000
00007FFFE000
00007FFFF000
00007FFFF800
0000FFFFF800
0000FFFFFC00
0000FFFFFC00
000000FFFC00
0000001FFC00
0000000FFC00
0000000FFC00
0000000FFC00
0000000FFC00
0000001FFC00
0000001FF800
0000001FF800
0000001FF800
0000001FF800
0000003FF000
0000003FF000
0000003FF000
0000003FF000
0000007FE000
0000007FE000
0000007FE000
0000007FE000
0000007FE000
0000007FC000
0000007FC000
0000007FC000
0000007FE000
0000007FE000
0000007FF000
0000003FFFE0
0000003FFFE0
0000001FFFC0
0000000FFFC0
00000007FFC0
0000003FFFC0
000000FFFF80
000001FFFF80
000003FFFF80
000003FF8000
000007FF0000
000007FE0000
00000FFC0000
00000FFC0000
00001FF80000
00001FF80000
00001FF80000
00001FF80000
00003FF00000
00003FF00000
00003FF00000
00003FF00000
00007FF00000
00007FE00000
00007FE00000
00007FE00000
00007FE00000
0000FFC00000
0000FFC00000
0000FFC00000
0001FFC00000
0001FF800000
0003FF800000
0007FF800000
3FFFFF000000
3FFFFF000000
3FFFFE000000
3FFFFE000000
7FFFFC000000
7FFFF8000000
7FFFE0000000
7FFF80000000
FFF800000000
ENDCHAR
STARTCHAR 007E
ENCODING 126
SWIDTH 495 0
DWIDTH 44 0
BBX 42 17 5 15
BITMAP
000700000000
007FE0003C00
01FFF8003F80
03FFFE007FC0
07FFFF00FF80
0FFFFFC1FF80
1FFFFFFFFF80
1FFFFFFFFF00
3FFFFFFFFE00
7FFFFFFFFE00
7FFFFFFFFC00
FFC0FFFFF800
FF807FFFF800
FF001FFFE000
FF000FFFC000
0E0003FF0000
000000780000
ENDCHAR
STARTCHAR 00A0
ENCODING 160
SWIDTH 495 0
DWIDTH 44 0
BBX 0 0 0 0
BITMAP
ENDCHAR
STARTCHAR 00A1
ENCODING 161
SWIDTH 495 0
DWIDTH 44 0
BBX 25 56 11 -14
BITMAP
00007000
0003FE00
0007FF00
000FFF80
000FFF80
001FFF80
001FFF80
001FFF80
001FFF80
001FFF80
001FFF00
001FFF00
000FFE00
0007FC00
0003F000
00000000
00000000
00000000
00000000
00000000
00000000
003FF000
003FE000
003FE000
007FE000
007FE000
00FFE000
00FFE000
00FFE000
01FFE000
01FFE000
01FFC000
03FFC000
03FFC000
03FFC000
07FFC000
07FFC000
07FF8000
07FF8000
0FFF8000
0FFF8000
0FFF0000
0FFF0000
1FFF0000
1FFF0000
1FFF0000
1FFE0000
3FFE0000
3FFE0000
3FFE0000
3FFC0000
7FFC0000
7FFC0000
7FFC0000
7FF80000
FFF80000
ENDCHAR
STARTCHAR 00A2
ENCODING 162
SWIDTH 495 0
DWIDTH 44 0
BBX 39 64 8 -9
BITMAP
000000FFE0
000000FFE0
000001FFC0
000001FFC0
000001FFC0
000001FFC0
000003FF80
000003FF80
000003FF80
000003FF80
000003FF80
000007FF00
0000FFFFF0
0003FFFFFE
000FFFFFFE
003FFFFFFE
007FFFFFFE
00FFFFFFFC
01FFFFFFFC
03FFFFFFF8
07FFFFFFF8
0FFFF00070
1FFFC00000
1FFF000000
3FFE000000
3FFC000000
7FF8000000
7FF8000000
7FF0000000
FFF0000000
FFE0000000
FFE0000000
FFE0000000
FFE0000000
FFE0000000
FFE0000000
FFE0000000
FFE0000000
FFF0000000
FFF0000000
FFF8000000
7FFC000100
7FFF801F00
7FFFFFFF00
3FFFFFFF80
3FFFFFFF80
1FFFFFFF80
0FFFFFFF80
07FFFFFF80
03FFFFFF80
00FFFFFE00
001FFFF000
001FFC0000
001FFC0000
001FFC0000
001FFC0000
003FF80000
003FF80000
003FF80000
003FF80000
003FF80000
007FF00000
007FF00000
007FF00000
ENDCHAR
STARTCHAR 00A3
ENCODING 163
SWIDTH 495 0
DWIDTH 44 0
BBX 44 56 7 0
BITMAP
0000001FFE00
000000FFFFC0
000003FFFFF0
00000FFFFFF0
00001FFFFFF0
00003FFFFFE0
00007FFFFFE0
0000FFFFFFC0
0001FFFFFFC0
0001FFF80F80
0003FFE00100
0003FFC00000
0007FF800000
0007FF000000
000FFF000000
000FFE000000
000FFE000000
000FFC000000
001FFC000000
001FFC000000
001FFC000000
001FF8000000
003FF8000000
003FF8000000
003FF8000000
3FFFFFFFC000
3FFFFFFFC000
3FFFFFFFC000
3FFFFFFFC000
3FFFFFFFC000
7FFFFFFF8000
7FFFFFFF8000
7FFFFFFF8000
7FFFFFFF8000
01FFC0000000
01FFC0000000
01FFC0000000
03FF80000000
03FF80000000
03FF80000000
03FF00000000
07FF00000000
07FF00000000
07FE00000000
0FFE00000000
0FFE00000000
0FFC00000000
1FFFFFFFF000
1FFFFFFFF000
3FFFFFFFE000
3FFFFFFFE000
3FFFFFFFE000
7FFFFFFFE000
7FFFFFFFC000
FFFFFFFFC000
FFFFFFFFC000
ENDCHAR
STARTCHAR 00A4
ENCODING 164
SWIDTH 495 0
DWIDTH 44 0
BBX 41 40 7 8
BITMAP
000000004000
03000000E000
07800001F000
0FC00003F800
1FE00007FC00
3FF3FFCFFE00
7FFFFFFFFF00
FFFFFFFFFF80
FFFFFFFFFF00
7FFFFFFFFE00
3FFFFFFFFC00
0FFFFFFFF800
07FFFFFFF000
07FFE7FFE000
07FF00FFF000
0FFE007FF000
0FFC003FF000
0FFC003FF000
0FFC001FF000
0FF8001FF800
0FF8001FF800
0FF8001FF800
0FFC001FF000
0FFC003FF000
0FFC003FF000
0FFE007FF000
07FF00FFE000
07FFFFFFE000
0FFFFFFFF000
1FFFFFFFF800
3FFFFFFFFC00
7FFFFFFFFE00
FFFFFFFFFF00
FFFFFFFFFF00
7FFFFFFFFE00
3FF1FF8FFC00
1FE00003F800
0FC00001F000
07000000E000
020000004000
ENDCHAR
STARTCHAR 00A5
ENCODING 165
SWIDTH 495 0
DWIDTH 44 0
BBX 49 55 6 0
BITMAP
03FF800007FF80
03FF80000FFF00
03FF80000FFF00
03FFC0001FFE00
01FFC0001FFC00
01FFC0003FFC00
01FFC0007FF800
01FFC0007FF000
00FFE000FFF000
00FFE000FFE000
00FFE001FFC000
007FF003FF8000
007FF003FF8000
007FF007FF0000
003FF00FFE0000
003FF81FFE0000
003FF81FFC0000
001FF83FF80000
001FFC7FF00000
001FFCFFE00000
000FFDFFE00000
000FFFFFC00000
000FFFFF800000
0007FFFF000000
0007FFFE000000
0003FFFE000000
0FFFFFFFFE0000
0FFFFFFFFE0000
0FFFFFFFFC0000
1FFFFFFFFC0000
1FFFFFFFFC0000
1FFFFFFFFC0000
1FFFFFFFF80000
0003FFC0000000
0003FF80000000
0003FF80000000
0007FF80000000
0007FF80000000
0007FF00000000
7FFFFFFFF00000
7FFFFFFFF00000
7FFFFFFFE00000
FFFFFFFFE00000
FFFFFFFFE00000
FFFFFFFFE00000
FFFFFFFFC00000
001FFC00000000
001FFC00000000
003FFC00000000
003FFC00000000
003FF800000000
003FF800000000
007FF800000000
007FF800000000
007FF800000000
ENDCHAR
STARTCHAR 00A6
ENCODING 166
SWIDTH 495 0
DWIDTH 44 0
BBX 29 77 12 -15
BITMAP
00003FF8
00003FF8
00007FF0
00007FF0
00007FF0
00007FF0
0000FFE0
0000FFE0
0000FFE0
0000FFE0
0001FFC0
0001FFC0
0001FFC0
0001FFC0
0001FF80
0003FF80
0003FF80
0003FF80
0003FF80
0007FF00
0007FF00
0007FF00
0007FF00
000FFE00
000FFE00
000FFE00
000FFE00
001FFC00
001FFC00
001FFC00
001FFC00
00000000
00000000
00000000
00000000
00000000
00000000
00000000
00000000
00000000
00000000
00000000
00000000
00000000
00000000
01FFC000
01FFC000
01FFC000
03FF8000
03FF8000
03FF8000
03FF8000
07FF0000
07FF0000
07FF0000
07FF0000
0FFE0000
0FFE0000
0FFE0000
0FFE0000
1FFC0000
1FFC0000
1FFC0000
1FFC0000
3FF80000
3FF80000
3FF80000
3FF80000
3FF80000
7FF00000
7FF00000
7FF00000
7FF00000
FFE00000
FFE00000
FFE00000
FFE00000
ENDCHAR
STARTCHAR 00A7
ENCODING 167
SWIDTH 495 0
DWIDTH 44 0
BBX 44 65 3 -9
BITMAP
0000007FFE00
000003FFFFC0
00000FFFFFF0
00003FFFFFF0
00007FFFFFF0
0000FFFFFFE0
0001FFFFFFE0
0001FFFFFFC0
0003FFF83FC0
0003FFC00380
0003FF000000
0007FF000000
0007FF000000
0007FF000000
0003FF000000
0003FF800000
0003FFE00000
0003FFF80000
0001FFFE0000
0001FFFF8000
0003FFFFE000
0007FFFFF000
001FFFFFF800
003FFBFFFC00
007FF0FFFE00
007FE03FFF00
00FFC00FFF00
01FF8007FF00
01FF0003FF00
01FF0003FF00
03FF0001FF00
03FF0001FF00
03FF0001FF00
03FF0003FF00
03FF8003FE00
03FFC007FE00
03FFE00FFC00
01FFF01FFC00
01FFFC3FF800
00FFFFFFF000
007FFFFFE000
003FFFFFC000
001FFFFF8000
0007FFFE0000
0001FFFE0000
00007FFF0000
00001FFF0000
00000FFF8000
000003FF8000
000003FF8000
000001FF8000
000001FF8000
000003FF8000
000003FF8000
1C0007FF0000
1F803FFF0000
3FFFFFFF0000
3FFFFFFE0000
7FFFFFFC0000
7FFFFFF80000
FFFFFFF00000
FFFFFFE00000
3FFFFF800000
07FFFC000000
003F00000000
ENDCHAR
STARTCHAR 00A8
ENCODING 168
SWIDTH 495 0
DWIDTH 44 0
BBX 30 12 18 48
BITMAP
078001E0
1FE007F0
3FE00FF8
7FF01FFC
7FF03FFC
7FF03FFC
FFF03FFC
FFF03FFC
7FF03FF8
7FE01FF0
3FC01FF0
1F8007C0
ENDCHAR
STARTCHAR 00A9
ENCODING 169
SWIDTH 495 0
DWIDTH 44 0
BBX 40 43 6 -1
BITMAP
0003FF8000
001FFFF000
007FFFFC00
00FFFFFF00
03FFFFFF80
07FFC7FFC0
07FC007FE0
0FF0001FF0
1FE0000FF0
3FC00007F8
3F803E03F8
7F01FFC1FC
7F03FFC1FC
7E07FF80FE
FE0FFF80FE
FC1FFF807E
FC1F80007E
FC1F80007E
FC3F00007F
FC3F00003F
F83F00003F
F83F00003F
F83F00003F
FC3F00003F
FC3F00007F
FC3F80007E
FC1FC0007E
FC1FFF807E
FE0FFF80FE
7E07FFC0FE
7F03FFC1FC
3F01FFC1FC
3F807C03F8
1FC00007F8
1FE0000FF0
0FF8001FE0
07FE007FE0
03FFFFFFC0
01FFFFFF80
00FFFFFE00
007FFFFC00
001FFFF000
0003FF8000
ENDCHAR
STARTCHAR 00AA
ENCODING 170
SWIDTH 495 0
DWIDTH 44 0
BBX 31 32 14 24
BITMAP
0001FFF0
000FFFFE
003FFFFE
007FFFFE
01FFFFFE
03FFFFFE
07FFFFFC
0FFFFFFC
0FFE07FC
1FF807FC
3FF007F8
3FE00FF8
3FC00FF8
7FC00FF8
7F800FF0
7F801FF0
7F801FF0
FF801FF0
FF801FE0
FF801FE0
FF803FE0
7FC03FE0
7FC03FE0
7FF0FFE0
7FFFFFE0
3FFFFFE0
3FFFFFE0
1FFFFFF0
0FFFFFF0
07FFEFF0
03FF87F0
007E0000
ENDCHAR
STARTCHAR 00AB
ENCODING 171
SWIDTH 495 0
DWIDTH 44 0
BBX 38 37 8 4
BITMAP
0001000040
0003C000E0
0007E001F8
000FF003FC
001FF007FC
001FF00FF8
003FE01FF8
007FC01FF0
00FF803FE0
01FF807FC0
03FF00FFC0
07FE01FF80
07FC03FF00
0FFC07FE00
1FF807FE00
3FF00FFC00
7FE01FF800
FFE03FF000
FFC03FF000
7FC03FF000
7FC01FF000
3FE01FF000
3FE00FF800
3FE00FF800
1FF007F800
1FF007FC00
0FF003FC00
0FF803FC00
07F801FE00
07F801FE00
03FC01FE00
03FC00FF00
01FC00FF00
01FE007F00
00F8007E00
00E0003800
0080002000
ENDCHAR
STARTCHAR 00AC
ENCODING 172
SWIDTH 495 0
DWIDTH 44 0
BBX 38 28 8 4
BITMAP
3FFFFFFFFC
3FFFFFFFF8
7FFFFFFFF8
7FFFFFFFF8
7FFFFFFFF8
7FFFFFFFF8
FFFFFFFFF0
FFFFFFFFF0
FFFFFFFFF0
0000003FF0
0000003FE0
0000003FE0
0000007FE0
0000007FE0
0000007FC0
0000007FC0
0000007FC0
000000FFC0
000000FF80
000000FF80
000000FF80
000001FF80
000001FF00
000001FF00
000001FF00
000003FF00
000003FE00
000003FE00
ENDCHAR
STARTCHAR 00AD
ENCODING 173
SWIDTH 495 0
DWIDTH 44 0
BBX 27 11 12 17
BITMAP
1FFFFFE0
1FFFFFE0
3FFFFFE0
3FFFFFC0
3FFFFFC0
3FFFFFC0
7FFFFFC0
7FFFFF80
7FFFFF80
7FFFFF80
FFFFFF80
ENDCHAR
STARTCHAR 00AE
ENCODING 174
SWIDTH 495 0
DWIDTH 44 0
BBX 40 43 6 -1
BITMAP
0003FF8000
001FFFF000
007FFFFC00
00FFFFFF00
03FFFFFF80
07FFC7FFC0
07FC007FE0
0FF0001FF0
1FE0000FF0
3FC00007F8
3F81F003F8
7F0FFF01FC
7F0FFFC1FC
7E0FFFE0FE
FE0FFFE0FE
FC0F83F07E
FC0F81F07E
FC0F81F07E
FC0F81F07F
FC0F81F03F
F80F87F03F
F80FFFE03F
F80FFFE03F
FC0FFFC03F
FC0FFF807F
FC0F8F807E
FC0F87C07E
FC0F87C07E
FE0F83E0FE
7E0F83F0FE
7F0F81F1FC
3F0F80F9FC
3F800003F8
1FC00007F8
1FE0000FF0
0FF8001FE0
07FE007FE0
03FFFFFFC0
01FFFFFF80
00FFFFFE00
007FFFFC00
001FFFF000
0003FF8000
ENDCHAR
STARTCHAR 00AF
ENCODING 175
SWIDTH 495 0
DWIDTH 44 0
BBX 27 8 19 50
BITMAP
3FFFFFE0
3FFFFFE0
7FFFFFE0
7FFFFFE0
7FFFFFE0
7FFFFFC0
FFFFFFC0
FFFFFFC0
ENDCHAR
STARTCHAR 00B0
ENCODING 176
SWIDTH 495 0
DWIDTH 44 0
BBX 26 25 18 37
BITMAP
007F8000
03FFF000
07FFF800
1FFFFC00
1FFFFE00
3FFFFF00
7FFFFF00
7FF7FF80
7FC0FF80
FF807F80
FF003FC0
FF003FC0
FF003FC0
FF003FC0
FF807FC0
FF807F80
7FC0FF80
7FFFFF80
7FFFFF00
3FFFFF00
1FFFFE00
0FFFFC00
07FFF800
01FFE000
000C0000
ENDCHAR
STARTCHAR 00B1
ENCODING 177
SWIDTH 495 0
DWIDTH 44 0
BBX 46 50 2 0
BITMAP
0000003FE000
0000007FE000
0000007FE000
0000007FC000
0000007FC000
0000007FC000
000000FFC000
000000FF8000
000000FF8000
000000FF8000
000001FF8000
000001FF8000
000001FF0000
000001FF0000
00FFFFFFFFFC
00FFFFFFFFFC
00FFFFFFFFF8
00FFFFFFFFF8
01FFFFFFFFF8
01FFFFFFFFF8
01FFFFFFFFF0
01FFFFFFFFF0
01FFFFFFFFF0
00000FFC0000
00000FF80000
00000FF80000
00000FF80000
00001FF80000
00001FF00000
00001FF00000
00001FF00000
00003FF00000
00003FF00000
00003FE00000
00003FE00000
00007FE00000
00007FE00000
000000000000
000000000000
000000000000
000000000000
3FFFFFFFFE00
3FFFFFFFFE00
3FFFFFFFFE00
7FFFFFFFFE00
7FFFFFFFFC00
7FFFFFFFFC00
7FFFFFFFFC00
FFFFFFFFFC00
FFFFFFFFF800
ENDCHAR
STARTCHAR 00B2
ENCODING 178
SWIDTH 495 0
DWIDTH 44 0
BBX 26 32 16 24
BITMAP
001FF800
00FFFE00
03FFFF00
07FFFF80
0FFFFF80
0FFFFFC0
0FFFFFC0
07F0FFC0
07C07FC0
03007FC0
02007FC0
00007F80
0000FF80
0001FF80
0007FF00
000FFE00
003FFC00
00FFF800
01FFF000
03FFC000
0FFF8000
1FFE0000
1FFC0000
3FF00000
7FE00000
7FFFFF00
7FFFFF00
FFFFFF00
FFFFFE00
FFFFFE00
FFFFFE00
FFFFFE00
ENDCHAR
STARTCHAR 00B3
ENCODING 179
SWIDTH 495 0
DWIDTH 44 0
BBX 27 33 15 23
BITMAP
000FFE00
00FFFF80
03FFFFC0
01FFFFC0
01FFFFE0
01FFFFE0
01FFFFE0
00E01FE0
00801FE0
00001FE0
00001FC0
00003FC0
0000FF80
003FFF00
003FFE00
003FFC00
007FFF00
007FFF00
007FFF80
0000FF80
00003FC0
00003FC0
00003FC0
00007FC0
1800FF80
3FC7FF80
3FFFFF80
7FFFFF00
7FFFFE00
FFFFFC00
7FFFF800
1FFFE000
00FC0000
ENDCHAR
STARTCHAR 00B4
ENCODING 180
SWIDTH 495 0
DWIDTH 44 0
BBX 19 16 25 45
BITMAP
000C00
001E00
003E00
00FF00
01FF80
03FF80
0FFFC0
1FFFE0
3FFFC0
FFFF00
FFFC00
FFF000
7FC000
3F0000
1C0000
180000
ENDCHAR
STARTCHAR 00B5
ENCODING 181
SWIDTH 495 0
DWIDTH 44 0
BBX 47 57 0 -15
BITMAP
0003FF000FFE
0007FF000FFE
0007FF001FFC
0007FF001FFC
0007FE001FFC
000FFE001FFC
000FFE003FF8
000FFE003FF8
000FFC003FF8
001FFC003FF8
001FFC007FF0
001FFC007FF0
001FFC007FF0
003FF8007FF0
003FF8007FE0
003FF800FFE0
003FF800FFE0
007FF000FFE0
007FF000FFC0
007FF001FFC0
007FF001FFC0
00FFE001FFC0
00FFE001FFC0
00FFE003FF80
00FFE003FF80
00FFC003FF80
01FFC003FF80
01FFC003FF00
01FFC007FF00
01FFC003FF00
03FFC003FF00
03FFE007FF00
03FFF01FFF80
03FFFFFFFFC0
07FFFFFFFFE0
07FFFFFFFFE0
07FFFFFFFFE0
07FFFFFFFFC0
0FFFFFFFFFC0
0FFFFFFCFFC0
0FFFFFF87F80
0FFDFFE03F80
1FFC7F800780
1FFC00000000
1FF800000000
1FF800000000
1FF800000000
3FF800000000
3FF800000000
3FF000000000
3FF000000000
7FF000000000
7FF000000000
7FF000000000
7FE000000000
FFE000000000
FFE000000000
ENDCHAR
STARTCHAR 00B6
ENCODING 182
SWIDTH 495 0
DWIDTH 44 0
BBX 44 71 8 -15
BITMAP
0000003C0000
00001FFFFF80
0001FFFFFFF0
0007FFFFFFE0
001FFFFFFFE0
003FFFFFFFE0
00FFFFFFFFE0
01FFFFFFFFC0
03FFFFFFFFC0
07FFFFC0FFC0
0FFFFFC07FC0
0FFFFF807FC0
1FFFFF80FF80
3FFFFF80FF80
3FFFFF80FF80
3FFFFF00FF80
7FFFFF01FF00
7FFFFF01FF00
7FFFFF01FF00
FFFFFE01FF00
FFFFFE03FE00
FFFFFE03FE00
FFFFFE03FE00
FFFFFE03FE00
FFFFFC07FC00
FFFFFC07FC00
7FFFFC07FC00
7FFFFC07FC00
7FFFF80FF800
3FFFF80FF800
3FFFF80FF800
1FFFF80FF800
0FFFF01FF000
03FFF01FF000
00FFF01FF000
001FF01FF000
003FE01FF000
003FE03FE000
003FE03FE000
003FE03FE000
007FC03FE000
007FC07FC000
007FC07FC000
007FC07FC000
00FF807FC000
00FF80FF8000
00FF80FF8000
00FF80FF8000
01FF80FF8000
01FF01FF0000
01FF01FF0000
01FF01FF0000
01FF01FF0000
03FE03FE0000
03FE03FE0000
03FE03FE0000
03FE03FE0000
07FC07FC0000
07FC07FC0000
07FC07FC0000
07FC07FC0000
0FF807FC0000
0FF80FF80000
0FF80FF80000
0FF80FF80000
1FF00FF80000
1FF01FF00000
1FF01FF00000
1FF01FF00000
3FF01FF00000
3FE03FE00000
ENDCHAR
STARTCHAR 00B7
ENCODING 183
SWIDTH 495 0
DWIDTH 44 0
BBX 16 15 18 16
BITMAP
07F0
1FFC
3FFE
7FFE
7FFE
FFFE
FFFF
FFFE
FFFE
FFFE
FFFE
FFFC
7FF8
3FF0
1FE0
ENDCHAR
STARTCHAR 00B8
ENCODING 184
SWIDTH 495 0
DWIDTH 44 0
BBX 19 17 11 -15
BITMAP
001FC0
003F80
007F00
00FF00
00FF00
01FF80
007FC0
003FC0
001FE0
001FE0
203FE0
3FFFE0
7FFFC0
7FFFC0
7FFF80
FFFE00
1FF800
ENDCHAR
STARTCHAR 00B9
ENCODING 185
SWIDTH 495 0
DWIDTH 44 0
BBX 26 32 14 24
BITMAP
00003F80
0000FF80
0003FF00
0007FF00
001FFF00
00FFFF00
03FFFE00
07FFFE00
07FFFE00
07FFFE00
07FFFE00
07F7FC00
0787FC00
0407FC00
0007FC00
000FF800
000FF800
000FF800
000FF800
001FF000
001FF000
001FF000
001FF000
003FE000
003FE000
7FFFFFC0
7FFFFFC0
7FFFFFC0
7FFFFF80
FFFFFF80
FFFFFF80
FFFFFF80
ENDCHAR
STARTCHAR 00BA
ENCODING 186
SWIDTH 495 0
DWIDTH 44 0
BBX 31 32 15 24
BITMAP
0007FF00
001FFFC0
007FFFE0
01FFFFF0
03FFFFF8
07FFFFF8
07FFFFFC
0FFE0FFC
1FF803FC
1FF003FC
3FE003FE
3FE003FE
3FC003FC
7FC003FC
7F8003FC
7F8003FC
7F8003FC
7F8007FC
FF8007F8
FF800FF8
FF800FF8
FF801FF0
FF803FF0
7FC07FE0
7FFFFFE0
7FFFFFC0
3FFFFF80
3FFFFF00
1FFFFE00
0FFFF800
03FFE000
007F0000
ENDCHAR
STARTCHAR 00BB
ENCODING 187
SWIDTH 495 0
DWIDTH 44 0
BBX 38 37 6 4
BITMAP
0010000400
0078001E00
01F8007E00
03FC00FE00
03FC00FF00
01FE00FF00
01FE007F80
01FF007F80
00FF007FC0
00FF003FC0
00FF803FE0
007F801FE0
007FC01FF0
007FC01FF0
003FE00FF0
003FE00FF8
003FF00FF8
001FF007FC
001FF80FFC
003FF00FFC
007FE01FF8
00FFC03FF0
00FFC07FE0
01FF807FC0
03FF00FFC0
07FE01FF80
07FC03FF00
0FF803FE00
1FF007FC00
3FF00FF800
3FE01FF800
7FC01FF000
FF803FE000
FF003FC000
3E000F8000
1E00070000
0400020000
ENDCHAR
STARTCHAR 00BC
ENCODING 188
SWIDTH 495 0
DWIDTH 44 0
BBX 49 56 2 0
BITMAP
00001F80000000
00003F0000FF80
0000FF0001FF00
0003FF0001FE00
0007FF0003FC00
003FFF0007FC00
00FFFE000FF800
00FFFE000FF000
00FFFE001FE000
00FFFE003FE000
00F1FC007FC000
0083FC007F8000
0003FC00FF0000
0003FC01FF0000
0003F803FE0000
0007F803FC0000
0007F807F80000
0007F80FF80000
0007F01FF00000
000FF01FE00000
000FF03FC00000
000FF07FC00000
000FE0FF800000
000000FF000000
000001FE000000
000003FE000000
000007FC000000
000007F8000000
00000FF0000000
00001FF0000000
00003FE0000000
00003FC0000000
00007F80000000
0000FF80000000
0001FF007FC000
0001FE00FFC000
0003FC01FFC000
0007FC03FF8000
000FF807FF8000
000FF00FFF8000
001FE01FFF8000
003FE03FBF8000
007FC03F3F0000
007F807E3F0000
00FF00FC7F0000
01FF01F87F0000
03FE01F87E0000
03FC03FFFFC000
07F807FFFFC000
0FF807FFFFC000
1FF007FFFFC000
1FE00FFFFF8000
3FC00FFFFF8000
7FC00001FC0000
FF800001F80000
FF000001F80000
ENDCHAR
STARTCHAR 00BD
ENCODING 189
SWIDTH 495 0
DWIDTH 44 0
BBX 49 56 1 0
BITMAP
00000FC0000000
00001F80007F80
00007F8000FF80
0001FF8001FF00
0003FF8001FE00
001FFF8003FC00
007FFF0007FC00
007FFF000FF800
007FFF000FF000
007FFF001FE000
0078FE003FE000
0041FE007FC000
0001FE007F8000
0001FE00FF0000
0001FC01FF0000
0003FC03FE0000
0003FC03FC0000
0003FC07F80000
0003F80FF80000
0007F81FF00000
0007F81FE00000
0007F83FC00000
0007F07FC00000
000000FF800000
000000FF000000
000001FE000000
000003FE000000
000007FC000000
000007F8000000
00000FF0000000
00001FF0000000
00003FE0000000
00003FC0000000
00007F807F0000
0000FF83FF8000
0001FF0FFFC000
0001FE1FFFE000
0003FC3FFFE000
0007FC1FFFE000
000FF81F8FF000
000FF00E07E000
001FE0000FE000
003FE0000FE000
007FC0003FC000
007F80007FC000
00FF0001FF8000
01FF0007FE0000
03FE001FFC0000
03FC003FF00000
07F8007FC00000
0FF800FFFFC000
1FF000FFFFC000
1FE001FFFFC000
3FC001FFFF8000
7FC001FFFF8000
FF8001FFFF8000
ENDCHAR
STARTCHAR 00BE
ENCODING 190
SWIDTH 495 0
DWIDTH 44 0
BBX 49 56 3 0
BITMAP
000FFE00000000
003FFF00007F80
007FFF8000FF80
007FFFC001FF00
007FFFC003FE00
003C3FC003FC00
00201FC007FC00
00001F800FF800
00007F001FF000
000FFE001FE000
000FFC003FE000
001FFE007FC000
001FFF00FF8000
001FFF80FF0000
00007F81FF0000
00007F83FE0000
00007F87FC0000
03E0FF87F80000
03FFFF0FF80000
03FFFE1FF00000
07FFFC3FE00000
07FFF83FC00000
03FFE07FC00000
000000FF800000
000001FF000000
000001FE000000
000003FE000000
000007FC000000
00000FF8000000
00000FF0000000
00001FF0000000
00003FE0000000
00007FC0000000
00007F80000000
0000FF80FF8000
0001FF01FF8000
0003FE03FF8000
0003FC07FF0000
0007FC0FFF0000
000FF81FFF0000
001FF03FFF0000
001FE07F7F0000
003FE07E7E0000
007FC0FC7E0000
00FF81F8FE0000
00FF03F0FE0000
01FF03F0FC0000
03FE07FFFF8000
07FC0FFFFF8000
07F80FFFFF8000
0FF80FFFFF8000
1FF01FFFFF0000
3FE01FFFFF0000
3FC00003F80000
7FC00003F00000
FF800003F00000
ENDCHAR
STARTCHAR 00BF
ENCODING 191
SWIDTH 495 0
DWIDTH 44 0
BBX 33 57 5 -15
BITMAP
0000007000
000003FE00
000007FF00
00000FFF80
00000FFF80
00001FFF80
00001FFF80
00001FFF80
00001FFF80
00001FFF80
00001FFF80
00001FFF00
00000FFE00
000007FC00
000003F000
0000000000
0000000000
0000000000
0000000000
0000000000
0000000000
00003FF800
00003FF800
00003FF000
00007FF000
0000FFE000
0001FFE000
0003FFC000
0007FFC000
000FFF8000
003FFF0000
007FFE0000
01FFFC0000
03FFF80000
07FFE00000
0FFFC00000
1FFF000000
3FFE000000
3FFC000000
7FF8000000
7FF0000000
FFF0000000
FFE0000000
FFE0000000
FFE0000000
FFF0003000
FFF000F800
FFFC07F800
FFFFFFF800
FFFFFFF800
FFFFFFF800
7FFFFFF800
3FFFFFFC00
1FFFFFF800
0FFFFFE000
07FFFF0000
00FFF00000
ENDCHAR
STARTCHAR 00C0
ENCODING 192
SWIDTH 495 0
DWIDTH 44 0
BBX 43 74 0 0
BITMAP
000000040000
000000060000
0000000F8000
0000001FC000
0000001FE000
0000003FF800
0000003FFC00
0000007FFE00
000000FFFF80
0000003FFFC0
0000000FFFE0
00000003FFE0
00000000FFC0
000000003FC0
000000001F80
000000000700
000000000100
000000000000
000000000000
0000001FFE00
0000001FFF00
0000003FFF00
0000003FFF00
0000007FFF00
000000FFFF00
000000FFFF00
000001FFFF00
000001FFFF00
000003FFFF00
000003FFFF00
000007FFFF80
00000FFDFF80
00000FFDFF80
00001FF9FF80
00001FF8FF80
00003FF0FF80
00003FF0FF80
00007FE0FF80
00007FE0FF80
0000FFC0FF80
0000FFC0FF80
0001FF80FF80
0001FF80FF80
0003FF00FFC0
0003FF00FFC0
0007FE00FFC0
0007FE00FFC0
000FFC00FFC0
000FFC00FFC0
001FF800FFC0
001FF800FFC0
003FF000FFC0
003FFFFFFFC0
007FFFFFFFC0
007FFFFFFFC0
00FFFFFFFFC0
00FFFFFFFFC0
01FFFFFFFFC0
01FFFFFFFFC0
03FFFFFFFFC0
03FFFFFFFFC0
07FF0000FFC0
07FE0000FFC0
0FFE0000FFC0
0FFE0000FFC0
1FFC0000FFC0
1FFC0001FFC0
3FF80001FFC0
3FF80001FFC0
3FF00001FFC0
7FF00001FFC0
7FF00001FFC0
FFE00001FFC0
FFE00001FFC0
ENDCHAR
STARTCHAR 00C1
ENCODING 193
SWIDTH 495 0
DWIDTH 44 0
BBX 47 74 0 0
BITMAP
000000000040
0000000000C0
0000000001E0
0000000007F0
000000000FF0
000000003FF8
000000007FFC
00000000FFFC
00000003FFFE
00000007FFF8
0000000FFFE0
0000000FFF80
00000007FF00
00000007FC00
00000003F000
00000001C000
000000010000
000000000000
000000000000
0000001FFE00
0000001FFF00
0000003FFF00
0000003FFF00
0000007FFF00
000000FFFF00
000000FFFF00
000001FFFF00
000001FFFF00
000003FFFF00
000003FFFF00
000007FFFF80
00000FFDFF80
00000FFDFF80
00001FF9FF80
00001FF8FF80
00003FF0FF80
00003FF0FF80
00007FE0FF80
00007FE0FF80
0000FFC0FF80
0000FFC0FF80
0001FF80FF80
0001FF80FF80
0003FF00FFC0
0003FF00FFC0
0007FE00FFC0
0007FE00FFC0
000FFC00FFC0
000FFC00FFC0
001FF800FFC0
001FF800FFC0
003FF000FFC0
003FFFFFFFC0
007FFFFFFFC0
007FFFFFFFC0
00FFFFFFFFC0
00FFFFFFFFC0
01FFFFFFFFC0
01FFFFFFFFC0
03FFFFFFFFC0
03FFFFFFFFC0
07FF0000FFC0
07FE0000FFC0
0FFE0000FFC0
0FFE0000FFC0
1FFC0000FFC0
1FFC0001FFC0
3FF80001FFC0
3FF80001FFC0
3FF00001FFC0
7FF00001FFC0
7FF00001FFC0
FFE00001FFC0
FFE00001FFC0
ENDCHAR
STARTCHAR 00C2
ENCODING 194
SWIDTH 495 0
DWIDTH 44 0
BBX 47 74 0 0
BITMAP
000000000400
000000000E00
000000001F00
000000003F00
00000000FF80
00000001FFC0
00000003FFE0
00000007FFF0
0000001FFFF8
0000003FFFF8
0000007FF7FC
000000FFC3FE
000000FF81FE
0000007E00FC
0000003C0078
000000100030
000000000000
000000000000
000000000000
0000001FFE00
0000001FFF00
0000003FFF00
0000003FFF00
0000007FFF00
000000FFFF00
000000FFFF00
000001FFFF00
000001FFFF00
000003FFFF00
000003FFFF00
000007FFFF80
00000FFDFF80
00000FFDFF80
00001FF9FF80
00001FF8FF80
00003FF0FF80
00003FF0FF80
00007FE0FF80
00007FE0FF80
0000FFC0FF80
0000FFC0FF80
0001FF80FF80
0001FF80FF80
0003FF00FFC0
0003FF00FFC0
0007FE00FFC0
0007FE00FFC0
000FFC00FFC0
000FFC00FFC0
001FF800FFC0
001FF800FFC0
003FF000FFC0
003FFFFFFFC0
007FFFFFFFC0
007FFFFFFFC0
00FFFFFFFFC0
00FFFFFFFFC0
01FFFFFFFFC0
01FFFFFFFFC0
03FFFFFFFFC0
03FFFFFFFFC0
07FF0000FFC0
07FE0000FFC0
0FFE0000FFC0
0FFE0000FFC0
1FFC0000FFC0
1FFC0001FFC0
3FF80001FFC0
3FF80001FFC0
3FF00001FFC0
7FF00001FFC0
7FF00001FFC0
FFE00001FFC0
FFE00001FFC0
ENDCHAR
STARTCHAR 00C3
ENCODING 195
SWIDTH 495 0
DWIDTH 44 0
BBX 50 72 0 0
BITMAP
00000007800C00
0000003FF01F00
0000007FFC3F80
000000FFFFFFC0
000001FFFFFF80
000003FFFFFF80
000003FFFFFF00
000007FFFFFE00
000007FFFFFC00
000003F07FF800
000000E01FF000
00000000000000
00000000000000
00000000000000
00000000000000
00000000000000
00000000000000
0000001FFE0000
0000001FFF0000
0000003FFF0000
0000003FFF0000
0000007FFF0000
000000FFFF0000
000000FFFF0000
000001FFFF0000
000001FFFF0000
000003FFFF0000
000003FFFF0000
000007FFFF8000
00000FFDFF8000
00000FFDFF8000
00001FF9FF8000
00001FF8FF8000
00003FF0FF8000
00003FF0FF8000
00007FE0FF8000
00007FE0FF8000
0000FFC0FF8000
0000FFC0FF8000
0001FF80FF8000
0001FF80FF8000
0003FF00FFC000
0003FF00FFC000
0007FE00FFC000
0007FE00FFC000
000FFC00FFC000
000FFC00FFC000
001FF800FFC000
001FF800FFC000
003FF000FFC000
003FFFFFFFC000
007FFFFFFFC000
007FFFFFFFC000
00FFFFFFFFC000
00FFFFFFFFC000
01FFFFFFFFC000
01FFFFFFFFC000
03FFFFFFFFC000
03FFFFFFFFC000
07FF0000FFC000
07FE0000FFC000
0FFE0000FFC000
0FFE0000FFC000
1FFC0000FFC000
1FFC0001FFC000
3FF80001FFC000
3FF80001FFC000
3FF00001FFC000
7FF00001FFC000
7FF00001FFC000
FFE00001FFC000
FFE00001FFC000
ENDCHAR
STARTCHAR 00C4
ENCODING 196
SWIDTH 495 0
DWIDTH 44 0
BBX 51 72 0 0
BITMAP
0000007E001F00
000000FF007FC0
000001FF80FFC0
000003FF80FFE0
000003FF81FFE0
000003FF81FFE0
000007FF81FFE0
000003FF81FFC0
000003FF01FFC0
000003FF00FF80
000001FC007F00
00000070001C00
00000000000000
00000000000000
00000000000000
00000000000000
00000000000000
0000001FFE0000
0000001FFF0000
0000003FFF0000
0000003FFF0000
0000007FFF0000
000000FFFF0000
000000FFFF0000
000001FFFF0000
000001FFFF0000
000003FFFF0000
000003FFFF0000
000007FFFF8000
00000FFDFF8000
00000FFDFF8000
00001FF9FF8000
00001FF8FF8000
00003FF0FF8000
00003FF0FF8000
00007FE0FF8000
00007FE0FF8000
0000FFC0FF8000
0000FFC0FF8000
0001FF80FF8000
0001FF80FF8000
0003FF00FFC000
0003FF00FFC000
0007FE00FFC000
0007FE00FFC000
000FFC00FFC000
000FFC00FFC000
001FF800FFC000
001FF800FFC000
003FF000FFC000
003FFFFFFFC000
007FFFFFFFC000
007FFFFFFFC000
00FFFFFFFFC000
00FFFFFFFFC000
01FFFFFFFFC000
01FFFFFFFFC000
03FFFFFFFFC000
03FFFFFFFFC000
07FF0000FFC000
07FE0000FFC000
0FFE0000FFC000
0FFE0000FFC000
1FFC0000FFC000
1FFC0001FFC000
3FF80001FFC000
3FF80001FFC000
3FF00001FFC000
7FF00001FFC000
7FF00001FFC000
FFE00001FFC000
FFE00001FFC000
ENDCHAR
STARTCHAR 00C5
ENCODING 197
SWIDTH 495 0
DWIDTH 44 0
BBX 44 70 0 0
BITMAP
00000001FC00
00000007FF00
0000001FFF80
0000001FFFC0
0000003FFFE0
0000007F9FE0
0000007E07E0
0000007E03E0
0000007E03F0
0000007E03F0
0000007E03E0
0000007E07E0
0000007F8FE0
0000003FFFE0
0000003FFFC0
0000001FFF80
0000001FFF00
0000003FFF00
0000003FFF00
0000007FFF00
000000FFFF00
000000FFFF00
000001FFFF00
000001FFFF00
000003FFFF00
000003FFFF00
000007FFFF00
00000FFDFF80
00000FFDFF80
00001FF9FF80
00001FF8FF80
00003FF0FF80
00003FF0FF80
00007FE0FF80
00007FE0FF80
0000FFC0FF80
0000FFC0FF80
0001FF80FF80
0001FF80FF80
0003FF00FF80
0003FF00FFC0
0007FE00FFC0
0007FE00FFC0
000FFC00FFC0
000FFC00FFC0
001FF800FFC0
001FF800FFC0
003FF000FFC0
003FFFFFFFC0
007FFFFFFFC0
007FFFFFFFC0
00FFFFFFFFC0
00FFFFFFFFC0
01FFFFFFFFC0
01FFFFFFFFC0
03FFFFFFFFC0
03FFFFFFFFC0
07FF0000FFC0
07FE0000FFC0
0FFE0000FFC0
0FFE0000FFC0
1FFC0000FFC0
1FFC0001FFC0
3FF80001FFC0
3FF80001FFC0
3FF00001FFC0
7FF00001FFC0
7FF00001FFC0
FFE00001FFC0
FFE00001FFC0
ENDCHAR
STARTCHAR 00C6
ENCODING 198
SWIDTH 495 0
DWIDTH 44 0
BBX 55 55 -1 0
BITMAP
00000007FFFFFE
0000000FFFFFFC
0000000FFFFFFC
0000001FFFFFFC
0000003FFFFFFC
0000003FFFFFF8
0000007FFFFFF8
0000007FFFFFF8
000000FFFFFFF8
000001FF7FE000
000001FF7FC000
000003FEFFC000
000003FEFFC000
000007FCFFC000
000007FCFF8000
00000FF9FF8000
00001FF1FF8000
00001FF1FF8000
00003FE1FF0000
00003FE1FF0000
00007FC3FF0000
00007FC3FFFF00
0000FF83FFFE00
0000FF83FFFE00
0001FF07FFFE00
0003FF07FFFE00
0003FF07FFFC00
0007FE07FFFC00
0007FE0FFFFC00
000FFC0FFFFC00
000FFC0FFC0000
001FF80FF80000
001FF81FF80000
003FFFFFF80000
003FFFFFF80000
007FFFFFF00000
007FFFFFF00000
00FFFFFFF00000
00FFFFFFF00000
01FFFFFFE00000
01FFFFFFE00000
03FFFFFFE00000
03FF007FE00000
07FF007FC00000
07FE007FC00000
0FFE00FFC00000
0FFC00FFFFF800
1FFC00FFFFF800
1FFC00FFFFF000
3FF801FFFFF000
3FF801FFFFF000
3FF001FFFFF000
7FF001FFFFE000
7FE003FFFFE000
FFE003FFFFE000
ENDCHAR
STARTCHAR 00C7
ENCODING 199
SWIDTH 495 0
DWIDTH 44 0
BBX 42 71 8 -15
BITMAP
000001FFE000
00000FFFFC00
00007FFFFF00
0000FFFFFFC0
0003FFFFFFC0
0007FFFFFFC0
000FFFFFFF80
001FFFFFFF80
003FFFFFFF00
007FFFC0FF00
00FFFE001E00
01FFF8000600
01FFF0000000
03FFE0000000
03FFC0000000
07FF80000000
07FF00000000
0FFF00000000
0FFE00000000
1FFE00000000
1FFC00000000
3FFC00000000
3FF800000000
3FF800000000
3FF800000000
7FF000000000
7FF000000000
7FF000000000
7FF000000000
FFE000000000
FFE000000000
FFE000000000
FFE000000000
FFE000000000
FFE000000000
FFE000000000
FFE000000000
FFE000000000
FFE000000000
FFE000000000
FFE000000000
FFE000000000
FFF000000000
FFF000000000
7FF800000000
7FFC00030000
7FFE001F0000
3FFFF7FF0000
3FFFFFFF0000
3FFFFFFF0000
1FFFFFFF8000
0FFFFFFF8000
07FFFFFF8000
03FFFFFF8000
01FFFFFE0000
007FFFF00000
000FFF800000
000FE0000000
001FE0000000
003FF8000000
000FF8000000
0003FC000000
0003FC000000
0003FC000000
0207FC000000
07FFFC000000
07FFFC000000
0FFFF8000000
0FFFF0000000
0FFFE0000000
01FF00000000
ENDCHAR
STARTCHAR 00C8
ENCODING 200
SWIDTH 495 0
DWIDTH 44 0
BBX 45 73 5 1
BITMAP
000000600000
000000F80000
000000FC0000
000001FF0000
000003FF8000
000003FFC000
000007FFF000
00000FFFF800
000003FFFC00
000000FFFF00
0000003FFE00
0000000FFE00
00000003FC00
00000000F800
000000003800
000000001000
000000000000
000000000000
0007FFFFFFF8
000FFFFFFFF8
000FFFFFFFF8
000FFFFFFFF8
000FFFFFFFF0
000FFFFFFFF0
001FFFFFFFF0
001FFFFFFFF0
001FFFFFFFE0
001FFC000000
003FF8000000
003FF8000000
003FF8000000
003FF8000000
007FF0000000
007FF0000000
007FF0000000
007FF0000000
00FFE0000000
00FFE0000000
00FFE0000000
00FFFFFFF800
01FFFFFFF800
01FFFFFFF800
01FFFFFFF800
01FFFFFFF800
01FFFFFFF000
03FFFFFFF000
03FFFFFFF000
03FFFFFFF000
03FF80000000
07FF00000000
07FF00000000
07FF00000000
07FF00000000
0FFE00000000
0FFE00000000
0FFE00000000
0FFE00000000
1FFC00000000
1FFC00000000
1FFC00000000
1FFC00000000
3FF800000000
3FF800000000
3FF800000000
3FFFFFFFF000
3FFFFFFFF000
7FFFFFFFF000
7FFFFFFFF000
7FFFFFFFE000
7FFFFFFFE000
FFFFFFFFE000
FFFFFFFFE000
FFFFFFFFC000
ENDCHAR
STARTCHAR 00C9
ENCODING 201
SWIDTH 495 0
DWIDTH 44 0
BBX 45 74 5 0
BITMAP
000000000800
000000001C00
000000003C00
00000000FE00
00000001FE00
00000003FF00
0000000FFF80
0000001FFF80
0000003FFFC0
000000FFFF00
000001FFFC00
000001FFF800
000000FFE000
0000007F8000
0000007E0000
000000380000
000000000000
000000000000
000000000000
0007FFFFFFF8
000FFFFFFFF8
000FFFFFFFF8
000FFFFFFFF8
000FFFFFFFF0
000FFFFFFFF0
001FFFFFFFF0
001FFFFFFFF0
001FFFFFFFE0
001FFC000000
003FF8000000
003FF8000000
003FF8000000
003FF8000000
007FF0000000
007FF0000000
007FF0000000
007FF0000000
00FFE0000000
00FFE0000000
00FFE0000000
00FFFFFFF800
01FFFFFFF800
01FFFFFFF800
01FFFFFFF800
01FFFFFFF800
01FFFFFFF000
03FFFFFFF000
03FFFFFFF000
03FFFFFFF000
03FF80000000
07FF00000000
07FF00000000
07FF00000000
07FF00000000
0FFE00000000
0FFE00000000
0FFE00000000
0FFE00000000
1FFC00000000
1FFC00000000
1FFC00000000
1FFC00000000
3FF800000000
3FF800000000
3FF800000000
3FFFFFFFF000
3FFFFFFFF000
7FFFFFFFF000
7FFFFFFFF000
7FFFFFFFE000
7FFFFFFFE000
FFFFFFFFE000
FFFFFFFFE000
FFFFFFFFC000
ENDCHAR
STARTCHAR 00CA
ENCODING 202
SWIDTH 495 0
DWIDTH 44 0
BBX 45 74 5 0
BITMAP
000000004000
00000000C000
00000003E000
00000007F000
0000000FF800
0000001FFC00
0000007FFC00
000000FFFE00
000001FFFF00
000003FFFF80
00000FFEFFC0
00001FFC7FE0
00000FF03FE0
000007E01FC0
000007800F00
000003000600
000000000000
000000000000
000000000000
0007FFFFFFF8
000FFFFFFFF8
000FFFFFFFF8
000FFFFFFFF8
000FFFFFFFF0
000FFFFFFFF0
001FFFFFFFF0
001FFFFFFFF0
001FFFFFFFE0
001FFC000000
003FF8000000
003FF8000000
003FF8000000
003FF8000000
007FF0000000
007FF0000000
007FF0000000
007FF0000000
00FFE0000000
00FFE0000000
00FFE0000000
00FFFFFFF800
01FFFFFFF800
01FFFFFFF800
01FFFFFFF800
01FFFFFFF800
01FFFFFFF000
03FFFFFFF000
03FFFFFFF000
03FFFFFFF000
03FF80000000
07FF00000000
07FF00000000
07FF00000000
07FF00000000
0FFE00000000
0FFE00000000
0FFE00000000
0FFE00000000
1FFC00000000
1FFC00000000
1FFC00000000
1FFC00000000
3FF800000000
3FF800000000
3FF800000000
3FFFFFFFF000
3FFFFFFFF000
7FFFFFFFF000
7FFFFFFFF000
7FFFFFFFE000
7FFFFFFFE000
FFFFFFFFE000
FFFFFFFFE000
FFFFFFFFC000
ENDCHAR
STARTCHAR 00CB
ENCODING 203
SWIDTH 495 0
DWIDTH 44 0
BBX 46 72 5 0
BITMAP
00000FC003E0
00001FE00FF8
00003FF01FF8
00007FF01FFC
00007FF03FFC
00007FF03FFC
00007FF03FFC
00007FF03FFC
00007FE03FF8
00007FE01FF0
00003FC00FE0
00000E000780
000000000000
000000000000
000000000000
000000000000
000000000000
0007FFFFFFF8
000FFFFFFFF8
000FFFFFFFF8
000FFFFFFFF8
000FFFFFFFF0
000FFFFFFFF0
001FFFFFFFF0
001FFFFFFFF0
001FFFFFFFE0
001FFC000000
003FF8000000
003FF8000000
003FF8000000
003FF8000000
007FF0000000
007FF0000000
007FF0000000
007FF0000000
00FFE0000000
00FFE0000000
00FFE0000000
00FFFFFFF800
01FFFFFFF800
01FFFFFFF800
01FFFFFFF800
01FFFFFFF800
01FFFFFFF000
03FFFFFFF000
03FFFFFFF000
03FFFFFFF000
03FF80000000
07FF00000000
07FF00000000
07FF00000000
07FF00000000
0FFE00000000
0FFE00000000
0FFE00000000
0FFE00000000
1FFC00000000
1FFC00000000
1FFC00000000
1FFC00000000
3FF800000000
3FF800000000
3FF800000000
3FFFFFFFF000
3FFFFFFFF000
7FFFFFFFF000
7FFFFFFFF000
7FFFFFFFE000
7FFFFFFFE000
FFFFFFFFE000
FFFFFFFFE000
FFFFFFFFC000
ENDCHAR
STARTCHAR 00CC
ENCODING 204
SWIDTH 495 0
DWIDTH 44 0
BBX 48 73 3 1
BITMAP
000000300000
0000007C0000
0000007E0000
000000FF8000
000001FFC000
000001FFE000
000003FFF800
000007FFFC00
000001FFFE00
0000007FFF80
0000001FFF00
00000007FF00
00000001FE00
000000007C00
000000001C00
000000000000
000000000000
000000000000
0007FFFFFFFF
0007FFFFFFFF
0007FFFFFFFF
000FFFFFFFFE
000FFFFFFFFE
000FFFFFFFFE
000FFFFFFFFE
001FFFFFFFFC
001FFFFFFFFC
000001FFC000
000001FFC000
000001FFC000
000003FF8000
000003FF8000
000003FF8000
000003FF8000
000007FF0000
000007FF0000
000007FF0000
000007FF0000
00000FFE0000
00000FFE0000
00000FFE0000
00000FFE0000
00001FFC0000
00001FFC0000
00001FFC0000
00001FFC0000
00001FF80000
00003FF80000
00003FF80000
00003FF80000
00003FF80000
00007FF00000
00007FF00000
00007FF00000
00007FF00000
0000FFE00000
0000FFE00000
0000FFE00000
0000FFE00000
0001FFC00000
0001FFC00000
0001FFC00000
0001FFC00000
0003FF800000
3FFFFFFFF800
3FFFFFFFF800
3FFFFFFFF800
7FFFFFFFF000
7FFFFFFFF000
7FFFFFFFF000
7FFFFFFFF000
FFFFFFFFE000
FFFFFFFFE000
ENDCHAR
STARTCHAR 00CD
ENCODING 205
SWIDTH 495 0
DWIDTH 44 0
BBX 48 74 3 0
BITMAP
000000000200
000000000700
000000000F00
000000003F80
000000007FC0
00000000FFC0
00000003FFE0
00000007FFF0
0000000FFFF0
0000003FFFC0
0000007FFF80
0000007FFE00
0000003FF800
0000001FE000
0000001F8000
0000000E0000
000000000000
000000000000
000000000000
0007FFFFFFFF
0007FFFFFFFF
0007FFFFFFFF
000FFFFFFFFE
000FFFFFFFFE
000FFFFFFFFE
000FFFFFFFFE
001FFFFFFFFC
001FFFFFFFFC
000001FFC000
000001FFC000
000001FFC000
000003FF8000
000003FF8000
000003FF8000
000003FF8000
000007FF0000
000007FF0000
000007FF0000
000007FF0000
00000FFE0000
00000FFE0000
00000FFE0000
00000FFE0000
00001FFC0000
00001FFC0000
00001FFC0000
00001FFC0000
00001FF80000
00003FF80000
00003FF80000
00003FF80000
00003FF80000
00007FF00000
00007FF00000
00007FF00000
00007FF00000
0000FFE00000
0000FFE00000
0000FFE00000
0000FFE00000
0001FFC00000
0001FFC00000
0001FFC00000
0001FFC00000
0003FF800000
3FFFFFFFF800
3FFFFFFFF800
3FFFFFFFF800
7FFFFFFFF000
7FFFFFFFF000
7FFFFFFFF000
7FFFFFFFF000
FFFFFFFFE000
FFFFFFFFE000
ENDCHAR
STARTCHAR 00CE
ENCODING 206
SWIDTH 495 0
DWIDTH 44 0
BBX 48 73 3 1
BITMAP
000000007000
00000000F800
00000001FC00
00000003FC00
0000000FFE00
0000001FFF00
0000003FFF80
000000FFFFC0
000001FFFFE0
000003FFBFE0
000007FE1FF0
000003FC0FF0
000003F807E0
000001E003C0
000000C00180
000000000000
000000000000
000000000000
0007FFFFFFFF
0007FFFFFFFF
0007FFFFFFFF
000FFFFFFFFE
000FFFFFFFFE
000FFFFFFFFE
000FFFFFFFFE
001FFFFFFFFC
001FFFFFFFFC
000001FFC000
000001FFC000
000001FFC000
000003FF8000
000003FF8000
000003FF8000
000003FF8000
000007FF0000
000007FF0000
000007FF0000
000007FF0000
00000FFE0000
00000FFE0000
00000FFE0000
00000FFE0000
00001FFC0000
00001FFC0000
00001FFC0000
00001FFC0000
00001FF80000
00003FF80000
00003FF80000
00003FF80000
00003FF80000
00007FF00000
00007FF00000
00007FF00000
00007FF00000
0000FFE00000
0000FFE00000
0000FFE00000
0000FFE00000
0001FFC00000
0001FFC00000
0001FFC00000
0001FFC00000
0003FF800000
3FFFFFFFF800
3FFFFFFFF800
3FFFFFFFF800
7FFFFFFFF000
7FFFFFFFF000
7FFFFFFFF000
7FFFFFFFF000
FFFFFFFFE000
FFFFFFFFE000
ENDCHAR
STARTCHAR 00CF
ENCODING 207
SWIDTH 495 0
DWIDTH 44 0
BBX 48 72 3 0
BITMAP
000003F000F8
000007F801FE
00000FFC03FE
00001FFC07FF
00001FFC07FF
00001FFE0FFF
00001FFC0FFF
00001FFC0FFF
00001FFC07FE
00001FF807FC
00000FF003F8
0000038000E0
000000000000
000000000000
000000000000
000000000000
000000000000
0007FFFFFFFF
0007FFFFFFFF
0007FFFFFFFF
000FFFFFFFFE
000FFFFFFFFE
000FFFFFFFFE
000FFFFFFFFE
001FFFFFFFFC
001FFFFFFFFC
000001FFC000
000001FFC000
000001FFC000
000003FF8000
000003FF8000
000003FF8000
000003FF8000
000007FF0000
000007FF0000
000007FF0000
000007FF0000
00000FFE0000
00000FFE0000
00000FFE0000
00000FFE0000
00001FFC0000
00001FFC0000
00001FFC0000
00001FFC0000
00001FF80000
00003FF80000
00003FF80000
00003FF80000
00003FF80000
00007FF00000
00007FF00000
00007FF00000
00007FF00000
0000FFE00000
0000FFE00000
0000FFE00000
0000FFE00000
0001FFC00000
0001FFC00000
0001FFC00000
0001FFC00000
0003FF800000
3FFFFFFFF800
3FFFFFFFF800
3FFFFFFFF800
7FFFFFFFF000
7FFFFFFFF000
7FFFFFFFF000
7FFFFFFFF000
FFFFFFFFE000
FFFFFFFFE000
ENDCHAR
STARTCHAR 00D0
ENCODING 208
SWIDTH 495 0
DWIDTH 44 0
BBX 42 57 5 -1
BITMAP
000007C00000
0007FFFE0000
000FFFFF8000
000FFFFFE000
000FFFFFF000
001FFFFFF800
001FFFFFFC00
001FFFFFFE00
001FFFFFFE00
003FFFFFFF00
003FF81FFF00
003FF807FF80
003FF007FF80
007FF003FF80
007FF003FFC0
007FF001FFC0
007FF001FFC0
00FFE001FFC0
00FFE001FFC0
00FFE001FFC0
00FFE001FFC0
00FFC001FFC0
01FFC001FFC0
3FFFFE01FFC0
3FFFFE01FFC0
7FFFFE01FFC0
7FFFFE01FFC0
7FFFFC03FF80
7FFFFC03FF80
FFFFFC03FF80
FFFFFC03FF80
FFFFF803FF80
07FF0007FF80
07FE0007FF00
0FFE0007FF00
0FFE000FFF00
0FFE000FFE00
0FFC001FFE00
1FFC001FFE00
1FFC003FFC00
1FFC003FFC00
1FFC007FF800
1FF800FFF800
3FF801FFF000
3FF803FFF000
3FF807FFE000
3FF03FFFC000
7FFFFFFF8000
7FFFFFFF0000
7FFFFFFE0000
7FFFFFFC0000
FFFFFFF80000
FFFFFFE00000
FFFFFFC00000
FFFFFF000000
FFFFF8000000
00FF00000000
ENDCHAR
STARTCHAR 00D1
ENCODING 209
SWIDTH 495 0
DWIDTH 44 0
BBX 50 72 2 0
BITMAP
0000001F003000
0000007FE03C00
000001FFF8FF00
000003FFFFFF00
000003FFFFFE00
000007FFFFFE00
00000FFFFFFC00
00000FFFFFFC00
00001FFFFFF800
000007E1FFF000
000003C03FC000
00000080000000
00000000000000
00000000000000
00000000000000
00000000000000
00000000000000
0007FE0000FFC0
0007FE0000FFC0
0007FF0000FF80
0007FF0001FF80
000FFF0001FF80
000FFF8001FF80
000FFF8001FF00
000FFF8001FF00
001FFF8003FF00
001FFFC003FF00
001FFFC003FE00
001FFFC003FE00
003FFFE007FE00
003FFFE007FE00
003FFFE007FE00
003FFFE007FC00
003FEFF00FFC00
007FEFF00FFC00
007FEFF00FFC00
007FCFF00FF800
007FC7F81FF800
00FFC7F81FF800
00FFC7F81FF800
00FFC7F81FF000
00FF83FC3FF000
01FF83FC3FF000
01FF83FC3FF000
01FF83FC3FE000
01FF01FE3FE000
03FF01FE7FE000
03FF01FE7FE000
03FF01FE7FC000
03FE01FE7FC000
07FE00FFFFC000
07FE00FFFFC000
07FE00FFFFC000
07FC00FFFF8000
0FFC007FFF8000
0FFC007FFF8000
0FFC007FFF8000
0FF8007FFF0000
0FF8007FFF0000
1FF8003FFF0000
1FF8003FFF0000
1FF8003FFE0000
1FF0003FFE0000
3FF0003FFE0000
3FF0001FFE0000
3FF0001FFC0000
3FE0001FFC0000
7FE0001FFC0000
7FE0001FFC0000
7FE0001FF80000
7FC0000FF80000
FFC0000FF80000
ENDCHAR
STARTCHAR 00D2
ENCODING 210
SWIDTH 495 0
DWIDTH 44 0
BBX 42 74 6 0
BITMAP
000000E00000
000000F00000
000001FC0000
000003FE0000
000003FF0000
000007FFC000
00000FFFE000
00000FFFF000
000007FFFC00
000001FFFE00
0000007FFE00
0000001FFC00
00000007F800
00000001F800
000000007000
000000000000
000000000000
000007FF0000
00003FFFC000
0000FFFFF000
0001FFFFF800
0007FFFFFC00
000FFFFFFE00
001FFFFFFE00
003FFFFFFF00
007FFFFFFF00
007FFE1FFF80
00FFF807FF80
01FFF003FF80
01FFE003FFC0
03FFC001FFC0
03FF8001FFC0
07FF8001FFC0
07FF0001FFC0
0FFF0001FFC0
0FFE0001FFC0
0FFE0001FFC0
1FFC0001FFC0
1FFC0001FFC0
1FFC0001FFC0
3FF80001FFC0
3FF80001FF80
3FF80003FF80
7FF00003FF80
7FF00003FF80
7FF00003FF80
7FF00003FF80
7FF00007FF00
7FF00007FF00
FFE00007FF00
FFE00007FF00
FFE0000FFE00
FFE0000FFE00
FFE0000FFE00
FFE0001FFC00
FFE0001FFC00
FFE0003FFC00
FFE0003FF800
FFE0007FF800
FFE0007FF000
FFE000FFF000
FFF001FFE000
7FF003FFE000
7FF807FFC000
7FFE3FFF8000
3FFFFFFF8000
3FFFFFFF0000
1FFFFFFE0000
1FFFFFFC0000
0FFFFFF80000
07FFFFE00000
03FFFFC00000
00FFFF000000
003FF8000000
ENDCHAR
STARTCHAR 00D3
ENCODING 211
SWIDTH 495 0
DWIDTH 44 0
BBX 42 75 6 -1
BITMAP
000000004000
00000000C000
00000003E000
00000007F000
0000000FF000
0000003FF800
0000007FFC00
000000FFFC00
000003FFFE00
000007FFF800
00000FFFE000
00000FFF8000
000007FE0000
000007FC0000
000003F00000
000001C00000
000001000000
000000000000
000007FF0000
00003FFFC000
0000FFFFF000
0001FFFFF800
0007FFFFFC00
000FFFFFFE00
001FFFFFFE00
003FFFFFFF00
007FFFFFFF00
007FFE1FFF80
00FFF807FF80
01FFF003FF80
01FFE003FFC0
03FFC001FFC0
03FF8001FFC0
07FF8001FFC0
07FF0001FFC0
0FFF0001FFC0
0FFE0001FFC0
0FFE0001FFC0
1FFC0001FFC0
1FFC0001FFC0
1FFC0001FFC0
3FF80001FFC0
3FF80001FF80
3FF80003FF80
7FF00003FF80
7FF00003FF80
7FF00003FF80
7FF00003FF80
7FF00007FF00
7FF00007FF00
FFE00007FF00
FFE00007FF00
FFE0000FFE00
FFE0000FFE00
FFE0000FFE00
FFE0001FFC00
FFE0001FFC00
FFE0003FFC00
FFE0003FF800
FFE0007FF800
FFE0007FF000
FFE000FFF000
FFF001FFE000
7FF003FFE000
7FF807FFC000
7FFE3FFF8000
3FFFFFFF8000
3FFFFFFF0000
1FFFFFFE0000
1FFFFFFC0000
0FFFFFF80000
07FFFFE00000
03FFFFC00000
00FFFF000000
003FF8000000
ENDCHAR
STARTCHAR 00D4
ENCODING 212
SWIDTH 495 0
DWIDTH 44 0
BBX 42 75 6 -1
BITMAP
000000020000
000000070000
0000000F0000
0000003F8000
0000007FC000
000000FFE000
000001FFF000
000007FFF800
00000FFFF800
00001FFFFC00
00003FFFFE00
0000FFE3FF00
00007FC1FF00
00003F007E00
00001E003C00
000018001800
000000000000
000000000000
000007FF0000
00003FFFC000
0000FFFFF000
0001FFFFF800
0007FFFFFC00
000FFFFFFE00
001FFFFFFE00
003FFFFFFF00
007FFFFFFF00
007FFE1FFF80
00FFF807FF80
01FFF003FF80
01FFE003FFC0
03FFC001FFC0
03FF8001FFC0
07FF8001FFC0
07FF0001FFC0
0FFF0001FFC0
0FFE0001FFC0
0FFE0001FFC0
1FFC0001FFC0
1FFC0001FFC0
1FFC0001FFC0
3FF80001FFC0
3FF80001FF80
3FF80003FF80
7FF00003FF80
7FF00003FF80
7FF00003FF80
7FF00003FF80
7FF00007FF00
7FF00007FF00
FFE00007FF00
FFE00007FF00
FFE0000FFE00
FFE0000FFE00
FFE0000FFE00
FFE0001FFC00
FFE0001FFC00
FFE0003FFC00
FFE0003FF800
FFE0007FF800
FFE0007FF000
FFE000FFF000
FFF001FFE000
7FF003FFE000
7FF807FFC000
7FFE3FFF8000
3FFFFFFF8000
3FFFFFFF0000
1FFFFFFE0000
1FFFFFFC0000
0FFFFFF80000
07FFFFE00000
03FFFFC00000
00FFFF000000
003FF8000000
ENDCHAR
STARTCHAR 00D5
ENCODING 213
SWIDTH 495 0
DWIDTH 44 0
BBX 44 73 6 -1
BITMAP
000001F00100
000007FE03C0
00000FFF87F0
00001FFFFFF0
00003FFFFFF0
00007FFFFFE0
00007FFFFFE0
0000FFFFFFC0
0000FFFFFF80
00007E0FFF00
00001C03FC00
000008000000
000000000000
000000000000
000000000000
000000000000
000007FF0000
00003FFFC000
0000FFFFF000
0001FFFFF800
0007FFFFFC00
000FFFFFFE00
001FFFFFFE00
003FFFFFFF00
007FFFFFFF00
007FFE1FFF80
00FFF807FF80
01FFF003FF80
01FFE003FFC0
03FFC001FFC0
03FF8001FFC0
07FF8001FFC0
07FF0001FFC0
0FFF0001FFC0
0FFE0001FFC0
0FFE0001FFC0
1FFC0001FFC0
1FFC0001FFC0
1FFC0001FFC0
3FF80001FFC0
3FF80001FF80
3FF80003FF80
7FF00003FF80
7FF00003FF80
7FF00003FF80
7FF00003FF80
7FF00007FF00
7FF00007FF00
FFE00007FF00
FFE00007FF00
FFE0000FFE00
FFE0000FFE00
FFE0000FFE00
FFE0001FFC00
FFE0001FFC00
FFE0003FFC00
FFE0003FF800
FFE0007FF800
FFE0007FF000
FFE000FFF000
FFF001FFE000
7FF003FFE000
7FF807FFC000
7FFE3FFF8000
3FFFFFFF8000
3FFFFFFF0000
1FFFFFFE0000
1FFFFFFC0000
0FFFFFF80000
07FFFFE00000
03FFFFC00000
00FFFF000000
003FF8000000
ENDCHAR
STARTCHAR 00D6
ENCODING 214
SWIDTH 495 0
DWIDTH 44 0
BBX 44 73 6 -1
BITMAP
00001F000FC0
00007F801FE0
0000FFC03FF0
0000FFE07FF0
0001FFE07FF0
0001FFE07FF0
0001FFE07FF0
0001FFC07FF0
0001FFC07FE0
0000FF807FE0
00007F003FC0
00003C000E00
000000000000
000000000000
000000000000
000000000000
000007FF0000
00003FFFC000
0000FFFFF000
0001FFFFF800
0007FFFFFC00
000FFFFFFE00
001FFFFFFE00
003FFFFFFF00
007FFFFFFF00
007FFE1FFF80
00FFF807FF80
01FFF003FF80
01FFE003FFC0
03FFC001FFC0
03FF8001FFC0
07FF8001FFC0
07FF0001FFC0
0FFF0001FFC0
0FFE0001FFC0
0FFE0001FFC0
1FFC0001FFC0
1FFC0001FFC0
1FFC0001FFC0
3FF80001FFC0
3FF80001FF80
3FF80003FF80
7FF00003FF80
7FF00003FF80
7FF00003FF80
7FF00003FF80
7FF00007FF00
7FF00007FF00
FFE00007FF00
FFE00007FF00
FFE0000FFE00
FFE0000FFE00
FFE0000FFE00
FFE0001FFC00
FFE0001FFC00
FFE0003FFC00
FFE0003FF800
FFE0007FF800
FFE0007FF000
FFE000FFF000
FFF001FFE000
7FF003FFE000
7FF807FFC000
7FFE3FFF8000
3FFFFFFF8000
3FFFFFFF0000
1FFFFFFE0000
1FFFFFFC0000
0FFFFFF80000
07FFFFE00000
03FFFFC00000
00FFFF000000
003FF8000000
ENDCHAR
STARTCHAR 00D7
ENCODING 215
SWIDTH 495 0
DWIDTH 44 0
BBX 40 35 7 6
BITMAP
0018000030
003C000070
007C0001F8
01FE0003FC
03FF0007FE
07FF800FFE
07FF801FFF
03FFC07FFE
01FFE0FFFC
01FFF1FFF8
00FFF3FFE0
007FFFFFC0
003FFFFF80
003FFFFF00
001FFFFE00
000FFFF800
0007FFF000
0007FFE000
000FFFE000
003FFFE000
007FFFF000
00FFFFF800
01FFFFFC00
03FFFFFE00
0FFFDFFE00
1FFF8FFF00
3FFF0FFF80
7FFC07FFC0
FFF803FFC0
7FF001FFC0
7FE001FF80
3F8000FF00
1F00007C00
0E00003800
0400003000
ENDCHAR
STARTCHAR 00D8
ENCODING 216
SWIDTH 495 0
DWIDTH 44 0
BBX 44 62 5 -3
BITMAP
000000000700
0000000007C0
000003FF8FE0
00001FFFFFF0
00007FFFFFE0
0000FFFFFFE0
0003FFFFFFC0
0007FFFFFF80
000FFFFFFF80
001FFFFFFF80
003FFFFFFF80
003FFE07FFC0
007FFC07FFC0
00FFF007FFC0
00FFE00FFFE0
01FFE01FFFE0
01FFC01FFFE0
03FF803FFFE0
03FF807FFFE0
07FF007FFFE0
07FE00FFFFE0
07FE01FFFFE0
0FFE01FFFFE0
0FFC03FEFFE0
0FFC07FCFFE0
1FFC07FCFFE0
1FF80FF8FFC0
1FF81FF0FFC0
3FF81FF0FFC0
3FF83FE0FFC0
3FF07FC1FFC0
3FF07FC1FFC0
3FF0FF81FF80
3FF1FF01FF80
7FF1FF01FF80
7FF3FE03FF80
7FF7FC03FF00
7FF7FC03FF00
7FEFF807FF00
7FFFF007FE00
7FFFF00FFE00
7FFFE00FFE00
7FFFC01FFC00
7FFFC01FFC00
7FFF803FF800
7FFF007FF800
7FFF007FF000
3FFE00FFF000
3FFC01FFE000
3FFE07FFC000
1FFFFFFFC000
1FFFFFFF8000
1FFFFFFF0000
3FFFFFFE0000
3FFFFFFC0000
7FFFFFF00000
FFFFFFE00000
FF7FFF800000
FF1FFC000000
3E0000000000
0C0000000000
040000000000
ENDCHAR
STARTCHAR 00D9
ENCODING 217
SWIDTH 495 0
DWIDTH 44 0
BBX 45 75 6 -1
BITMAP
000004000000
000006000000
00000F800000
00001FC00000
00001FE00000
00003FF80000
00007FFC0000
00007FFE0000
0000FFFF8000
00003FFFC000
00000FFFE000
000003FFE000
000000FFC000
0000007FC000
0000001F8000
000000070000
000000010000
000000000000
000000000000
007FF0003FF8
007FF0003FF8
007FF0003FF8
00FFE0003FF8
00FFE0007FF0
00FFE0007FF0
00FFE0007FF0
01FFC0007FF0
01FFC000FFE0
01FFC000FFE0
01FFC000FFE0
03FF8000FFE0
03FF8001FFC0
03FF8001FFC0
03FF8001FFC0
07FF0001FFC0
07FF0003FF80
07FF0003FF80
07FF0003FF80
0FFE0003FF80
0FFE0007FF00
0FFE0007FF00
0FFE0007FF00
1FFE0007FF00
1FFC0007FE00
1FFC000FFE00
1FFC000FFE00
1FFC000FFE00
3FF8000FFE00
3FF8001FFC00
3FF8001FFC00
3FF8001FFC00
7FF0001FFC00
7FF0003FF800
7FF0003FF800
7FF0003FF800
FFE0003FF800
FFE0007FF000
FFE0007FF000
FFE0007FF000
FFE000FFE000
FFE000FFE000
FFE000FFE000
FFE001FFC000
FFF003FFC000
FFF007FFC000
FFFF3FFF8000
7FFFFFFF8000
7FFFFFFF0000
7FFFFFFE0000
3FFFFFFC0000
1FFFFFFC0000
0FFFFFF00000
07FFFFE00000
03FFFF800000
007FFC000000
ENDCHAR
STARTCHAR 00DA
ENCODING 218
SWIDTH 495 0
DWIDTH 44 0
BBX 45 75 6 -1
BITMAP
000000002000
000000006000
00000001F000
00000003F000
00000007F800
0000001FFC00
0000003FFC00
0000007FFE00
000001FFFF00
000003FFFC00
000007FFF000
000007FFC000
000003FF0000
000003FC0000
000001F00000
000000E00000
000000800000
000000000000
000000000000
007FF0003FF8
007FF0003FF8
007FF0003FF8
00FFE0003FF8
00FFE0007FF0
00FFE0007FF0
00FFE0007FF0
01FFC0007FF0
01FFC000FFE0
01FFC000FFE0
01FFC000FFE0
03FF8000FFE0
03FF8001FFC0
03FF8001FFC0
03FF8001FFC0
07FF0001FFC0
07FF0003FF80
07FF0003FF80
07FF0003FF80
0FFE0003FF80
0FFE0007FF00
0FFE0007FF00
0FFE0007FF00
1FFE0007FF00
1FFC0007FE00
1FFC000FFE00
1FFC000FFE00
1FFC000FFE00
3FF8000FFE00
3FF8001FFC00
3FF8001FFC00
3FF8001FFC00
7FF0001FFC00
7FF0003FF800
7FF0003FF800
7FF0003FF800
FFE0003FF800
FFE0007FF000
FFE0007FF000
FFE0007FF000
FFE000FFE000
FFE000FFE000
FFE000FFE000
FFE001FFC000
FFF003FFC000
FFF007FFC000
FFFF3FFF8000
7FFFFFFF8000
7FFFFFFF0000
7FFFFFFE0000
3FFFFFFC0000
1FFFFFFC0000
0FFFFFF00000
07FFFFE00000
03FFFF800000
007FFC000000
ENDCHAR
STARTCHAR 00DB
ENCODING 219
SWIDTH 495 0
DWIDTH 44 0
BBX 45 74 6 0
BITMAP
000000038000
00000007C000
0000000FE000
0000001FE000
0000007FF000
000000FFF800
000001FFFC00
000007FFFE00
00000FFFFF00
00001FFDFF00
00003FF0FF80
00001FE07F80
00001FC03F00
00000F001E00
000006000C00
000000000000
000000000000
000000000000
007FF0003FF8
007FF0003FF8
007FF0003FF8
00FFE0003FF8
00FFE0007FF0
00FFE0007FF0
00FFE0007FF0
01FFC0007FF0
01FFC000FFE0
01FFC000FFE0
01FFC000FFE0
03FF8000FFE0
03FF8001FFC0
03FF8001FFC0
03FF8001FFC0
07FF0001FFC0
07FF0003FF80
07FF0003FF80
07FF0003FF80
0FFE0003FF80
0FFE0007FF00
0FFE0007FF00
0FFE0007FF00
1FFE0007FF00
1FFC0007FE00
1FFC000FFE00
1FFC000FFE00
1FFC000FFE00
3FF8000FFE00
3FF8001FFC00
3FF8001FFC00
3FF8001FFC00
7FF0001FFC00
7FF0003FF800
7FF0003FF800
7FF0003FF800
FFE0003FF800
FFE0007FF000
FFE0007FF000
FFE0007FF000
FFE000FFE000
FFE000FFE000
FFE000FFE000
FFE001FFC000
FFF003FFC000
FFF007FFC000
FFFF3FFF8000
7FFFFFFF8000
7FFFFFFF0000
7FFFFFFE0000
3FFFFFFC0000
1FFFFFFC0000
0FFFFFF00000
07FFFFE00000
03FFFF800000
007FFC000000
ENDCHAR
STARTCHAR 00DC
ENCODING 220
SWIDTH 495 0
DWIDTH 44 0
BBX 45 73 6 -1
BITMAP
00001F8007C0
00003FC00FF0
00007FE01FF0
0000FFE03FF8
0000FFE03FF8
0000FFF07FF8
0000FFE07FF8
0000FFE07FF8
0000FFE03FF0
0000FFC03FE0
00007F801FC0
00001C000700
000000000000
000000000000
000000000000
000000000000
000000000000
007FF0003FF8
007FF0003FF8
007FF0003FF8
00FFE0003FF8
00FFE0007FF0
00FFE0007FF0
00FFE0007FF0
01FFC0007FF0
01FFC000FFE0
01FFC000FFE0
01FFC000FFE0
03FF8000FFE0
03FF8001FFC0
03FF8001FFC0
03FF8001FFC0
07FF0001FFC0
07FF0003FF80
07FF0003FF80
07FF0003FF80
0FFE0003FF80
0FFE0007FF00
0FFE0007FF00
0FFE0007FF00
1FFE0007FF00
1FFC0007FE00
1FFC000FFE00
1FFC000FFE00
1FFC000FFE00
3FF8000FFE00
3FF8001FFC00
3FF8001FFC00
3FF8001FFC00
7FF0001FFC00
7FF0003FF800
7FF0003FF800
7FF0003FF800
FFE0003FF800
FFE0007FF000
FFE0007FF000
FFE0007FF000
FFE000FFE000
FFE000FFE000
FFE000FFE000
FFE001FFC000
FFF003FFC000
FFF007FFC000
FFFF3FFF8000
7FFFFFFF8000
7FFFFFFF0000
7FFFFFFE0000
3FFFFFFC0000
1FFFFFFC0000
0FFFFFF00000
07FFFFE00000
03FFFF800000
007FFC000000
ENDCHAR
STARTCHAR 00DD
ENCODING 221
SWIDTH 495 0
DWIDTH 44 0
BBX 42 74 13 0
BITMAP
000000040000
0000000C0000
0000003E0000
0000007F0000
000000FF0000
000003FF8000
000007FFC000
00000FFFC000
00003FFFE000
00007FFF8000
0000FFFE0000
0000FFF80000
00007FF00000
00007FC00000
00003F000000
00001C000000
000010000000
000000000000
000000000000
FFC00003FFC0
FFC00007FF80
FFE00007FF00
FFE0000FFF00
FFE0000FFE00
FFE0001FFE00
7FE0003FFC00
7FE0003FF800
7FE0007FF800
7FF0007FF000
7FF000FFE000
7FF001FFE000
3FF001FFC000
3FF003FF8000
3FF007FF8000
3FF807FF0000
3FF80FFE0000
1FF80FFE0000
1FF81FFC0000
1FF83FF80000
1FFC3FF80000
0FFC7FF00000
0FFCFFE00000
0FFCFFC00000
0FFFFFC00000
07FFFF800000
07FFFF000000
07FFFE000000
07FFFE000000
03FFFC000000
03FFF8000000
03FFF0000000
01FFE0000000
01FFE0000000
01FFC0000000
01FFC0000000
01FFC0000000
03FF80000000
03FF80000000
03FF80000000
03FF80000000
07FF00000000
07FF00000000
07FF00000000
07FF00000000
0FFE00000000
0FFE00000000
0FFE00000000
0FFE00000000
0FFC00000000
1FFC00000000
1FFC00000000
1FFC00000000
1FFC00000000
3FF800000000
ENDCHAR
STARTCHAR 00DE
ENCODING 222
SWIDTH 495 0
DWIDTH 44 0
BBX 44 55 3 0
BITMAP
0007FF000000
0007FF000000
0007FF000000
0007FF000000
0007FE000000
000FFE000000
000FFE000000
000FFE000000
000FFFFF8000
001FFFFFF000
001FFFFFFC00
001FFFFFFE00
001FFFFFFF80
003FFFFFFF80
003FFFFFFFC0
003FFFFFFFE0
003FFFFFFFE0
007FF00FFFE0
007FF001FFF0
007FF000FFF0
007FF000FFF0
00FFE0007FF0
00FFE0007FF0
00FFE0007FF0
00FFE0007FF0
01FFC0007FF0
01FFC0007FF0
01FFC0007FF0
01FFC0007FF0
01FF8000FFE0
03FF8000FFE0
03FF8001FFE0
03FF8003FFC0
03FF000FFFC0
07FF003FFF80
07FFFFFFFF80
07FFFFFFFF00
07FFFFFFFE00
0FFFFFFFFC00
0FFFFFFFF000
0FFFFFFFE000
0FFFFFFF8000
1FFFFFFE0000
1FFFFFF00000
1FFFF8000000
1FFC00000000
3FF800000000
3FF800000000
3FF800000000
3FF800000000
7FF000000000
7FF000000000
7FF000000000
7FF000000000
FFE000000000
ENDCHAR
STARTCHAR 00DF
ENCODING 223
SWIDTH 495 0
DWIDTH 44 0
BBX 59 77 -11 -15
BITMAP
00000000000F0000
0000000007FFF000
000000001FFFFC00
000000007FFFFF00
00000000FFFFFF80
00000003FFFFFF80
00000007FFFFFFC0
00000007FFFFFFC0
0000000FFFFFFFE0
0000001FFFFFFFE0
0000001FFF01FFE0
0000003FFC00FFE0
0000003FFC00FFE0
0000007FF800FFE0
0000007FF000FFC0
0000007FF000FFC0
000000FFE000FFC0
000000FFE001FF80
000000FFE003FF80
000001FFC003FF00
000001FFC007FF00
000001FFC00FFE00
000001FFC01FFC00
000001FFC03FF800
000003FF807FF000
000003FF80FFE000
000003FF80FFC000
000003FF81FF8000
000003FF83FF0000
000007FF03FF0000
000007FF07FE0000
000007FF07FE0000
000007FF07FE0000
000007FF07FE0000
00000FFE07FF0000
00000FFE07FF8000
00000FFE07FFC000
00000FFE03FFE000
00001FFE03FFF000
00001FFC01FFF000
00001FFC00FFF800
00001FFC007FFC00
00001FFC003FFE00
00003FFC001FFE00
00003FF8000FFF00
00003FF8000FFF00
00003FF80007FF00
00003FF80007FF00
00007FF00007FF00
00007FF00007FF00
00007FF00007FF00
00007FF00007FF00
00007FF0400FFF00
0000FFE0783FFE00
0000FFE07FFFFE00
0000FFE0FFFFFE00
0000FFE0FFFFFC00
0000FFE1FFFFF800
0001FFC1FFFFF000
0001FFC3FFFFE000
0001FFC3FFFFC000
0001FFC0FFFF0000
0003FFC03FF80000
0003FF8000000000
0007FF8000000000
000FFF0000000000
183FFF0000000000
1FFFFF0000000000
3FFFFE0000000000
3FFFFC0000000000
3FFFFC0000000000
7FFFF80000000000
7FFFF00000000000
7FFFE00000000000
FFFFC00000000000
7FFF000000000000
0FF0000000000000
ENDCHAR
STARTCHAR 00E0
ENCODING 224
SWIDTH 495 0
DWIDTH 44 0
BBX 41 62 6 -1
BITMAP
000001000000
000003C00000
000007E00000
000007F00000
00000FFC0000
00001FFE0000
00001FFF0000
00003FFFC000
00001FFFE000
000007FFF000
000001FFF800
0000007FF000
0000003FF000
0000000FE000
00000003C000
00000000C000
000000000000
000000000000
000001F80000
00003FFFE000
0001FFFFFE00
0007FFFFFF80
000FFFFFFF00
003FFFFFFF00
007FFFFFFF00
00FFFFFFFF00
01FFFFFFFE00
03FFFFFFFE00
07FFE00FFE00
0FFFC00FFE00
0FFF000FFC00
1FFE001FFC00
1FFC001FFC00
3FFC001FFC00
3FF8001FF800
7FF8003FF800
7FF0003FF800
7FF0003FF800
FFE0003FF000
FFE0007FF000
FFE0007FF000
FFE0007FF000
FFE0007FF000
FFE000FFE000
FFE000FFE000
FFE000FFE000
FFE000FFE000
FFE000FFE000
FFE001FFC000
FFE001FFC000
FFF003FFC000
FFF807FFC000
FFFE3FFFE000
7FFFFFFFE000
7FFFFFFFE000
3FFFFFFFE000
3FFFFFFFE000
1FFFFFFFE000
0FFFFF7FF000
07FFFC3FF000
03FFF03FC000
007F80100000
ENDCHAR
STARTCHAR 00E1
ENCODING 225
SWIDTH 495 0
DWIDTH 44 0
BBX 41 62 6 -1
BITMAP
000000003000
000000007000
00000001F800
00000003FC00
00000007FC00
0000001FFE00
0000003FFF00
0000007FFF00
000001FFFF00
000003FFFC00
000007FFF000
000003FFC000
000001FF0000
000001FC0000
000000F00000
000000400000
000000000000
000000000000
000001F80000
00003FFFE000
0001FFFFFE00
0007FFFFFF80
000FFFFFFF00
003FFFFFFF00
007FFFFFFF00
00FFFFFFFF00
01FFFFFFFE00
03FFFFFFFE00
07FFE00FFE00
0FFFC00FFE00
0FFF000FFC00
1FFE001FFC00
1FFC001FFC00
3FFC001FFC00
3FF8001FF800
7FF8003FF800
7FF0003FF800
7FF0003FF800
FFE0003FF000
FFE0007FF000
FFE0007FF000
FFE0007FF000
FFE0007FF000
FFE000FFE000
FFE000FFE000
FFE000FFE000
FFE000FFE000
FFE000FFE000
FFE001FFC000
FFE001FFC000
FFF003FFC000
FFF807FFC000
FFFE3FFFE000
7FFFFFFFE000
7FFFFFFFE000
3FFFFFFFE000
3FFFFFFFE000
1FFFFFFFE000
0FFFFF7FF000
07FFFC3FF000
03FFF03FC000
007F80100000
ENDCHAR
STARTCHAR 00E2
ENCODING 226
SWIDTH 495 0
DWIDTH 44 0
BBX 41 62 6 -1
BITMAP
000000060000
0000000F0000
0000001F8000
0000007FC000
000000FFC000
000001FFE000
000003FFF000
00000FFFF800
00001FFFFC00
00003FFFFE00
00007FE3FE00
00007FC1FF00
00003F80FE00
00003E007C00
00001C003800
000000001000
000000000000
000000000000
000001F80000
00003FFFE000
0001FFFFFE00
0007FFFFFF80
000FFFFFFF00
003FFFFFFF00
007FFFFFFF00
00FFFFFFFF00
01FFFFFFFE00
03FFFFFFFE00
07FFE00FFE00
0FFFC00FFE00
0FFF000FFC00
1FFE001FFC00
1FFC001FFC00
3FFC001FFC00
3FF8001FF800
7FF8003FF800
7FF0003FF800
7FF0003FF800
FFE0003FF000
FFE0007FF000
FFE0007FF000
FFE0007FF000
FFE0007FF000
FFE000FFE000
FFE000FFE000
FFE000FFE000
FFE000FFE000
FFE000FFE000
FFE001FFC000
FFE001FFC000
FFF003FFC000
FFF807FFC000
FFFE3FFFE000
7FFFFFFFE000
7FFFFFFFE000
3FFFFFFFE000
3FFFFFFFE000
1FFFFFFFE000
0FFFFF7FF000
07FFFC3FF000
03FFF03FC000
007F80100000
ENDCHAR
STARTCHAR 00E3
ENCODING 227
SWIDTH 495 0
DWIDTH 44 0
BBX 43 61 6 -1
BITMAP
000000000200
000007F80700
00001FFE0FC0
00003FFFFFE0
00007FFFFFE0
0000FFFFFFC0
0000FFFFFFC0
0001FFFFFF80
0001FFFFFF00
0001FC3FFE00
0000780FFC00
00003001E000
000000000000
000000000000
000000000000
000000000000
000000000000
000001F80000
00003FFFE000
0001FFFFFE00
0007FFFFFF80
000FFFFFFF00
003FFFFFFF00
007FFFFFFF00
00FFFFFFFF00
01FFFFFFFE00
03FFFFFFFE00
07FFE00FFE00
0FFFC00FFE00
0FFF000FFC00
1FFE001FFC00
1FFC001FFC00
3FFC001FFC00
3FF8001FF800
7FF8003FF800
7FF0003FF800
7FF0003FF800
FFE0003FF000
FFE0007FF000
FFE0007FF000
FFE0007FF000
FFE0007FF000
FFE000FFE000
FFE000FFE000
FFE000FFE000
FFE000FFE000
FFE000FFE000
FFE001FFC000
FFE001FFC000
FFF003FFC000
FFF807FFC000
FFFE3FFFE000
7FFFFFFFE000
7FFFFFFFE000
3FFFFFFFE000
3FFFFFFFE000
1FFFFFFFE000
0FFFFF7FF000
07FFFC3FF000
03FFF03FC000
007F80100000
ENDCHAR
STARTCHAR 00E4
ENCODING 228
SWIDTH 495 0
DWIDTH 44 0
BBX 44 61 6 -1
BITMAP
00000E000380
00003F801FE0
00007FC03FF0
0000FFE03FF0
0001FFE07FF0
0001FFE07FF0
0001FFE07FF0
0001FFE07FF0
0001FFC07FF0
0000FF807FE0
0000FF803FC0
00003E001F80
000000000000
000000000000
000000000000
000000000000
000000000000
000001F80000
00003FFFE000
0001FFFFFE00
0007FFFFFF80
000FFFFFFF00
003FFFFFFF00
007FFFFFFF00
00FFFFFFFF00
01FFFFFFFE00
03FFFFFFFE00
07FFE00FFE00
0FFFC00FFE00
0FFF000FFC00
1FFE001FFC00
1FFC001FFC00
3FFC001FFC00
3FF8001FF800
7FF8003FF800
7FF0003FF800
7FF0003FF800
FFE0003FF000
FFE0007FF000
FFE0007FF000
FFE0007FF000
FFE0007FF000
FFE000FFE000
FFE000FFE000
FFE000FFE000
FFE000FFE000
FFE000FFE000
FFE001FFC000
FFE001FFC000
FFF003FFC000
FFF807FFC000
FFFE3FFFE000
7FFFFFFFE000
7FFFFFFFE000
3FFFFFFFE000
3FFFFFFFE000
1FFFFFFFE000
0FFFFF7FF000
07FFFC3FF000
03FFF03FC000
007F80100000
ENDCHAR
STARTCHAR 00E5
ENCODING 229
SWIDTH 495 0
DWIDTH 44 0
BBX 41 66 6 -1
BITMAP
0000000F0000
0000007FE000
000000FFF000
000001FFF800
000003FFFC00
000007FFFE00
000007F0FE00
000007E07E00
000007C07E00
000007C07E00
000007C07E00
000007E07E00
000007F0FE00
000007FFFE00
000003FFFC00
000001FFF800
000000FFF000
0000007FE000
000000060000
000000000000
000000000000
000000000000
000001F80000
00003FFFE000
0001FFFFFE00
0007FFFFFF80
000FFFFFFF00
003FFFFFFF00
007FFFFFFF00
00FFFFFFFF00
01FFFFFFFE00
03FFFFFFFE00
07FFE00FFE00
0FFFC00FFE00
0FFF000FFC00
1FFE001FFC00
1FFC001FFC00
3FFC001FFC00
3FF8001FF800
7FF8003FF800
7FF0003FF800
7FF0003FF800
FFE0003FF000
FFE0007FF000
FFE0007FF000
FFE0007FF000
FFE0007FF000
FFE000FFE000
FFE000FFE000
FFE000FFE000
FFE000FFE000
FFE000FFE000
FFE001FFC000
FFE001FFC000
FFF003FFC000
FFF807FFC000
FFFE3FFFE000
7FFFFFFFE000
7FFFFFFFE000
3FFFFFFFE000
3FFFFFFFE000
1FFFFFFFE000
0FFFFF7FF000
07FFFC3FF000
03FFF03FC000
007F80100000
ENDCHAR
STARTCHAR 00E6
ENCODING 230
SWIDTH 495 0
DWIDTH 44 0
BBX 45 44 3 -1
BITMAP
001FC0003E00
00FFF000FFC0
03FFFC03FFE0
07FFFE07FFF0
03FFFF0FFFF0
03FFFF1FFFF8
03FFFFBFFFF8
03FFFFBFFFF8
03E3FFFF87F8
03007FFF07F8
02003FFE03F8
00003FFC03F8
00001FFC07F8
00001FF807F8
00001FF807F8
00001FF007F8
00007FF00FF0
000FFFF01FF0
003FFFE03FE0
00FFFFE0FFE0
03FFFFE7FFC0
07FFFFFFFF80
0FFFFFFFFF00
1FFFBFFFFE00
1FF83FFFF800
3FE03FFFF000
7FC07FFF8000
7F807FFC0000
7F807FC00000
FF00FFC00000
FF00FFC00000
FF01FFC00000
FE01FFE00000
FE03FFE00000
FF07FFF00600
FF0FFFF81E00
FFFFEFFFFE00
FFFFEFFFFE00
FFFFC7FFFE00
7FFF87FFFE00
7FFF03FFFF00
3FFE01FFFF00
1FFC00FFFC00
07F0003FE000
ENDCHAR
STARTCHAR 00E7
ENCODING 231
SWIDTH 495 0
DWIDTH 44 0
BBX 40 58 7 -15
BITMAP
000001FF80
00001FFFF8
0000FFFFFF
0003FFFFFF
000FFFFFFE
003FFFFFFE
007FFFFFFC
00FFFFFFFC
01FFFFFFFC
03FFFFFFF8
07FFFC0038
0FFFE00000
0FFFC00000
1FFF000000
1FFE000000
3FFC000000
3FFC000000
7FF8000000
7FF0000000
7FF0000000
FFF0000000
FFE0000000
FFE0000000
FFE0000000
FFE0000000
FFE0000000
FFE0000000
FFE0000000
FFE0000000
FFE0000000
FFF0000000
FFF0000000
7FF8000000
7FFE000780
7FFFFFFF80
3FFFFFFF80
3FFFFFFF80
1FFFFFFF80
0FFFFFFF80
07FFFFFF80
03FFFFFF80
01FFFFFF80
007FFFFE00
0003FFC000
0003F80000
0007F80000
000FFE0000
0003FE0000
0000FF0000
0000FF0000
0000FF0000
0081FF0000
01FFFF0000
01FFFF0000
03FFFE0000
03FFFC0000
03FFF00000
007FC00000
ENDCHAR
STARTCHAR 00E8
ENCODING 232
SWIDTH 495 0
DWIDTH 44 0
BBX 39 62 7 -1
BITMAP
0000040000
00000F0000
00001F8000
00001FC000
00003FF000
00007FF800
00007FFC00
0000FFFF00
00007FFF80
00001FFFC0
000007FFE0
000001FFC0
000000FFC0
0000003F80
0000000F00
0000000300
0000000000
0000000000
000007F800
00007FFF80
0003FFFFE0
000FFFFFF0
001FFFFFF8
007FFFFFFC
00FFFFFFFC
01FFFFFFFE
03FFFFFFFE
07FFF01FFE
07FF800FFE
0FFF0007FE
1FFE0007FE
1FFC0007FE
3FF80007FE
3FF0000FFE
7FF0000FFE
7FE0003FFC
7FE000FFFC
7FE007FFF8
FFE7FFFFF0
FFFFFFFFE0
FFFFFFFFC0
FFFFFFFF80
FFFFFFFE00
FFFFFFF800
FFFFFF8000
FFFFF00000
FFC0000000
FFE0000000
FFE0000000
FFE0000000
FFF0000000
7FF8000100
7FFF001F80
7FFFFFFF80
3FFFFFFF80
1FFFFFFF80
1FFFFFFF80
0FFFFFFF80
03FFFFFF80
01FFFFFF00
007FFFFC00
0007FFC000
ENDCHAR
STARTCHAR 00E9
ENCODING 233
SWIDTH 495 0
DWIDTH 44 0
BBX 39 62 7 -1
BITMAP
0000000180
00000003C0
00000007C0
0000001FE0
0000003FF0
0000007FF0
000001FFF8
000003FFFC
00000FFFF8
00001FFFE0
00001FFF80
00001FFE00
00000FF800
000007E000
0000078000
0000020000
0000000000
0000000000
000007F800
00007FFF80
0003FFFFE0
000FFFFFF0
001FFFFFF8
007FFFFFFC
00FFFFFFFC
01FFFFFFFE
03FFFFFFFE
07FFF01FFE
07FF800FFE
0FFF0007FE
1FFE0007FE
1FFC0007FE
3FF80007FE
3FF0000FFE
7FF0000FFE
7FE0003FFC
7FE000FFFC
7FE007FFF8
FFE7FFFFF0
FFFFFFFFE0
FFFFFFFFC0
FFFFFFFF80
FFFFFFFE00
FFFFFFF800
FFFFFF8000
FFFFF00000
FFC0000000
FFE0000000
FFE0000000
FFE0000000
FFF0000000
7FF8000100
7FFF001F80
7FFFFFFF80
3FFFFFFF80
1FFFFFFF80
1FFFFFFF80
0FFFFFFF80
03FFFFFF80
01FFFFFF00
007FFFFC00
0007FFC000
ENDCHAR
STARTCHAR 00EA
ENCODING 234
SWIDTH 495 0
DWIDTH 44 0
BBX 39 62 7 -1
BITMAP
0000001800
0000003C00
0000007E00
000000FF00
000003FF80
000007FF80
00000FFFC0
00001FFFE0
00007FFFF0
0000FFFFF8
0001FFCFFC
0001FF07FC
0000FE03F8
0000F801F0
00007000E0
0000000040
0000000000
0000000000
000007F800
00007FFF80
0003FFFFE0
000FFFFFF0
001FFFFFF8
007FFFFFFC
00FFFFFFFC
01FFFFFFFE
03FFFFFFFE
07FFF01FFE
07FF800FFE
0FFF0007FE
1FFE0007FE
1FFC0007FE
3FF80007FE
3FF0000FFE
7FF0000FFE
7FE0003FFC
7FE000FFFC
7FE007FFF8
FFE7FFFFF0
FFFFFFFFE0
FFFFFFFFC0
FFFFFFFF80
FFFFFFFE00
FFFFFFF800
FFFFFF8000
FFFFF00000
FFC0000000
FFE0000000
FFE0000000
FFE0000000
FFF0000000
7FF8000100
7FFF001F80
7FFFFFFF80
3FFFFFFF80
1FFFFFFF80
1FFFFFFF80
0FFFFFFF80
03FFFFFF80
01FFFFFF00
007FFFFC00
0007FFC000
ENDCHAR
STARTCHAR 00EB
ENCODING 235
SWIDTH 495 0
DWIDTH 44 0
BBX 41 61 7 -1
BITMAP
0000F0003C00
0003FC00FE00
0007FE01FF00
000FFE03FF80
000FFE03FF80
000FFE07FF80
000FFE07FF80
000FFE07FF80
000FFE07FF00
000FFC03FF00
0007F803FE00
0003F000F800
000000000000
000000000000
000000000000
000000000000
000000000000
000007F80000
00007FFF8000
0003FFFFE000
000FFFFFF000
001FFFFFF800
007FFFFFFC00
00FFFFFFFC00
01FFFFFFFE00
03FFFFFFFE00
07FFF01FFE00
07FF800FFE00
0FFF0007FE00
1FFE0007FE00
1FFC0007FE00
3FF80007FE00
3FF0000FFE00
7FF0000FFE00
7FE0003FFC00
7FE000FFFC00
7FE007FFF800
FFE7FFFFF000
FFFFFFFFE000
FFFFFFFFC000
FFFFFFFF8000
FFFFFFFE0000
FFFFFFF80000
FFFFFF800000
FFFFF0000000
FFC000000000
FFE000000000
FFE000000000
FFE000000000
FFF000000000
7FF800010000
7FFF001F8000
7FFFFFFF8000
3FFFFFFF8000
1FFFFFFF8000
1FFFFFFF8000
0FFFFFFF8000
03FFFFFF8000
01FFFFFF0000
007FFFFC0000
0007FFC00000
ENDCHAR
STARTCHAR 00EC
ENCODING 236
SWIDTH 495 0
DWIDTH 44 0
BBX 31 62 10 -1
BITMAP
00060000
000F0000
000F8000
001FE000
003FF000
003FFC00
007FFE00
00FFFF00
007FFFC0
001FFFE0
0007FFE0
0001FFE0
00007FC0
00001F80
00000780
00000100
00000000
00000000
00000000
3FFFFF80
3FFFFF00
3FFFFF00
7FFFFF00
7FFFFF00
7FFFFE00
7FFFFE00
FFFFFE00
FFFFFE00
001FFC00
001FFC00
001FFC00
001FFC00
003FF800
003FF800
003FF800
003FF800
007FF800
007FF000
007FF000
007FF000
007FF000
00FFE000
00FFE000
00FFE000
00FFE000
01FFC000
01FFC000
01FFC000
01FFC000
01FFC000
01FFE000
01FFE006
01FFFFFE
01FFFFFE
01FFFFFE
00FFFFFE
00FFFFFE
007FFFFE
007FFFFE
001FFFFE
000FFFF8
0001FF80
ENDCHAR
STARTCHAR 00ED
ENCODING 237
SWIDTH 495 0
DWIDTH 44 0
BBX 31 62 10 -1
BITMAP
000000C0
000001E0
000003E0
00000FF0
00001FF8
00003FF8
0000FFFC
0001FFFE
0003FFFC
000FFFF0
000FFFC0
000FFF00
0007FC00
0003F000
0003C000
00018000
00000000
00000000
00000000
3FFFFF80
3FFFFF00
3FFFFF00
7FFFFF00
7FFFFF00
7FFFFE00
7FFFFE00
FFFFFE00
FFFFFE00
001FFC00
001FFC00
001FFC00
001FFC00
003FF800
003FF800
003FF800
003FF800
007FF800
007FF000
007FF000
007FF000
007FF000
00FFE000
00FFE000
00FFE000
00FFE000
01FFC000
01FFC000
01FFC000
01FFC000
01FFC000
01FFE000
01FFE006
01FFFFFE
01FFFFFE
01FFFFFE
00FFFFFE
00FFFFFE
007FFFFE
007FFFFE
001FFFFE
000FFFF8
0001FF80
ENDCHAR
STARTCHAR 00EE
ENCODING 238
SWIDTH 495 0
DWIDTH 44 0
BBX 31 62 10 -1
BITMAP
00000400
00001E00
00003F00
00007F80
0001FFC0
0003FFE0
0007FFE0
000FFFF0
003FFFF8
007FFFFC
00FFE7FE
00FF83FE
007F01FC
003C00F8
00380070
00000000
00000000
00000000
00000000
3FFFFF80
3FFFFF00
3FFFFF00
7FFFFF00
7FFFFF00
7FFFFE00
7FFFFE00
FFFFFE00
FFFFFE00
001FFC00
001FFC00
001FFC00
001FFC00
003FF800
003FF800
003FF800
003FF800
007FF800
007FF000
007FF000
007FF000
007FF000
00FFE000
00FFE000
00FFE000
00FFE000
01FFC000
01FFC000
01FFC000
01FFC000
01FFC000
01FFE000
01FFE006
01FFFFFE
01FFFFFE
01FFFFFE
00FFFFFE
00FFFFFE
007FFFFE
007FFFFE
001FFFFE
000FFFF8
0001FF80
ENDCHAR
STARTCHAR 00EF
ENCODING 239
SWIDTH 495 0
DWIDTH 44 0
BBX 35 61 10 -1
BITMAP
003C000F00
00FF003F80
01FF007FC0
03FF80FFE0
03FF81FFE0
03FF81FFE0
07FF81FFE0
07FF81FFE0
03FF81FFC0
03FF00FF80
01FE00FF80
00F8003E00
0000000000
0000000000
0000000000
0000000000
0000000000
0000000000
3FFFFF8000
3FFFFF0000
3FFFFF0000
7FFFFF0000
7FFFFF0000
7FFFFE0000
7FFFFE0000
FFFFFE0000
FFFFFE0000
001FFC0000
001FFC0000
001FFC0000
001FFC0000
003FF80000
003FF80000
003FF80000
003FF80000
007FF80000
007FF00000
007FF00000
007FF00000
007FF00000
00FFE00000
00FFE00000
00FFE00000
00FFE00000
01FFC00000
01FFC00000
01FFC00000
01FFC00000
01FFC00000
01FFE00000
01FFE00600
01FFFFFE00
01FFFFFE00
01FFFFFE00
00FFFFFE00
00FFFFFE00
007FFFFE00
007FFFFE00
001FFFFE00
000FFFF800
0001FF8000
ENDCHAR
STARTCHAR 00F0
ENCODING 240
SWIDTH 495 0
DWIDTH 44 0
BBX 46 62 6 0
BITMAP
000000700000
000000FC0000
000001FE0000
000007FF0000
00000FFF8008
000007FFC078
000003FFC3F8
000001FFFFF8
000000FFFFFC
0000007FFFFC
0000007FFFFC
000003FFFFF0
00001FFFFF80
00003FFFF800
00003FFFFC00
00003FFFFC00
00001FFFFC00
00001F8FFC00
0000180FFC00
00000007FC00
00000007FE00
00000007FE00
00000007FE00
00000007FE00
0003FFC7FE00
000FFFF7FE00
003FFFFFFE00
007FFFFFFE00
01FFFFFFFE00
03FFFFFFFE00
07FFFFFFFE00
0FFFFFFFFE00
0FFFE1FFFE00
1FFF003FFC00
1FFE001FFC00
3FFC001FFC00
3FF8001FFC00
7FF0001FFC00
7FF0003FFC00
7FF0003FF800
FFE0003FF800
FFE0003FF800
FFE0007FF800
FFC0007FF000
FFC000FFF000
FFC000FFF000
FFC001FFE000
FFC001FFE000
FFC003FFC000
FFE007FFC000
FFE00FFF8000
FFF01FFF8000
FFFCFFFF0000
7FFFFFFE0000
7FFFFFFC0000
3FFFFFFC0000
3FFFFFF80000
1FFFFFE00000
0FFFFFC00000
07FFFF000000
01FFFE000000
007FF0000000
ENDCHAR
STARTCHAR 00F1
ENCODING 241
SWIDTH 495 0
DWIDTH 44 0
BBX 43 60 4 0
BITMAP
000000000400
00000FF00F00
00003FFE1FC0
00007FFFFFE0
0000FFFFFFC0
0000FFFFFFC0
0001FFFFFF80
0001FFFFFF80
0003FFFFFF00
0001FC7FFE00
0000F81FF800
00003003E000
000000000000
000000000000
000000000000
000000000000
000000000000
000001F80000
0001FFFFC000
001FFFFFF000
007FFFFFF800
007FFFFFFC00
007FFFFFFC00
007FFFFFFE00
00FFFFFFFE00
00FFFFFFFF00
00FFFFFFFF00
00FFE01FFF00
01FFC00FFF00
01FFC007FF00
01FFC007FF00
01FFC007FF00
01FFC007FF00
03FF8007FF00
03FF8007FF00
03FF800FFF00
03FF800FFE00
07FF000FFE00
07FF000FFE00
07FF000FFE00
07FF001FFC00
0FFE001FFC00
0FFE001FFC00
0FFE001FFC00
0FFE003FF800
1FFC003FF800
1FFC003FF800
1FFC003FF800
1FFC007FF000
3FF8007FF000
3FF8007FF000
3FF8007FF000
3FF800FFE000
7FF000FFE000
7FF000FFE000
7FF000FFE000
7FF001FFC000
FFE001FFC000
FFE001FFC000
FFE001FFC000
ENDCHAR
STARTCHAR 00F2
ENCODING 242
SWIDTH 495 0
DWIDTH 44 0
BBX 39 62 6 -1
BITMAP
00000C0000
00001E0000
00001F8000
00003FC000
00007FE000
00007FF800
0000FFFC00
0001FFFE00
0000FFFF80
00003FFFC0
00000FFFC0
000003FFC0
000000FF80
0000003F00
0000000F00
0000000200
0000000000
0000000000
00000FF000
0000FFFE00
0003FFFF80
000FFFFFC0
001FFFFFE0
007FFFFFF0
00FFFFFFF8
01FFFFFFF8
01FFFFFFFC
03FFFFFFFC
07FFC07FFC
0FFF803FFE
0FFF001FFE
1FFE001FFE
1FFC000FFE
3FF8000FFE
3FF8000FFE
3FF0000FFE
7FF0000FFE
7FF0000FFE
7FE0000FFE
FFE0000FFC
FFE0001FFC
FFE0001FFC
FFE0001FFC
FFE0001FFC
FFE0003FF8
FFE0003FF8
FFE0007FF8
FFE0007FF0
FFE000FFF0
FFF001FFE0
FFF003FFE0
FFF807FFC0
7FFE3FFF80
7FFFFFFF80
7FFFFFFF00
3FFFFFFE00
3FFFFFFC00
1FFFFFF800
0FFFFFE000
07FFFFC000
01FFFE0000
007FF00000
ENDCHAR
STARTCHAR 00F3
ENCODING 243
SWIDTH 495 0
DWIDTH 44 0
BBX 39 62 6 -1
BITMAP
0000000300
0000000780
0000000FC0
0000003FC0
0000007FE0
000000FFF0
000003FFF0
000007FFF8
00000FFFF0
00003FFFC0
00003FFF00
00001FFC00
00001FF000
00000FC000
0000078000
0000060000
0000000000
0000000000
00000FF000
0000FFFE00
0003FFFF80
000FFFFFC0
001FFFFFE0
007FFFFFF0
00FFFFFFF8
01FFFFFFF8
01FFFFFFFC
03FFFFFFFC
07FFC07FFC
0FFF803FFE
0FFF001FFE
1FFE001FFE
1FFC000FFE
3FF8000FFE
3FF8000FFE
3FF0000FFE
7FF0000FFE
7FF0000FFE
7FE0000FFE
FFE0000FFC
FFE0001FFC
FFE0001FFC
FFE0001FFC
FFE0001FFC
FFE0003FF8
FFE0003FF8
FFE0007FF8
FFE0007FF0
FFE000FFF0
FFF001FFE0
FFF003FFE0
FFF807FFC0
7FFE3FFF80
7FFFFFFF80
7FFFFFFF00
3FFFFFFE00
3FFFFFFC00
1FFFFFF800
0FFFFFE000
07FFFFC000
01FFFE0000
007FF00000
ENDCHAR
STARTCHAR 00F4
ENCODING 244
SWIDTH 495 0
DWIDTH 44 0
BBX 39 62 6 -1
BITMAP
0000000C00
0000003C00
0000007E00
000000FF00
000003FF80
000007FFC0
00000FFFC0
00001FFFE0
00007FFFF0
0000FFFFF8
0001FFCFFC
0001FF07FC
0000FE03F8
00007801F0
00007000E0
0000000000
0000000000
0000000000
00000FF000
0000FFFE00
0003FFFF80
000FFFFFC0
001FFFFFE0
007FFFFFF0
00FFFFFFF8
01FFFFFFF8
01FFFFFFFC
03FFFFFFFC
07FFC07FFC
0FFF803FFE
0FFF001FFE
1FFE001FFE
1FFC000FFE
3FF8000FFE
3FF8000FFE
3FF0000FFE
7FF0000FFE
7FF0000FFE
7FE0000FFE
FFE0000FFC
FFE0001FFC
FFE0001FFC
FFE0001FFC
FFE0001FFC
FFE0003FF8
FFE0003FF8
FFE0007FF8
FFE0007FF0
FFE000FFF0
FFF001FFE0
FFF003FFE0
FFF807FFC0
7FFE3FFF80
7FFFFFFF80
7FFFFFFF00
3FFFFFFE00
3FFFFFFC00
1FFFFFF800
0FFFFFE000
07FFFFC000
01FFFE0000
007FF00000
ENDCHAR
STARTCHAR 00F5
ENCODING 245
SWIDTH 495 0
DWIDTH 44 0
BBX 41 61 6 -1
BITMAP
000000001000
00003FC03C00
0000FFF87F00
0001FFFFFF80
0003FFFFFF00
0003FFFFFF00
0007FFFFFE00
0007FFFFFE00
000FFFFFFC00
0007F1FFF800
0003E07FE000
0000C00F8000
000000000000
000000000000
000000000000
000000000000
000000000000
00000FF00000
0000FFFE0000
0003FFFF8000
000FFFFFC000
001FFFFFE000
007FFFFFF000
00FFFFFFF800
01FFFFFFF800
01FFFFFFFC00
03FFFFFFFC00
07FFC07FFC00
0FFF803FFE00
0FFF001FFE00
1FFE001FFE00
1FFC000FFE00
3FF8000FFE00
3FF8000FFE00
3FF0000FFE00
7FF0000FFE00
7FF0000FFE00
7FE0000FFE00
FFE0000FFC00
FFE0001FFC00
FFE0001FFC00
FFE0001FFC00
FFE0001FFC00
FFE0003FF800
FFE0003FF800
FFE0007FF800
FFE0007FF000
FFE000FFF000
FFF001FFE000
FFF003FFE000
FFF807FFC000
7FFE3FFF8000
7FFFFFFF8000
7FFFFFFF0000
3FFFFFFE0000
3FFFFFFC0000
1FFFFFF80000
0FFFFFE00000
07FFFFC00000
01FFFE000000
007FF0000000
ENDCHAR
STARTCHAR 00F6
ENCODING 246
SWIDTH 495 0
DWIDTH 44 0
BBX 42 61 6 -1
BITMAP
000078001E00
0001FE007F00
0003FE00FF80
0007FF01FFC0
0007FF03FFC0
0007FF03FFC0
000FFF03FFC0
000FFF03FFC0
0007FF03FF80
0007FE01FF00
0003FC01FF00
0001F8007C00
000000000000
000000000000
000000000000
000000000000
000000000000
00000FF00000
0000FFFE0000
0003FFFF8000
000FFFFFC000
001FFFFFE000
007FFFFFF000
00FFFFFFF800
01FFFFFFF800
01FFFFFFFC00
03FFFFFFFC00
07FFC07FFC00
0FFF803FFE00
0FFF001FFE00
1FFE001FFE00
1FFC000FFE00
3FF8000FFE00
3FF8000FFE00
3FF0000FFE00
7FF0000FFE00
7FF0000FFE00
7FE0000FFE00
FFE0000FFC00
FFE0001FFC00
FFE0001FFC00
FFE0001FFC00
FFE0001FFC00
FFE0003FF800
FFE0003FF800
FFE0007FF800
FFE0007FF000
FFE000FFF000
FFF001FFE000
FFF003FFE000
FFF807FFC000
7FFE3FFF8000
7FFFFFFF8000
7FFFFFFF0000
3FFFFFFE0000
3FFFFFFC0000
1FFFFFF80000
0FFFFFE00000
07FFFFC00000
01FFFE000000
007FF0000000
ENDCHAR
STARTCHAR 00F7
ENCODING 247
SWIDTH 495 0
DWIDTH 44 0
BBX 40 45 7 1
BITMAP
000003E000
00000FF800
00001FF800
00003FFC00
00003FFC00
00007FFC00
00007FFC00
00007FFC00
00007FFC00
00007FF800
00003FF800
00001FE000
00000FC000
0000000000
0000000000
0000000000
0000000000
0000000000
3FFFFFFFFF
3FFFFFFFFE
3FFFFFFFFE
3FFFFFFFFE
7FFFFFFFFE
7FFFFFFFFC
7FFFFFFFFC
7FFFFFFFFC
FFFFFFFFFC
0000000000
0000000000
0000000000
0000000000
0000000000
0001C00000
000FF00000
001FF80000
003FFC0000
003FFC0000
007FFC0000
007FFC0000
007FFC0000
007FFC0000
007FF80000
003FF80000
003FF00000
001FE00000
ENDCHAR
STARTCHAR 00F8
ENCODING 248
SWIDTH 495 0
DWIDTH 44 0
BBX 43 49 6 -3
BITMAP
000000000600
000000000F00
000003FC1F80
00003FFFBFE0
0000FFFFFFC0
0003FFFFFF80
0007FFFFFF00
000FFFFFFF00
003FFFFFFE00
003FFFFFFE00
007FFFFFFF00
00FFFC1FFF00
01FFE01FFF00
03FFC03FFF80
03FF803FFF80
07FF007FFF80
07FF00FFFF80
0FFE01FFFF80
0FFC03FFFF80
0FFC07FDFF80
1FFC0FFBFF80
1FF81FF3FF80
1FF83FE3FF80
3FF87FC3FF80
3FF8FFC3FF00
3FF8FF83FF00
3FF1FF03FF00
3FF3FE07FF00
3FF7FC07FE00
3FFFF807FE00
3FFFF00FFE00
3FFFE00FFC00
3FFFC01FFC00
3FFFC03FF800
3FFF807FF800
3FFF00FFF000
1FFF03FFE000
1FFFFFFFE000
1FFFFFFFC000
0FFFFFFF8000
0FFFFFFF0000
1FFFFFFE0000
3FFFFFF80000
7FFFFFF00000
FFFFFFC00000
7F0FFE000000
3F0000000000
0E0000000000
040000000000
ENDCHAR
STARTCHAR 00F9
ENCODING 249
SWIDTH 495 0
DWIDTH 44 0
BBX 40 62 7 -1
BITMAP
0000200000
0000780000
0000FC0000
0000FE0000
0001FF8000
0003FFC000
0003FFE000
0007FFF800
0003FFFC00
0000FFFE00
00003FFF00
00000FFE00
000007FE00
000001FC00
0000007800
0000001800
0000000000
0000000000
0000000000
03FF8007FF
03FF800FFE
07FF000FFE
07FF000FFE
07FF000FFE
07FF001FFC
0FFE001FFC
0FFE001FFC
0FFE001FFC
0FFE001FF8
1FFC003FF8
1FFC003FF8
1FFC003FF8
1FFC003FF0
1FFC007FF0
3FF8007FF0
3FF8007FF0
3FF8007FF0
3FF800FFE0
7FF000FFE0
7FF000FFE0
7FF000FFE0
7FF001FFC0
FFE001FFC0
FFE001FFC0
FFE001FFC0
FFE003FF80
FFE003FF80
FFE003FF80
FFE003FF80
FFE007FF80
FFE00FFF80
FFF01FFF80
FFFFFFFF80
FFFFFFFF80
FFFFFFFF80
7FFFFFFF80
7FFFFFFFC0
3FFFFFFFC0
3FFFFCFFC0
1FFFF8FFE0
07FFE07F00
00FF804000
ENDCHAR
STARTCHAR 00FA
ENCODING 250
SWIDTH 495 0
DWIDTH 44 0
BBX 40 62 7 -1
BITMAP
0000000600
0000000E00
0000003F00
0000007F80
000000FF80
000003FFC0
000007FFE0
00000FFFE0
00003FFFE0
00007FFF80
0000FFFE00
00007FF800
00003FE000
00003F8000
00001E0000
0000080000
0000000000
0000000000
0000000000
03FF8007FF
03FF800FFE
07FF000FFE
07FF000FFE
07FF000FFE
07FF001FFC
0FFE001FFC
0FFE001FFC
0FFE001FFC
0FFE001FF8
1FFC003FF8
1FFC003FF8
1FFC003FF8
1FFC003FF0
1FFC007FF0
3FF8007FF0
3FF8007FF0
3FF8007FF0
3FF800FFE0
7FF000FFE0
7FF000FFE0
7FF000FFE0
7FF001FFC0
FFE001FFC0
FFE001FFC0
FFE001FFC0
FFE003FF80
FFE003FF80
FFE003FF80
FFE003FF80
FFE007FF80
FFE00FFF80
FFF01FFF80
FFFFFFFF80
FFFFFFFF80
FFFFFFFF80
7FFFFFFF80
7FFFFFFFC0
3FFFFFFFC0
3FFFFCFFC0
1FFFF8FFE0
07FFE07F00
00FF804000
ENDCHAR
STARTCHAR 00FB
ENCODING 251
SWIDTH 495 0
DWIDTH 44 0
BBX 40 62 7 -1
BITMAP
0000003000
0000007800
000001FC00
000003FC00
000007FE00
00000FFF00
00003FFF80
00007FFFC0
0000FFFFC0
0001FFFFE0
0007FF1FF0
0007FE0FF8
0003F807F0
0001F003E0
0000C001C0
0000800000
0000000000
0000000000
0000000000
03FF8007FF
03FF800FFE
07FF000FFE
07FF000FFE
07FF000FFE
07FF001FFC
0FFE001FFC
0FFE001FFC
0FFE001FFC
0FFE001FF8
1FFC003FF8
1FFC003FF8
1FFC003FF8
1FFC003FF0
1FFC007FF0
3FF8007FF0
3FF8007FF0
3FF8007FF0
3FF800FFE0
7FF000FFE0
7FF000FFE0
7FF000FFE0
7FF001FFC0
FFE001FFC0
FFE001FFC0
FFE001FFC0
FFE003FF80
FFE003FF80
FFE003FF80
FFE003FF80
FFE007FF80
FFE00FFF80
FFF01FFF80
FFFFFFFF80
FFFFFFFF80
FFFFFFFF80
7FFFFFFF80
7FFFFFFFC0
3FFFFFFFC0
3FFFFCFFC0
1FFFF8FFE0
07FFE07F00
00FF804000
ENDCHAR
STARTCHAR 00FC
ENCODING 252
SWIDTH 495 0
DWIDTH 44 0
BBX 40 61 7 -1
BITMAP
0001C00070
0007F003FC
000FF807FE
001FFC07FE
003FFC0FFE
003FFC0FFE
003FFC0FFE
003FFC0FFE
003FF80FFE
001FF00FFC
001FF007F8
0007C003F0
0000000000
0000000000
0000000000
0000000000
0000000000
0000000000
03FF8007FF
03FF800FFE
07FF000FFE
07FF000FFE
07FF000FFE
07FF001FFC
0FFE001FFC
0FFE001FFC
0FFE001FFC
0FFE001FF8
1FFC003FF8
1FFC003FF8
1FFC003FF8
1FFC003FF0
1FFC007FF0
3FF8007FF0
3FF8007FF0
3FF8007FF0
3FF800FFE0
7FF000FFE0
7FF000FFE0
7FF000FFE0
7FF001FFC0
FFE001FFC0
FFE001FFC0
FFE001FFC0
FFE003FF80
FFE003FF80
FFE003FF80
FFE003FF80
FFE007FF80
FFE00FFF80
FFF01FFF80
FFFFFFFF80
FFFFFFFF80
FFFFFFFF80
7FFFFFFF80
7FFFFFFFC0
3FFFFFFFC0
3FFFFCFFC0
1FFFF8FFE0
07FFE07F00
00FF804000
ENDCHAR
STARTCHAR 00FD
ENCODING 253
SWIDTH 495 0
DWIDTH 44 0
BBX 53 76 -4 -15
BITMAP
0000000000C000
0000000003C000
0000000007E000
000000000FF000
000000003FF000
000000007FF800
00000000FFFC00
00000003FFFC00
00000007FFF800
0000000FFFF000
0000001FFFC000
0000000FFF0000
00000007FC0000
00000007F00000
00000003C00000
00000001000000
00000000000000
00000000000000
00000000000000
0003FF80007FF8
0003FF80007FF0
0003FF8000FFF0
0003FFC000FFF0
0003FFC000FFE0
0003FFC001FFE0
0003FFC001FFC0
0001FFC001FFC0
0001FFC003FFC0
0001FFC003FF80
0001FFC003FF80
0001FFC007FF00
0001FFC007FF00
0001FFC007FE00
0001FFC00FFE00
0001FFC00FFE00
0001FFC01FFC00
0000FFE01FFC00
0000FFE03FF800
0000FFE03FF800
0000FFE07FF000
0000FFE07FF000
0000FFE0FFE000
00007FE0FFE000
00007FE1FFC000
00007FF1FFC000
00007FF3FF8000
00007FF3FF8000
00007FF7FF0000
00003FFFFE0000
00003FFFFE0000
00003FFFFC0000
00003FFFFC0000
00003FFFF80000
00001FFFF00000
00001FFFF00000
00001FFFE00000
00001FFFC00000
00000FFFC00000
00000FFF800000
00000FFF000000
00000FFE000000
00001FFE000000
00003FFC000000
00007FF8000000
0000FFF0000000
0003FFF0000000
1FBFFFE0000000
1FFFFFC0000000
3FFFFF80000000
3FFFFF00000000
3FFFFE00000000
7FFFF800000000
7FFFF000000000
FFFFC000000000
7FFF0000000000
0FF80000000000
ENDCHAR
STARTCHAR 00FE
ENCODING 254
SWIDTH 495 0
DWIDTH 44 0
BBX 45 77 0 -15
BITMAP
000000080000
000003F80000
00003FF80000
00007FF00000
00007FF00000
00007FF00000
00007FF00000
0000FFE00000
0000FFE00000
0000FFE00000
0000FFE00000
0000FFC00000
0001FFC00000
0001FFC00000
0001FFC00000
0001FF800000
0003FF800000
0003FF800000
0003FF800000
0003FF878000
0007FFFFF800
0007FFFFFE00
0007FFFFFF00
0007FFFFFF80
000FFFFFFFC0
000FFFFFFFE0
000FFFFFFFE0
000FFFFFFFF0
001FFFFFFFF0
001FFC00FFF0
001FFC007FF8
001FFC003FF8
003FF8003FF8
003FF8003FF8
003FF8003FF8
003FF8003FF8
007FF0003FF8
007FF0003FF8
007FF0003FF8
007FF0003FF8
007FF0003FF0
00FFE0007FF0
00FFE0007FF0
00FFE0007FF0
00FFE000FFF0
01FFC000FFE0
01FFC001FFE0
01FFC001FFE0
01FFC003FFC0
03FF8007FFC0
03FF800FFF80
03FF803FFF80
03FF80FFFF00
07FFFFFFFE00
07FFFFFFFC00
07FFFFFFF800
07FFFFFFF000
0FFFFFFFE000
0FFFFFFFC000
0FFFFFFF0000
0FFFFFFC0000
1FFFFFF00000
1FFFFF000000
1FFC00000000
1FFC00000000
1FFC00000000
3FF800000000
3FF800000000
3FF800000000
3FF800000000
7FF000000000
7FF000000000
7FF000000000
7FF000000000
FFE000000000
FFE000000000
FFE000000000
ENDCHAR
STARTCHAR 00FF
ENCODING 255
SWIDTH 495 0
DWIDTH 44 0
BBX 53 75 -4 -15
BITMAP
00000038001E00
000000FE007F80
000001FF00FFC0
000003FF01FFC0
000007FF81FFC0
000007FF81FFC0
000007FF81FFC0
000007FF01FFC0
000007FF01FFC0
000003FE01FF80
000003FC00FF00
000000F8007E00
00000000000000
00000000000000
00000000000000
00000000000000
00000000000000
00000000000000
0003FF80007FF8
0003FF80007FF0
0003FF8000FFF0
0003FFC000FFF0
0003FFC000FFE0
0003FFC001FFE0
0003FFC001FFC0
0001FFC001FFC0
0001FFC003FFC0
0001FFC003FF80
0001FFC003FF80
0001FFC007FF00
0001FFC007FF00
0001FFC007FE00
0001FFC00FFE00
0001FFC00FFE00
0001FFC01FFC00
0000FFE01FFC00
0000FFE03FF800
0000FFE03FF800
0000FFE07FF000
0000FFE07FF000
0000FFE0FFE000
00007FE0FFE000
00007FE1FFC000
00007FF1FFC000
00007FF3FF8000
00007FF3FF8000
00007FF7FF0000
00003FFFFE0000
00003FFFFE0000
00003FFFFC0000
00003FFFFC0000
00003FFFF80000
00001FFFF00000
00001FFFF00000
00001FFFE00000
00001FFFC00000
00000FFFC00000
00000FFF800000
00000FFF000000
00000FFE000000
00001FFE000000
00003FFC000000
00007FF8000000
0000FFF0000000
0003FFF0000000
1FBFFFE0000000
1FFFFFC0000000
3FFFFF80000000
3FFFFF00000000
3FFFFE00000000
7FFFF800000000
7FFFF000000000
FFFFC000000000
7FFF0000000000
0FF80000000000
ENDCHAR
STARTCHAR 0100
ENCODING 256
SWIDTH 495 0
DWIDTH 44 0
BBX 50 70 0 0
BITMAP
000000FFFFFFC0
000000FFFFFF80
000000FFFFFF80
000001FFFFFF80
000001FFFFFF80
000001FFFFFF00
000001FFFFFF00
000003FFFFFF00
00000000000000
00000000000000
00000000000000
00000000000000
00000000000000
00000000000000
00000000000000
0000001FFE0000
0000001FFF0000
0000003FFF0000
0000003FFF0000
0000007FFF0000
000000FFFF0000
000000FFFF0000
000001FFFF0000
000001FFFF0000
000003FFFF0000
000003FFFF0000
000007FFFF8000
00000FFDFF8000
00000FFDFF8000
00001FF9FF8000
00001FF8FF8000
00003FF0FF8000
00003FF0FF8000
00007FE0FF8000
00007FE0FF8000
0000FFC0FF8000
0000FFC0FF8000
0001FF80FF8000
0001FF80FF8000
0003FF00FFC000
0003FF00FFC000
0007FE00FFC000
0007FE00FFC000
000FFC00FFC000
000FFC00FFC000
001FF800FFC000
001FF800FFC000
003FF000FFC000
003FFFFFFFC000
007FFFFFFFC000
007FFFFFFFC000
00FFFFFFFFC000
00FFFFFFFFC000
01FFFFFFFFC000
01FFFFFFFFC000
03FFFFFFFFC000
03FFFFFFFFC000
07FF0000FFC000
07FE0000FFC000
0FFE0000FFC000
0FFE0000FFC000
1FFC0000FFC000
1FFC0001FFC000
3FF80001FFC000
3FF80001FFC000
3FF00001FFC000
7FF00001FFC000
7FF00001FFC000
FFE00001FFC000
FFE00001FFC000
ENDCHAR
STARTCHAR 0101
ENCODING 257
SWIDTH 495 0
DWIDTH 44 0
BBX 44 59 6 -1
BITMAP
00003FFFFFF0
00003FFFFFE0
00003FFFFFE0
00007FFFFFE0
00007FFFFFE0
00007FFFFFE0
00007FFFFFC0
0000FFFFFFC0
000000000000
000000000000
000000000000
000000000000
000000000000
000000000000
000000000000
000001F80000
00003FFFE000
0001FFFFFE00
0007FFFFFF80
000FFFFFFF00
003FFFFFFF00
007FFFFFFF00
00FFFFFFFF00
01FFFFFFFE00
03FFFFFFFE00
07FFE00FFE00
0FFFC00FFE00
0FFF000FFC00
1FFE001FFC00
1FFC001FFC00
3FFC001FFC00
3FF8001FF800
7FF8003FF800
7FF0003FF800
7FF0003FF800
FFE0003FF000
FFE0007FF000
FFE0007FF000
FFE0007FF000
FFE0007FF000
FFE000FFE000
FFE000FFE000
FFE000FFE000
FFE000FFE000
FFE000FFE000
FFE001FFC000
FFE001FFC000
FFF003FFC000
FFF807FFC000
FFFE3FFFE000
7FFFFFFFE000
7FFFFFFFE000
3FFFFFFFE000
3FFFFFFFE000
1FFFFFFFE000
0FFFFF7FF000
07FFFC3FF000
03FFF03FC000
007F80100000
ENDCHAR
STARTCHAR 0102
ENCODING 258
SWIDTH 495 0
DWIDTH 44 0
BBX 50 73 0 0
BITMAP
0000007F803FC0
0000007F803FC0
0000007F807FC0
0000007F807F80
0000007FC0FF80
0000007FF7FF80
0000007FFFFF00
0000003FFFFE00
0000003FFFFC00
0000001FFFFC00
0000000FFFF000
00000007FFE000
00000001FF0000
00000000000000
00000000000000
00000000000000
00000000000000
00000000000000
0000001FFE0000
0000001FFF0000
0000003FFF0000
0000003FFF0000
0000007FFF0000
000000FFFF0000
000000FFFF0000
000001FFFF0000
000001FFFF0000
000003FFFF0000
000003FFFF0000
000007FFFF8000
00000FFDFF8000
00000FFDFF8000
00001FF9FF8000
00001FF8FF8000
00003FF0FF8000
00003FF0FF8000
00007FE0FF8000
00007FE0FF8000
0000FFC0FF8000
0000FFC0FF8000
0001FF80FF8000
0001FF80FF8000
0003FF00FFC000
0003FF00FFC000
0007FE00FFC000
0007FE00FFC000
000FFC00FFC000
000FFC00FFC000
001FF800FFC000
001FF800FFC000
003FF000FFC000
003FFFFFFFC000
007FFFFFFFC000
007FFFFFFFC000
00FFFFFFFFC000
00FFFFFFFFC000
01FFFFFFFFC000
01FFFFFFFFC000
03FFFFFFFFC000
03FFFFFFFFC000
07FF0000FFC000
07FE0000FFC000
0FFE0000FFC000
0FFE0000FFC000
1FFC0000FFC000
1FFC0001FFC000
3FF80001FFC000
3FF80001FFC000
3FF00001FFC000
7FF00001FFC000
7FF00001FFC000
FFE00001FFC000
FFE00001FFC000
ENDCHAR
STARTCHAR 0103
ENCODING 259
SWIDTH 495 0
DWIDTH 44 0
BBX 43 62 6 -1
BITMAP
00003FC03FE0
00007F803FC0
00007F803FC0
00007FC07FC0
00007FC07FC0
00003FE1FF80
00003FFFFF80
00003FFFFF00
00001FFFFE00
00001FFFFC00
00000FFFF800
000007FFF000
000001FFC000
000000080000
000000000000
000000000000
000000000000
000000000000
000001F80000
00003FFFE000
0001FFFFFE00
0007FFFFFF80
000FFFFFFF00
003FFFFFFF00
007FFFFFFF00
00FFFFFFFF00
01FFFFFFFE00
03FFFFFFFE00
07FFE00FFE00
0FFFC00FFE00
0FFF000FFC00
1FFE001FFC00
1FFC001FFC00
3FFC001FFC00
3FF8001FF800
7FF8003FF800
7FF0003FF800
7FF0003FF800
FFE0003FF000
FFE0007FF000
FFE0007FF000
FFE0007FF000
FFE0007FF000
FFE000FFE000
FFE000FFE000
FFE000FFE000
FFE000FFE000
FFE000FFE000
FFE001FFC000
FFE001FFC000
FFF003FFC000
FFF807FFC000
FFFE3FFFE000
7FFFFFFFE000
7FFFFFFFE000
3FFFFFFFE000
3FFFFFFFE000
1FFFFFFFE000
0FFFFF7FF000
07FFFC3FF000
03FFF03FC000
007F80100000
ENDCHAR
STARTCHAR 0104
ENCODING 260
SWIDTH 495 0
DWIDTH 44 0
BBX 42 70 1 -15
BITMAP
0000001FFE00
0000001FFF00
0000003FFF00
0000003FFF00
0000007FFF00
000000FFFF00
000000FFFF00
000001FFFF00
000001FFFF00
000003FFFF00
000003FFFF80
000007FFFF80
000007FDFF80
00000FFCFF80
00001FF8FF80
00001FF8FF80
00003FF0FF80
00003FF0FF80
00007FE0FF80
00007FE0FF80
0000FFC0FF80
0000FFC0FF80
0001FF80FF80
0001FF80FFC0
0003FF00FFC0
0003FF00FFC0
0007FE00FFC0
0007FE00FFC0
000FFC00FFC0
000FFC00FFC0
001FF800FFC0
001FF800FFC0
003FF800FFC0
003FFFFFFFC0
007FFFFFFFC0
007FFFFFFFC0
00FFFFFFFFC0
00FFFFFFFFC0
01FFFFFFFFC0
01FFFFFFFFC0
03FFFFFFFFC0
03FFFFFFFFC0
07FF0000FFC0
07FE0000FFC0
0FFE0000FFC0
0FFE0000FFC0
1FFC0000FFC0
1FFC0000FFC0
1FF80000FFC0
3FF80001FFC0
3FF00001FFC0
7FF00001FFC0
7FF00001FFC0
FFE00001FFC0
FFE00001FFC0
00000000FFC0
00000003FF00
00000007FE00
0000000FFC00
0000001FF800
0000003FF000
0000007FE000
0000007FE000
000000FFE080
000000FFFF80
000000FFFF80
000000FFFF80
0000007FFF80
0000003FFF00
0000000FFC00
ENDCHAR
STARTCHAR 0105
ENCODING 261
SWIDTH 495 0
DWIDTH 44 0
BBX 41 58 6 -15
BITMAP
000001F80000
00003FFFE000
0001FFFFFE00
0007FFFFFF80
000FFFFFFF00
003FFFFFFF00
007FFFFFFF00
00FFFFFFFF00
01FFFFFFFE00
03FFFFFFFE00
07FFE00FFE00
0FFFC00FFE00
0FFF000FFC00
1FFE001FFC00
1FFC001FFC00
3FFC001FFC00
3FF8001FF800
7FF8003FF800
7FF0003FF800
7FF0003FF800
FFE0003FF000
FFE0007FF000
FFE0007FF000
FFE0007FF000
FFE0007FF000
FFE000FFE000
FFE000FFE000
FFE000FFE000
FFE000FFE000
FFE000FFE000
FFE001FFC000
FFE001FFC000
FFF003FFC000
FFF807FFC000
FFFE3FFFE000
7FFFFFFFE000
7FFFFFFFE000
3FFFFFFFE000
3FFFFFFFE000
1FFFFFFFE000
0FFFFF7FF000
07FFFC3FF000
03FFF03FF000
007F80FFC000
000001FF8000
000007FE0000
00000FFC0000
00001FF80000
00003FF00000
00003FF00000
00007FE00000
00007FF0C000
00007FFF8000
0000FFFF8000
00007FFF8000
00007FFF8000
00003FFF8000
00000FFC0000
ENDCHAR
STARTCHAR 0106
ENCODING 262
SWIDTH 495 0
DWIDTH 44 0
BBX 42 75 8 -1
BITMAP
000000002000
000000006000
00000001F000
00000003F800
00000007F800
0000001FFC00
0000003FFE00
0000007FFE00
000001FFFF00
000003FFFC00
000007FFF000
000007FFC000
000003FF8000
000003FE0000
000001F80000
000000E00000
000000800000
000000000000
000001FFE000
00000FFFFC00
00007FFFFF00
0000FFFFFFC0
0003FFFFFFC0
0007FFFFFFC0
000FFFFFFF80
001FFFFFFF80
003FFFFFFF00
007FFFC0FF00
00FFFE001E00
01FFF8000600
01FFF0000000
03FFE0000000
03FFC0000000
07FF80000000
07FF00000000
0FFF00000000
0FFE00000000
1FFE00000000
1FFC00000000
3FFC00000000
3FF800000000
3FF800000000
3FF800000000
7FF000000000
7FF000000000
7FF000000000
7FF000000000
FFE000000000
FFE000000000
FFE000000000
FFE000000000
FFE000000000
FFE000000000
FFE000000000
FFE000000000
FFE000000000
FFE000000000
FFE000000000
FFE000000000
FFE000000000
FFF000000000
FFF000000000
7FF800000000
7FFC00030000
7FFE001F0000
7FFFF7FF0000
3FFFFFFF0000
3FFFFFFF0000
1FFFFFFF8000
0FFFFFFF8000
07FFFFFF8000
03FFFFFF8000
01FFFFFE0000
007FFFF00000
000FFF800000
ENDCHAR
STARTCHAR 0107
ENCODING 263
SWIDTH 495 0
DWIDTH 44 0
BBX 40 62 7 -1
BITMAP
0000000020
00000000F0
00000001F8
00000003F8
0000000FFC
0000001FFE
0000007FFE
000000FFFF
000001FFFE
000007FFF8
000007FFE0
000003FF80
000003FE00
000001FC00
000000F000
000000C000
0000000000
0000000000
000001FF80
00001FFFF8
0000FFFFFF
0003FFFFFF
000FFFFFFE
003FFFFFFE
007FFFFFFC
00FFFFFFFC
01FFFFFFFC
03FFFFFFF8
07FFFC0038
0FFFE00000
0FFFC00000
1FFF000000
1FFE000000
3FFC000000
3FFC000000
7FF8000000
7FF0000000
7FF0000000
FFF0000000
FFE0000000
FFE0000000
FFE0000000
FFE0000000
FFE0000000
FFE0000000
FFE0000000
FFE0000000
FFE0000000
FFF0000000
FFF0000000
7FF8000000
7FFE000780
7FFFFFFF80
3FFFFFFF80
3FFFFFFF80
1FFFFFFF80
0FFFFFFF80
07FFFFFF80
03FFFFFF80
01FFFFFF80
003FFFFC00
0007FFC000
ENDCHAR
STARTCHAR 0108
ENCODING 264
SWIDTH 495 0
DWIDTH 44 0
BBX 43 74 8 0
BITMAP
00000001C000
00000003E000
00000007F000
0000000FF800
0000003FF800
0000007FFC00
000000FFFE00
000001FFFF00
000007FFFF80
00000FFEFF80
00001FFC7FC0
00000FF03FE0
00000FE01F80
000007800F00
000003000600
000000000000
000000000000
000001FFE000
00000FFFFC00
00007FFFFF00
0000FFFFFFC0
0003FFFFFFC0
0007FFFFFFC0
000FFFFFFF80
001FFFFFFF80
003FFFFFFF00
007FFFC0FF00
00FFFE001E00
01FFF8000600
01FFF0000000
03FFE0000000
03FFC0000000
07FF80000000
07FF00000000
0FFF00000000
0FFE00000000
1FFE00000000
1FFC00000000
3FFC00000000
3FF800000000
3FF800000000
3FF800000000
7FF000000000
7FF000000000
7FF000000000
7FF000000000
FFE000000000
FFE000000000
FFE000000000
FFE000000000
FFE000000000
FFE000000000
FFE000000000
FFE000000000
FFE000000000
FFE000000000
FFE000000000
FFE000000000
FFE000000000
FFF000000000
FFF000000000
7FF800000000
7FFC00030000
7FFE001F0000
7FFFF7FF0000
3FFFFFFF0000
3FFFFFFF0000
1FFFFFFF8000
0FFFFFFF8000
07FFFFFF8000
03FFFFFF8000
01FFFFFE0000
007FFFF00000
000FFF800000
ENDCHAR
STARTCHAR 0109
ENCODING 265
SWIDTH 495 0
DWIDTH 44 0
BBX 41 62 7 -1
BITMAP
000000030000
000000078000
0000001F8000
0000003FC000
0000007FE000
000001FFF000
000003FFF800
000007FFF800
00000FFFFC00
00003FFFFE00
00007FF3FF00
00007FC1FF80
00003F807F00
00001F003E00
00001C001800
000008000000
000000000000
000000000000
000001FF8000
00001FFFF800
0000FFFFFF00
0003FFFFFF00
000FFFFFFE00
003FFFFFFE00
007FFFFFFC00
00FFFFFFFC00
01FFFFFFFC00
03FFFFFFF800
07FFFC003800
0FFFE0000000
0FFFC0000000
1FFF00000000
1FFE00000000
3FFC00000000
3FFC00000000
7FF800000000
7FF000000000
7FF000000000
FFF000000000
FFE000000000
FFE000000000
FFE000000000
FFE000000000
FFE000000000
FFE000000000
FFE000000000
FFE000000000
FFE000000000
FFF000000000
FFF000000000
7FF800000000
7FFE00078000
7FFFFFFF8000
3FFFFFFF8000
3FFFFFFF8000
1FFFFFFF8000
0FFFFFFF8000
07FFFFFF8000
03FFFFFF8000
01FFFFFF8000
003FFFFC0000
0007FFC00000
ENDCHAR
STARTCHAR 010A
ENCODING 266
SWIDTH 495 0
DWIDTH 44 0
BBX 42 73 8 -1
BITMAP
0000001FC000
0000003FE000
0000007FF000
000000FFF000
000000FFF000
000000FFF000
000000FFF000
000000FFF000
000000FFF000
0000007FE000
0000007FC000
0000001F0000
000000000000
000000000000
000000000000
000000000000
000001FFE000
00000FFFFC00
00007FFFFF00
0000FFFFFFC0
0003FFFFFFC0
0007FFFFFFC0
000FFFFFFF80
001FFFFFFF80
003FFFFFFF00
007FFFC0FF00
00FFFE001E00
01FFF8000600
01FFF0000000
03FFE0000000
03FFC0000000
07FF80000000
07FF00000000
0FFF00000000
0FFE00000000
1FFE00000000
1FFC00000000
3FFC00000000
3FF800000000
3FF800000000
3FF800000000
7FF000000000
7FF000000000
7FF000000000
7FF000000000
FFE000000000
FFE000000000
FFE000000000
FFE000000000
FFE000000000
FFE000000000
FFE000000000
FFE000000000
FFE000000000
FFE000000000
FFE000000000
FFE000000000
FFE000000000
FFF000000000
FFF000000000
7FF800000000
7FFC00030000
7FFE001F0000
7FFFF7FF0000
3FFFFFFF0000
3FFFFFFF0000
1FFFFFFF8000
0FFFFFFF8000
07FFFFFF8000
03FFFFFF8000
01FFFFFE0000
007FFFF00000
000FFF800000
ENDCHAR
STARTCHAR 010B
ENCODING 267
SWIDTH 495 0
DWIDTH 44 0
BBX 40 61 7 -1
BITMAP
0000001F00
0000007F80
000000FFC0
000001FFE0
000001FFE0
000001FFE0
000001FFE0
000001FFE0
000001FFC0
000001FFC0
000000FF80
0000007E00
0000000000
0000000000
0000000000
0000000000
0000000000
000001FF80
00001FFFF8
0000FFFFFF
0003FFFFFF
000FFFFFFE
003FFFFFFE
007FFFFFFC
00FFFFFFFC
01FFFFFFFC
03FFFFFFF8
07FFFC0038
0FFFE00000
0FFFC00000
1FFF000000
1FFE000000
3FFC000000
3FFC000000
7FF8000000
7FF0000000
7FF0000000
FFF0000000
FFE0000000
FFE0000000
FFE0000000
FFE0000000
FFE0000000
FFE0000000
FFE0000000
FFE0000000
FFE0000000
FFF0000000
FFF0000000
7FF8000000
7FFE000780
7FFFFFFF80
3FFFFFFF80
3FFFFFFF80
1FFFFFFF80
0FFFFFFF80
07FFFFFF80
03FFFFFF80
01FFFFFF80
003FFFFC00
0007FFC000
ENDCHAR
STARTCHAR 010C
ENCODING 268
SWIDTH 495 0
DWIDTH 44 0
BBX 43 75 8 -1
BITMAP
000000800100
000001C00380
000003E007C0
00000FF01FC0
00000FF83FE0
000007FCFFE0
000007FFFFC0
000003FFFF80
000001FFFE00
000000FFFC00
0000007FF800
0000007FE000
0000003FC000
0000001F8000
0000000F0000
000000040000
000000000000
000000000000
000001FFE000
00000FFFFC00
00007FFFFF00
0000FFFFFFC0
0003FFFFFFC0
0007FFFFFFC0
000FFFFFFF80
001FFFFFFF80
003FFFFFFF00
007FFFC0FF00
00FFFE001E00
01FFF8000600
01FFF0000000
03FFE0000000
03FFC0000000
07FF80000000
07FF00000000
0FFF00000000
0FFE00000000
1FFE00000000
1FFC00000000
3FFC00000000
3FF800000000
3FF800000000
3FF800000000
7FF000000000
7FF000000000
7FF000000000
7FF000000000
FFE000000000
FFE000000000
FFE000000000
FFE000000000
FFE000000000
FFE000000000
FFE000000000
FFE000000000
FFE000000000
FFE000000000
FFE000000000
FFE000000000
FFE000000000
FFF000000000
FFF000000000
7FF800000000
7FFC00030000
7FFE001F0000
7FFFF7FF0000
3FFFFFFF0000
3FFFFFFF0000
1FFFFFFF8000
0FFFFFFF8000
07FFFFFF8000
03FFFFFF8000
01FFFFFE0000
007FFFF00000
000FFF800000
ENDCHAR
STARTCHAR 010D
ENCODING 269
SWIDTH 495 0
DWIDTH 44 0
BBX 42 62 7 -1
BITMAP
000003000600
000007800F00
00000FC03F80
00003FE07F80
00001FF1FFC0
00000FFBFF80
00000FFFFF00
000007FFFC00
000003FFF800
000001FFF000
000000FFE000
0000007F8000
0000007F0000
0000003E0000
000000180000
000000000000
000000000000
000000000000
000001FF8000
00001FFFF800
0000FFFFFF00
0003FFFFFF00
000FFFFFFE00
003FFFFFFE00
007FFFFFFC00
00FFFFFFFC00
01FFFFFFFC00
03FFFFFFF800
07FFFC003800
0FFFE0000000
0FFFC0000000
1FFF00000000
1FFE00000000
3FFC00000000
3FFC00000000
7FF800000000
7FF000000000
7FF000000000
FFF000000000
FFE000000000
FFE000000000
FFE000000000
FFE000000000
FFE000000000
FFE000000000
FFE000000000
FFE000000000
FFE000000000
FFF000000000
FFF000000000
7FF800000000
7FFE00078000
7FFFFFFF8000
3FFFFFFF8000
3FFFFFFF8000
1FFFFFFF8000
0FFFFFFF8000
07FFFFFF8000
03FFFFFF8000
01FFFFFF8000
003FFFFC0000
0007FFC00000
ENDCHAR
STARTCHAR 010E
ENCODING 270
SWIDTH 495 0
DWIDTH 44 0
BBX 44 75 3 -1
BITMAP
000001000100
000003800700
000007C00F80
00000FE03FC0
00001FF07FC0
00000FF8FFC0
000007FFFF80
000003FFFF00
000003FFFE00
000001FFF800
000000FFF000
0000007FE000
0000003FC000
0000003F0000
0000001E0000
0000000C0000
000000000000
000000000000
000003F00000
0003FFFF8000
0007FFFFE000
000FFFFFF800
000FFFFFFC00
000FFFFFFE00
000FFFFFFF00
001FFFFFFF80
001FFFFFFF80
001FFFFFFFC0
001FFC07FFC0
003FF803FFE0
003FF801FFE0
003FF800FFE0
003FF800FFF0
007FF0007FF0
007FF0007FF0
007FF0007FF0
007FF0007FF0
00FFE0007FF0
00FFE0007FF0
00FFE0007FF0
00FFE0007FF0
01FFC0007FF0
01FFC0007FF0
01FFC0007FF0
01FFC000FFF0
03FF8000FFE0
03FF8000FFE0
03FF8000FFE0
03FF8000FFE0
03FF0001FFE0
07FF0001FFE0
07FF0001FFC0
07FF0003FFC0
07FF0003FFC0
0FFE0003FF80
0FFE0007FF80
0FFE0007FF80
0FFE000FFF00
1FFC001FFF00
1FFC003FFE00
1FFC003FFE00
1FFC007FFC00
3FF801FFFC00
3FF803FFF800
3FF81FFFF000
3FFFFFFFE000
7FFFFFFFC000
7FFFFFFF8000
7FFFFFFF0000
7FFFFFFE0000
FFFFFFF80000
FFFFFFE00000
FFFFFF800000
FFFFFC000000
01FF80000000
ENDCHAR
STARTCHAR 010F
ENCODING 271
SWIDTH 495 0
DWIDTH 44 0
BBX 56 63 3 -1
BITMAP
000000000023FF
000000001FC3FF
00000001FFC3FE
00000001FFC7FE
00000001FFC7FE
00000001FF87FC
00000003FF87FC
00000003FF87F8
00000003FF8FF8
00000003FF0FF8
00000007FF0FF0
00000007FF0FF0
00000007FF1FF0
00000007FF1FE0
0000000FFE1FE0
0000000FFE1FC0
0000000FFE3FC0
0000000FFE3FC0
0000001FFC3F80
0000001FFC3F80
00007FFFFC0000
0001FFFFFC0000
0007FFFFF80000
001FFFFFF80000
003FFFFFF80000
007FFFFFF80000
00FFFFFFF00000
01FFFFFFF00000
03FFFFFFF00000
07FFC07FF00000
0FFF807FE00000
0FFF00FFE00000
1FFE00FFE00000
1FFC00FFE00000
3FFC00FFC00000
3FF801FFC00000
3FF801FFC00000
7FF001FFC00000
7FF001FFC00000
7FF003FF800000
7FE003FF800000
FFE003FF800000
FFE003FF800000
FFE007FF000000
FFE007FF000000
FFE007FF000000
FFE007FF000000
FFE007FE000000
FFE00FFE000000
FFE00FFE000000
FFE00FFE000000
FFF01FFE000000
FFF03FFE000000
7FFDFFFE000000
7FFFFFFE000000
7FFFFFFF000000
7FFFFFFF000000
3FFFFFFF000000
3FFFFFFF000000
1FFFFBFF000000
0FFFE3FF800000
07FFC1FE000000
00FE0180000000
ENDCHAR
STARTCHAR 0110
ENCODING 272
SWIDTH 495 0
DWIDTH 44 0
BBX 42 57 5 -1
BITMAP
000007C00000
0007FFFE0000
000FFFFF8000
000FFFFFE000
000FFFFFF000
001FFFFFF800
001FFFFFFC00
001FFFFFFE00
001FFFFFFE00
003FFFFFFF00
003FF81FFF00
003FF807FF80
003FF007FF80
007FF003FF80
007FF003FFC0
007FF001FFC0
007FF001FFC0
00FFE001FFC0
00FFE001FFC0
00FFE001FFC0
00FFE001FFC0
00FFC001FFC0
01FFC001FFC0
3FFFFE01FFC0
3FFFFE01FFC0
7FFFFE01FFC0
7FFFFE01FFC0
7FFFFC03FF80
7FFFFC03FF80
FFFFFC03FF80
FFFFFC03FF80
FFFFF803FF80
07FF0007FF80
07FE0007FF00
0FFE0007FF00
0FFE000FFF00
0FFE000FFE00
0FFC001FFE00
1FFC001FFE00
1FFC003FFC00
1FFC003FFC00
1FFC007FF800
1FF800FFF800
3FF801FFF000
3FF803FFF000
3FF807FFE000
3FF03FFFC000
7FFFFFFF8000
7FFFFFFF0000
7FFFFFFE0000
7FFFFFFC0000
FFFFFFF80000
FFFFFFE00000
FFFFFFC00000
FFFFFF000000
FFFFF8000000
00FF00000000
ENDCHAR
STARTCHAR 0111
ENCODING 273
SWIDTH 495 0
DWIDTH 44 0
BBX 48 63 6 -1
BITMAP
000000000010
0000000007F0
000000007FF0
000000007FF0
00000000FFE0
00000000FFE0
00000000FFE0
00001FFFFFFF
00001FFFFFFF
00003FFFFFFF
00003FFFFFFF
00003FFFFFFE
00003FFFFFFE
00007FFFFFFE
00007FFFFFFE
00000003FF80
00000003FF00
00000007FF00
00000007FF00
00000007FF00
00003FFFFE00
0001FFFFFE00
0007FFFFFE00
001FFFFFFE00
003FFFFFFE00
007FFFFFFC00
00FFFFFFFC00
01FFFFFFFC00
03FFFFFFFC00
07FFE03FF800
0FFF803FF800
0FFF003FF800
1FFE003FF800
1FFC007FF000
3FFC007FF000
3FF8007FF000
7FF8007FF000
7FF000FFE000
7FF000FFE000
FFE000FFE000
FFE000FFE000
FFE000FFC000
FFE001FFC000
FFE001FFC000
FFE001FFC000
FFE001FFC000
FFE003FF8000
FFE003FF8000
FFE003FF8000
FFE003FF8000
FFE007FF8000
FFE00FFF8000
FFF01FFF8000
FFFCFFFF8000
7FFFFFFF8000
7FFFFFFF8000
7FFFFFFF8000
3FFFFFFFC000
1FFFFFFFC000
1FFFFCFFC000
0FFFF8FFC000
03FFE0FF0000
00FF00400000
ENDCHAR
STARTCHAR 0112
ENCODING 274
SWIDTH 495 0
DWIDTH 44 0
BBX 46 70 5 0
BITMAP
000007FFFFFC
00000FFFFFFC
00000FFFFFFC
00000FFFFFF8
00000FFFFFF8
00001FFFFFF8
00001FFFFFF8
00001FFFFFF8
000000000000
000000000000
000000000000
000000000000
000000000000
000000000000
000000000000
0007FFFFFFF8
000FFFFFFFF8
000FFFFFFFF8
000FFFFFFFF8
000FFFFFFFF0
000FFFFFFFF0
001FFFFFFFF0
001FFFFFFFF0
001FFFFFFFE0
001FFC000000
003FF8000000
003FF8000000
003FF8000000
003FF8000000
007FF0000000
007FF0000000
007FF0000000
007FF0000000
00FFE0000000
00FFE0000000
00FFE0000000
00FFFFFFF800
01FFFFFFF800
01FFFFFFF800
01FFFFFFF800
01FFFFFFF800
01FFFFFFF000
03FFFFFFF000
03FFFFFFF000
03FFFFFFF000
03FF80000000
07FF00000000
07FF00000000
07FF00000000
07FF00000000
0FFE00000000
0FFE00000000
0FFE00000000
0FFE00000000
1FFC00000000
1FFC00000000
1FFC00000000
1FFC00000000
3FF800000000
3FF800000000
3FF800000000
3FFFFFFFF000
3FFFFFFFF000
7FFFFFFFF000
7FFFFFFFF000
7FFFFFFFE000
7FFFFFFFE000
FFFFFFFFE000
FFFFFFFFE000
FFFFFFFFC000
ENDCHAR
STARTCHAR 0113
ENCODING 275
SWIDTH 495 0
DWIDTH 44 0
BBX 42 59 7 -1
BITMAP
00007FFFFFC0
0000FFFFFFC0
0000FFFFFFC0
0000FFFFFF80
0000FFFFFF80
0001FFFFFF80
0001FFFFFF80
0001FFFFFF00
000000000000
000000000000
000000000000
000000000000
000000000000
000000000000
000000000000
000007F80000
00007FFF8000
0003FFFFE000
000FFFFFF000
001FFFFFF800
007FFFFFFC00
00FFFFFFFC00
01FFFFFFFE00
03FFFFFFFE00
07FFF01FFE00
07FF800FFE00
0FFF0007FE00
1FFE0007FE00
1FFC0007FE00
3FF80007FE00
3FF0000FFE00
7FF0000FFE00
7FE0003FFC00
7FE000FFFC00
7FE007FFF800
FFE7FFFFF000
FFFFFFFFE000
FFFFFFFFC000
FFFFFFFF8000
FFFFFFFE0000
FFFFFFF80000
FFFFFF800000
FFFFF0000000
FFC000000000
FFE000000000
FFE000000000
FFE000000000
FFF000000000
7FF800010000
7FFF001F8000
7FFFFFFF8000
3FFFFFFF8000
1FFFFFFF8000
1FFFFFFF8000
0FFFFFFF8000
03FFFFFF8000
01FFFFFF0000
007FFFFC0000
0007FFC00000
ENDCHAR
STARTCHAR 0114
ENCODING 276
SWIDTH 495 0
DWIDTH 44 0
BBX 47 73 5 0
BITMAP
000003FC03FE
000007F803FC
000007FC03FC
000007FC07FC
000007FC0FFC
000003FF3FF8
000003FFFFF8
000003FFFFF0
000001FFFFE0
000000FFFFC0
0000007FFF80
0000003FFE00
0000000FF800
000000000000
000000000000
000000000000
000000000000
000000000000
0007FFFFFFF8
000FFFFFFFF8
000FFFFFFFF8
000FFFFFFFF8
000FFFFFFFF0
000FFFFFFFF0
001FFFFFFFF0
001FFFFFFFF0
001FFFFFFFE0
001FFC000000
003FF8000000
003FF8000000
003FF8000000
003FF8000000
007FF0000000
007FF0000000
007FF0000000
007FF0000000
00FFE0000000
00FFE0000000
00FFE0000000
00FFFFFFF800
01FFFFFFF800
01FFFFFFF800
01FFFFFFF800
01FFFFFFF800
01FFFFFFF000
03FFFFFFF000
03FFFFFFF000
03FFFFFFF000
03FF80000000
07FF00000000
07FF00000000
07FF00000000
07FF00000000
0FFE00000000
0FFE00000000
0FFE00000000
0FFE00000000
1FFC00000000
1FFC00000000
1FFC00000000
1FFC00000000
3FF800000000
3FF800000000
3FF800000000
3FFFFFFFF000
3FFFFFFFF000
7FFFFFFFF000
7FFFFFFFF000
7FFFFFFFE000
7FFFFFFFE000
FFFFFFFFE000
FFFFFFFFE000
FFFFFFFFC000
ENDCHAR
STARTCHAR 0115
ENCODING 277
SWIDTH 495 0
DWIDTH 44 0
BBX 42 62 7 -1
BITMAP
00007FC03FC0
00007F803FC0
00007F803FC0
00007FC07FC0
00007FC07FC0
00007FE1FF80
00003FFFFF80
00003FFFFF00
00001FFFFE00
00001FFFFC00
00000FFFF800
000007FFF000
000001FFC000
000000080000
000000000000
000000000000
000000000000
000000000000
000007F80000
00007FFF8000
0003FFFFE000
000FFFFFF000
001FFFFFF800
007FFFFFFC00
00FFFFFFFC00
01FFFFFFFE00
03FFFFFFFE00
07FFF01FFE00
07FF800FFE00
0FFF0007FE00
1FFE0007FE00
1FFC0007FE00
3FF80007FE00
3FF0000FFE00
7FF0000FFE00
7FE0003FFC00
7FE000FFFC00
7FE007FFF800
FFE7FFFFF000
FFFFFFFFE000
FFFFFFFFC000
FFFFFFFF8000
FFFFFFFE0000
FFFFFFF80000
FFFFFF800000
FFFFF0000000
FFC000000000
FFE000000000
FFE000000000
FFE000000000
FFF000000000
7FF800010000
7FFF001F8000
7FFFFFFF8000
3FFFFFFF8000
1FFFFFFF8000
1FFFFFFF8000
0FFFFFFF8000
03FFFFFF8000
01FFFFFF0000
007FFFFC0000
0007FFC00000
ENDCHAR
STARTCHAR 0116
ENCODING 278
SWIDTH 495 0
DWIDTH 44 0
BBX 45 72 5 0
BITMAP
00000003F000
0000000FF800
0000001FFC00
0000001FFC00
0000003FFE00
0000003FFE00
0000003FFE00
0000003FFC00
0000003FFC00
0000001FF800
0000000FF000
00000007C000
000000000000
000000000000
000000000000
000000000000
000000000000
0007FFFFFFF8
000FFFFFFFF8
000FFFFFFFF8
000FFFFFFFF8
000FFFFFFFF0
000FFFFFFFF0
001FFFFFFFF0
001FFFFFFFF0
001FFFFFFFE0
001FFC000000
003FF8000000
003FF8000000
003FF8000000
003FF8000000
007FF0000000
007FF0000000
007FF0000000
007FF0000000
00FFE0000000
00FFE0000000
00FFE0000000
00FFFFFFF800
01FFFFFFF800
01FFFFFFF800
01FFFFFFF800
01FFFFFFF800
01FFFFFFF000
03FFFFFFF000
03FFFFFFF000
03FFFFFFF000
03FF80000000
07FF00000000
07FF00000000
07FF00000000
07FF00000000
0FFE00000000
0FFE00000000
0FFE00000000
0FFE00000000
1FFC00000000
1FFC00000000
1FFC00000000
1FFC00000000
3FF800000000
3FF800000000
3FF800000000
3FFFFFFFF000
3FFFFFFFF000
7FFFFFFFF000
7FFFFFFFF000
7FFFFFFFE000
7FFFFFFFE000
FFFFFFFFE000
FFFFFFFFE000
FFFFFFFFC000
ENDCHAR
STARTCHAR 0117
ENCODING 279
SWIDTH 495 0
DWIDTH 44 0
BBX 39 61 7 -1
BITMAP
0000003E00
000000FF80
000001FFC0
000001FFC0
000003FFC0
000003FFE0
000003FFC0
000003FFC0
000003FFC0
000003FF80
000001FF00
000000FE00
0000000000
0000000000
0000000000
0000000000
0000000000
000007F800
00007FFF80
0003FFFFE0
000FFFFFF0
001FFFFFF8
007FFFFFFC
00FFFFFFFC
01FFFFFFFE
03FFFFFFFE
07FFF01FFE
07FF800FFE
0FFF0007FE
1FFE0007FE
1FFC0007FE
3FF80007FE
3FF0000FFE
7FF0000FFE
7FE0003FFC
7FE000FFFC
7FE007FFF8
FFE7FFFFF0
FFFFFFFFE0
FFFFFFFFC0
FFFFFFFF80
FFFFFFFE00
FFFFFFF800
FFFFFF8000
FFFFF00000
FFC0000000
FFE0000000
FFE0000000
FFE0000000
FFF0000000
7FF8000100
7FFF001F80
7FFFFFFF80
3FFFFFFF80
1FFFFFFF80
1FFFFFFF80
0FFFFFFF80
03FFFFFF80
01FFFFFF00
007FFFFC00
0007FFC000
ENDCHAR
STARTCHAR 0118
ENCODING 280
SWIDTH 495 0
DWIDTH 44 0
BBX 45 70 5 -15
BITMAP
0007FFFFFFF8
000FFFFFFFF8
000FFFFFFFF8
000FFFFFFFF8
000FFFFFFFF0
000FFFFFFFF0
001FFFFFFFF0
001FFFFFFFF0
001FFFFFFFE0
001FFC000000
003FF8000000
003FF8000000
003FF8000000
003FF8000000
007FF0000000
007FF0000000
007FF0000000
007FF0000000
00FFE0000000
00FFE0000000
00FFE0000000
00FFFFFFF800
01FFFFFFF800
01FFFFFFF800
01FFFFFFF800
01FFFFFFF800
01FFFFFFF000
03FFFFFFF000
03FFFFFFF000
03FFFFFFF000
03FF80000000
07FF00000000
07FF00000000
07FF00000000
07FF00000000
0FFE00000000
0FFE00000000
0FFE00000000
0FFE00000000
1FFC00000000
1FFC00000000
1FFC00000000
1FFC00000000
3FF800000000
3FF800000000
3FF800000000
3FFFFFFFF000
3FFFFFFFF000
7FFFFFFFF000
7FFFFFFFF000
7FFFFFFFE000
7FFFFFFFE000
FFFFFFFFE000
FFFFFFFFE000
FFFFFFFFC000
000000FFC000
000003FF0000
000007FE0000
00000FFC0000
00001FF80000
00003FF00000
00007FE00000
0000FFE00000
0000FFE08000
0000FFFF8000
0000FFFF8000
0000FFFF8000
00007FFF0000
00003FFF0000
00000FFC0000
ENDCHAR
STARTCHAR 0119
ENCODING 281
SWIDTH 495 0
DWIDTH 44 0
BBX 39 58 7 -15
BITMAP
000007F800
00007FFF80
0003FFFFE0
000FFFFFF0
001FFFFFF8
007FFFFFFC
00FFFFFFFC
01FFFFFFFE
03FFFFFFFE
07FFF01FFE
07FF800FFE
0FFF0007FE
1FFE0007FE
1FFC0007FE
3FF80007FE
3FF0000FFE
7FF0000FFE
7FE0003FFC
7FE000FFFC
7FE007FFF8
FFE7FFFFF0
FFFFFFFFE0
FFFFFFFFC0
FFFFFFFF80
FFFFFFFE00
FFFFFFF800
FFFFFF8000
FFFFF00000
FFC0000000
FFE0000000
FFE0000000
FFE0000000
FFF0000000
7FF8000100
7FFF001F80
7FFFFFFF80
3FFFFFFF80
1FFFFFFF80
1FFFFFFF80
0FFFFFFF80
03FFFFFF80
01FFFFFF80
007FFFFE00
0007FFFC00
00003FF000
00007FE000
0000FFC000
0001FF8000
0003FF0000
0007FE0000
000FFE0000
000FFE0800
000FFFF800
000FFFF800
000FFFF800
0007FFF000
0003FFF000
0000FFC000
ENDCHAR
STARTCHAR 011A
ENCODING 282
SWIDTH 495 0
DWIDTH 44 0
BBX 45 74 5 0
BITMAP
000000200000
0000007000E0
000000F801F0
000001FC07F8
000003FE0FF8
000001FF3FF8
000000FFFFF0
000000FFFFE0
0000007FFF80
0000003FFF00
0000001FFE00
0000000FFC00
0000000FF000
00000007E000
00000003C000
000000018000
000000000000
000000000000
000000000000
0007FFFFFFF8
000FFFFFFFF8
000FFFFFFFF8
000FFFFFFFF8
000FFFFFFFF0
000FFFFFFFF0
001FFFFFFFF0
001FFFFFFFF0
001FFFFFFFE0
001FFC000000
003FF8000000
003FF8000000
003FF8000000
003FF8000000
007FF0000000
007FF0000000
007FF0000000
007FF0000000
00FFE0000000
00FFE0000000
00FFE0000000
00FFFFFFF800
01FFFFFFF800
01FFFFFFF800
01FFFFFFF800
01FFFFFFF800
01FFFFFFF000
03FFFFFFF000
03FFFFFFF000
03FFFFFFF000
03FF80000000
07FF00000000
07FF00000000
07FF00000000
07FF00000000
0FFE00000000
0FFE00000000
0FFE00000000
0FFE00000000
1FFC00000000
1FFC00000000
1FFC00000000
1FFC00000000
3FF800000000
3FF800000000
3FF800000000
3FFFFFFFF000
3FFFFFFFF000
7FFFFFFFF000
7FFFFFFFF000
7FFFFFFFE000
7FFFFFFFE000
FFFFFFFFE000
FFFFFFFFE000
FFFFFFFFC000
ENDCHAR
STARTCHAR 011B
ENCODING 283
SWIDTH 495 0
DWIDTH 44 0
BBX 40 62 7 -1
BITMAP
00000C0018
00003E007C
00007F00FC
0000FF83FE
00007FC7FF
00007FEFFE
00003FFFF8
00001FFFF0
00000FFFE0
000007FF80
000007FF00
000003FE00
000001FC00
000000F000
0000006000
0000004000
0000000000
0000000000
000007F800
00007FFF80
0003FFFFE0
000FFFFFF0
001FFFFFF8
007FFFFFFC
00FFFFFFFC
01FFFFFFFE
03FFFFFFFE
07FFF01FFE
07FF800FFE
0FFF0007FE
1FFE0007FE
1FFC0007FE
3FF80007FE
3FF0000FFE
7FF0000FFE
7FE0003FFC
7FE000FFFC
7FE007FFF8
FFE7FFFFF0
FFFFFFFFE0
FFFFFFFFC0
FFFFFFFF80
FFFFFFFE00
FFFFFFF800
FFFFFF8000
FFFFF00000
FFC0000000
FFE0000000
FFE0000000
FFE0000000
FFF0000000
7FF8000100
7FFF001F80
7FFFFFFF80
3FFFFFFF80
1FFFFFFF80
1FFFFFFF80
0FFFFFFF80
03FFFFFF80
01FFFFFF00
007FFFFC00
0007FFC000
ENDCHAR
STARTCHAR 011C
ENCODING 284
SWIDTH 495 0
DWIDTH 44 0
BBX 43 75 7 -1
BITMAP
000000008000
00000001C000
00000003C000
0000000FE000
0000001FF000
0000003FF800
0000007FFC00
000001FFFC00
000003FFFE00
000007FFFF00
00001FFDFF80
00003FF8FFC0
00001FF07FC0
00000FC01F80
000007800F00
000006000600
000000000000
000000000000
000000FFF000
00000FFFFE00
00003FFFFF80
0000FFFFFFE0
0001FFFFFFE0
0003FFFFFFE0
000FFFFFFFC0
001FFFFFFFC0
003FFFFFFF80
007FFFE07F80
007FFE000F00
00FFFC000300
01FFF0000000
01FFE0000000
03FFC0000000
07FF80000000
07FF80000000
0FFF00000000
0FFE00000000
1FFE00000000
1FFC00000000
1FFC00000000
3FFC00000000
3FF800000000
3FF800000000
7FF000000000
7FF000000000
7FF0000FFE00
7FF0000FFC00
7FF0001FFC00
FFE0001FFC00
FFE0001FFC00
FFE0001FFC00
FFE0003FF800
FFE0003FF800
FFE0003FF800
FFE0003FF800
FFE0007FF000
FFE0007FF000
FFE0007FF000
FFE0007FF000
FFE000FFE000
FFF000FFE000
FFF000FFE000
7FF800FFE000
7FF801FFC000
7FFC01FFC000
7FFF87FFC000
3FFFFFFFC000
3FFFFFFF8000
1FFFFFFF8000
0FFFFFFF8000
0FFFFFFF8000
07FFFFFF0000
01FFFFFF0000
00FFFFF80000
001FFF000000
ENDCHAR
STARTCHAR 011D
ENCODING 285
SWIDTH 495 0
DWIDTH 44 0
BBX 48 76 0 -15
BITMAP
000000000600
000000000F00
000000003F00
000000007F80
00000000FFC0
00000003FFE0
00000007FFF0
0000000FFFF0
0000001FFFF8
0000007FFFFC
000000FFE7FE
000000FF83FF
0000007F00FE
0000003E007C
000000380030
000000100000
000000000000
000000000000
00000001F800
0000007FFFE0
000003FFFFFC
00000FFFFFFE
00003FFFFFFE
00007FFFFFFE
0001FFFFFFFE
0003FFFFFFFC
0007FFFFFFFC
000FFFF03FFC
001FFF801FFC
001FFF003FF8
003FFC003FF8
003FF8003FF8
007FF8003FF8
007FF0007FF0
00FFE0007FF0
00FFE0007FF0
00FFE0007FF0
01FFC000FFE0
01FFC000FFE0
01FFC000FFE0
01FFC000FFE0
01FF8000FFC0
01FF8001FFC0
01FF8001FFC0
01FFC001FFC0
01FFC001FF80
01FFC003FF80
01FFE003FF80
01FFF00FFF80
00FFFFFFFF80
00FFFFFFFF00
00FFFFFFFF00
007FFFFFFF00
007FFFFFFF00
003FFFFFFE00
001FFFFFFE00
0007FFEFFE00
0001FF0FFE00
0000001FFC00
0000001FFC00
0000001FFC00
0000003FF800
0000003FF800
0000007FF800
0C0000FFF000
1F0003FFF000
1FFC7FFFE000
3FFFFFFFC000
3FFFFFFFC000
7FFFFFFF8000
7FFFFFFF0000
7FFFFFFE0000
FFFFFFF80000
3FFFFFE00000
07FFFF800000
007FF8000000
ENDCHAR
STARTCHAR 011E
ENCODING 286
SWIDTH 495 0
DWIDTH 44 0
BBX 45 74 7 -1
BITMAP
00000FF00FF8
00001FE00FF0
00001FF00FF0
00001FF01FF0
00001FF03FF0
00000FFCFFE0
00000FFFFFE0
00000FFFFFC0
000007FFFF80
000003FFFF00
000001FFFE00
000000FFF800
0000003FE000
000000000000
000000000000
000000000000
000000000000
000000FFF000
00000FFFFE00
00003FFFFF80
0000FFFFFFE0
0001FFFFFFE0
0003FFFFFFE0
000FFFFFFFC0
001FFFFFFFC0
003FFFFFFF80
007FFFE07F80
007FFE000F00
00FFFC000300
01FFF0000000
01FFE0000000
03FFC0000000
07FF80000000
07FF80000000
0FFF00000000
0FFE00000000
1FFE00000000
1FFC00000000
1FFC00000000
3FFC00000000
3FF800000000
3FF800000000
7FF000000000
7FF000000000
7FF0000FFE00
7FF0000FFC00
7FF0001FFC00
FFE0001FFC00
FFE0001FFC00
FFE0001FFC00
FFE0003FF800
FFE0003FF800
FFE0003FF800
FFE0003FF800
FFE0007FF000
FFE0007FF000
FFE0007FF000
FFE0007FF000
FFE000FFE000
FFF000FFE000
FFF000FFE000
7FF800FFE000
7FF801FFC000
7FFC01FFC000
7FFF87FFC000
3FFFFFFFC000
3FFFFFFF8000
1FFFFFFF8000
0FFFFFFF8000
0FFFFFFF8000
07FFFFFF0000
01FFFFFF0000
00FFFFF80000
001FFF000000
ENDCHAR
STARTCHAR 011F
ENCODING 287
SWIDTH 495 0
DWIDTH 44 0
BBX 50 76 0 -15
BITMAP
0000007F803FC0
0000007F803FC0
0000007F807FC0
0000007F807F80
0000007F80FF80
0000007FC1FF80
0000007FFFFF00
0000003FFFFF00
0000003FFFFE00
0000001FFFFC00
0000000FFFF800
00000007FFE000
00000003FF8000
00000000300000
00000000000000
00000000000000
00000000000000
00000000000000
00000001F80000
0000007FFFE000
000003FFFFFC00
00000FFFFFFE00
00003FFFFFFE00
00007FFFFFFE00
0001FFFFFFFE00
0003FFFFFFFC00
0007FFFFFFFC00
000FFFF03FFC00
001FFF801FFC00
001FFF003FF800
003FFC003FF800
003FF8003FF800
007FF8003FF800
007FF0007FF000
00FFE0007FF000
00FFE0007FF000
00FFE0007FF000
01FFC000FFE000
01FFC000FFE000
01FFC000FFE000
01FFC000FFE000
01FF8000FFC000
01FF8001FFC000
01FF8001FFC000
01FFC001FFC000
01FFC001FF8000
01FFC003FF8000
01FFE003FF8000
01FFF00FFF8000
00FFFFFFFF8000
00FFFFFFFF0000
00FFFFFFFF0000
007FFFFFFF0000
007FFFFFFF0000
003FFFFFFE0000
001FFFFFFE0000
0007FFEFFE0000
0001FF0FFE0000
0000001FFC0000
0000001FFC0000
0000001FFC0000
0000003FF80000
0000003FF80000
0000007FF80000
0C0000FFF00000
1F0003FFF00000
1FFC7FFFE00000
3FFFFFFFC00000
3FFFFFFFC00000
7FFFFFFF800000
7FFFFFFF000000
7FFFFFFE000000
FFFFFFF8000000
3FFFFFE0000000
07FFFF80000000
007FF800000000
ENDCHAR
STARTCHAR 0120
ENCODING 288
SWIDTH 495 0
DWIDTH 44 0
BBX 43 73 7 -1
BITMAP
0000000FE000
0000001FF000
0000003FF800
0000003FF800
0000007FFC00
0000007FFC00
0000007FF800
0000007FF800
0000007FF800
0000003FF000
0000003FE000
0000000F8000
000000000000
000000000000
000000000000
000000000000
000000FFF000
00000FFFFE00
00003FFFFF80
0000FFFFFFE0
0001FFFFFFE0
0003FFFFFFE0
000FFFFFFFC0
001FFFFFFFC0
003FFFFFFF80
007FFFE07F80
007FFE000F00
00FFFC000300
01FFF0000000
01FFE0000000
03FFC0000000
07FF80000000
07FF80000000
0FFF00000000
0FFE00000000
1FFE00000000
1FFC00000000
1FFC00000000
3FFC00000000
3FF800000000
3FF800000000
7FF000000000
7FF000000000
7FF0000FFE00
7FF0000FFC00
7FF0001FFC00
FFE0001FFC00
FFE0001FFC00
FFE0001FFC00
FFE0003FF800
FFE0003FF800
FFE0003FF800
FFE0003FF800
FFE0007FF000
FFE0007FF000
FFE0007FF000
FFE0007FF000
FFE000FFE000
FFF000FFE000
FFF000FFE000
7FF800FFE000
7FF801FFC000
7FFC01FFC000
7FFF87FFC000
3FFFFFFFC000
3FFFFFFF8000
1FFFFFFF8000
0FFFFFFF8000
0FFFFFFF8000
07FFFFFF0000
01FFFFFF0000
00FFFFF80000
001FFF000000
ENDCHAR
STARTCHAR 0121
ENCODING 289
SWIDTH 495 0
DWIDTH 44 0
BBX 47 75 0 -15
BITMAP
000000003E00
00000000FF00
00000001FF80
00000003FFC0
00000003FFC0
00000003FFC0
00000003FFC0
00000003FFC0
00000003FF80
00000003FF80
00000001FF00
00000000FC00
000000000000
000000000000
000000000000
000000000000
000000000000
00000001F800
0000007FFFE0
000003FFFFFC
00000FFFFFFE
00003FFFFFFE
00007FFFFFFE
0001FFFFFFFE
0003FFFFFFFC
0007FFFFFFFC
000FFFF03FFC
001FFF801FFC
001FFF003FF8
003FFC003FF8
003FF8003FF8
007FF8003FF8
007FF0007FF0
00FFE0007FF0
00FFE0007FF0
00FFE0007FF0
01FFC000FFE0
01FFC000FFE0
01FFC000FFE0
01FFC000FFE0
01FF8000FFC0
01FF8001FFC0
01FF8001FFC0
01FFC001FFC0
01FFC001FF80
01FFC003FF80
01FFE003FF80
01FFF00FFF80
00FFFFFFFF80
00FFFFFFFF00
00FFFFFFFF00
007FFFFFFF00
007FFFFFFF00
003FFFFFFE00
001FFFFFFE00
0007FFEFFE00
0001FF0FFE00
0000001FFC00
0000001FFC00
0000001FFC00
0000003FF800
0000003FF800
0000007FF800
0C0000FFF000
1F0003FFF000
1FFC7FFFE000
3FFFFFFFC000
3FFFFFFFC000
7FFFFFFF8000
7FFFFFFF0000
7FFFFFFE0000
FFFFFFF80000
3FFFFFE00000
07FFFF800000
007FF8000000
ENDCHAR
STARTCHAR 0122
ENCODING 290
SWIDTH 495 0
DWIDTH 44 0
BBX 43 71 7 -15
BITMAP
000000FFF000
00000FFFFE00
00003FFFFF80
0000FFFFFFE0
0001FFFFFFE0
0003FFFFFFE0
000FFFFFFFC0
001FFFFFFFC0
003FFFFFFF80
007FFFE07F80
007FFE000F00
00FFFC000300
01FFF0000000
01FFE0000000
03FFC0000000
07FF80000000
07FF80000000
0FFF00000000
0FFE00000000
1FFE00000000
1FFC00000000
1FFC00000000
3FFC00000000
3FF800000000
3FF800000000
7FF000000000
7FF000000000
7FF0000FFE00
7FF0000FFC00
7FF0001FFC00
FFE0001FFC00
FFE0001FFC00
FFE0001FFC00
FFE0003FF800
FFE0003FF800
FFE0003FF800
FFE0003FF800
FFE0007FF000
FFE0007FF000
FFE0007FF000
FFE0007FF000
FFE000FFE000
FFF000FFE000
FFF000FFE000
7FF800FFE000
7FF801FFC000
7FFC01FFC000
7FFF87FFC000
3FFFFFFFC000
3FFFFFFF8000
1FFFFFFF8000
0FFFFFFF8000
0FFFFFFF8000
07FFFFFF0000
01FFFFFF0000
00FFFFF80000
001FFF000000
000000000000
000000000000
000000000000
000FF0000000
001FF0000000
001FF0000000
003FF0000000
007FE0000000
0FFFE0000000
0FFFC0000000
1FFF80000000
1FFF00000000
1FFE00000000
1FF000000000
ENDCHAR
STARTCHAR 0123
ENCODING 291
SWIDTH 495 0
DWIDTH 44 0
BBX 47 78 0 -15
BITMAP
000000000060
0000000003E0
000000000FF0
000000001FF0
000000003FF8
000000007FF8
00000000FFE0
00000001FFC0
00000001FF80
00000003FF00
00000003FF00
00000003FE00
00000007FE00
00000007FE00
00000007FE00
000000000000
000000000000
000000000000
000000000000
000000000000
00000001F800
0000007FFFE0
000003FFFFFC
00000FFFFFFE
00003FFFFFFE
00007FFFFFFE
0001FFFFFFFE
0003FFFFFFFC
0007FFFFFFFC
000FFFF03FFC
001FFF801FFC
001FFF003FF8
003FFC003FF8
003FF8003FF8
007FF8003FF8
007FF0007FF0
00FFE0007FF0
00FFE0007FF0
00FFE0007FF0
01FFC000FFE0
01FFC000FFE0
01FFC000FFE0
01FFC000FFE0
01FF8000FFC0
01FF8001FFC0
01FF8001FFC0
01FFC001FFC0
01FFC001FF80
01FFC003FF80
01FFE003FF80
01FFF00FFF80
00FFFFFFFF80
00FFFFFFFF00
00FFFFFFFF00
007FFFFFFF00
007FFFFFFF00
003FFFFFFE00
001FFFFFFE00
0007FFEFFE00
0001FF0FFE00
0000001FFC00
0000001FFC00
0000001FFC00
0000003FF800
0000003FF800
0000007FF800
0C0000FFF000
1F0003FFF000
1FFC7FFFE000
3FFFFFFFC000
3FFFFFFFC000
7FFFFFFF8000
7FFFFFFF0000
7FFFFFFE0000
FFFFFFF80000
3FFFFFE00000
07FFFF800000
007FF8000000
ENDCHAR
STARTCHAR 0124
ENCODING 292
SWIDTH 495 0
DWIDTH 44 0
BBX 50 73 2 1
BITMAP
00000000380000
000000007C0000
00000000FE0000
00000001FE0000
00000007FF0000
0000000FFF8000
0000001FFFC000
0000007FFFE000
000000FFFFF000
000001FFDFF000
000003FF0FF800
000001FE07F800
000001FC03F000
000000F001E000
0000006000C000
00000000000000
00000000000000
00000000000000
0007FF0001FFC0
0007FF0001FFC0
0007FF0001FFC0
0007FF0003FF80
000FFE0003FF80
000FFE0003FF80
000FFE0003FF80
000FFE0007FF00
000FFC0007FF00
001FFC0007FF00
001FFC0007FF00
001FFC000FFE00
001FF8000FFE00
003FF8000FFE00
003FF8000FFE00
003FF8001FFC00
003FF8001FFC00
007FF0001FFC00
007FF0001FFC00
007FF0003FF800
007FF0003FF800
00FFE0003FF800
00FFFFFFFFF800
00FFFFFFFFF000
00FFFFFFFFF000
01FFFFFFFFF000
01FFFFFFFFF000
01FFFFFFFFE000
01FFFFFFFFE000
03FFFFFFFFE000
03FFFFFFFFE000
03FF8000FFE000
03FF8001FFC000
07FF0001FFC000
07FF0001FFC000
07FF0001FFC000
07FF0003FF8000
07FE0003FF8000
0FFE0003FF8000
0FFE0003FF8000
0FFE0007FF0000
0FFE0007FF0000
1FFC0007FF0000
1FFC0007FF0000
1FFC000FFE0000
1FFC000FFE0000
3FF8000FFE0000
3FF8000FFE0000
3FF8001FFC0000
3FF8001FFC0000
7FF0001FFC0000
7FF0001FFC0000
7FF0003FF80000
7FF0003FF80000
FFE0003FF80000
ENDCHAR
STARTCHAR 0125
ENCODING 293
SWIDTH 495 0
DWIDTH 44 0
BBX 40 73 4 1
BITMAP
0000003800
0000007E00
000000FF00
000003FF80
000007FFC0
00001FFFE0
00003FFFF0
00007FFFF8
0000FFCFFC
0000FF07F8
00007E01F0
00003800E0
0000200040
0000000000
0000000000
0000078000
0001FF0000
0007FF0000
0007FF0000
0007FF0000
0007FE0000
000FFE0000
000FFE0000
000FFE0000
000FFC0000
001FFC0000
001FFC0000
001FFC0000
001FFC0000
003FF80000
003FF87C00
003FFFFFC0
003FFFFFF0
007FFFFFF8
007FFFFFFC
007FFFFFFC
007FFFFFFE
00FFFFFFFE
00FFFFFFFF
00FFFFFFFF
00FFE01FFF
01FFC00FFF
01FFC007FF
01FFC007FF
01FFC007FF
01FFC007FF
03FF8007FF
03FF8007FF
03FF800FFF
03FF800FFE
07FF000FFE
07FF000FFE
07FF000FFE
07FF001FFC
0FFE001FFC
0FFE001FFC
0FFE001FFC
0FFE003FF8
1FFC003FF8
1FFC003FF8
1FFC003FF8
1FFC007FF0
3FF8007FF0
3FF8007FF0
3FF8007FF0
3FF800FFE0
7FF000FFE0
7FF000FFE0
7FF000FFE0
7FF000FFC0
FFE001FFC0
FFE001FFC0
FFE001FFC0
ENDCHAR
STARTCHAR 0126
ENCODING 294
SWIDTH 495 0
DWIDTH 44 0
BBX 48 55 5 0
BITMAP
0007FF003FF8
0007FF007FF0
000FFE007FF0
000FFE007FF0
000FFE007FF0
000FFE00FFE0
01FFFFFFFFFF
03FFFFFFFFFF
03FFFFFFFFFF
03FFFFFFFFFE
03FFFFFFFFFE
07FFFFFFFFFE
07FFFFFFFFFE
07FFFFFFFFFC
07FFFFFFFFFC
007FF003FF80
007FF003FF80
007FF003FF80
00FFE007FF00
00FFE007FF00
00FFE007FF00
00FFE007FF00
00FFFFFFFE00
01FFFFFFFE00
01FFFFFFFE00
01FFFFFFFE00
01FFFFFFFC00
03FFFFFFFC00
03FFFFFFFC00
03FFFFFFFC00
03FFFFFFF800
07FF003FF800
07FF003FF800
07FF003FF800
07FF007FF000
0FFE007FF000
0FFE007FF000
0FFE007FF000
0FFE00FFE000
1FFC00FFE000
1FFC00FFE000
1FFC00FFE000
1FFC00FFC000
3FF801FFC000
3FF801FFC000
3FF801FFC000
3FF801FFC000
3FF003FF8000
7FF003FF8000
7FF003FF8000
7FF003FF8000
7FF007FF0000
FFE007FF0000
FFE007FF0000
FFE007FF0000
ENDCHAR
STARTCHAR 0127
ENCODING 295
SWIDTH 495 0
DWIDTH 44 0
BBX 39 62 5 0
BITMAP
0000004000
00001F8000
0003FF8000
0003FF8000
0003FF8000
0003FF8000
0007FF0000
00FFFFFFE0
00FFFFFFE0
00FFFFFFE0
00FFFFFFE0
01FFFFFFC0
01FFFFFFC0
01FFFFFFC0
01FFFFFFC0
001FFC0000
001FFC0000
001FFC0000
001FF80000
003FF81800
003FFFFF80
003FFFFFE0
003FFFFFF0
007FFFFFF8
007FFFFFF8
007FFFFFFC
007FFFFFFC
00FFFFFFFE
00FFFFFFFE
00FFE03FFE
00FFE01FFE
01FFC01FFE
01FFC00FFE
01FFC00FFE
01FFC00FFE
03FF800FFE
03FF800FFE
03FF801FFC
03FF801FFC
07FF001FFC
07FF001FFC
07FF001FFC
07FF003FF8
07FE003FF8
0FFE003FF8
0FFE003FF8
0FFE007FF0
0FFE007FF0
1FFC007FF0
1FFC007FF0
1FFC00FFE0
1FFC00FFE0
3FF800FFE0
3FF800FFE0
3FF801FFC0
3FF801FFC0
7FF001FFC0
7FF001FFC0
7FF003FF80
7FF003FF80
FFE003FF80
FFE003FF80
ENDCHAR
STARTCHAR 0128
ENCODING 296
SWIDTH 495 0
DWIDTH 44 0
BBX 48 72 3 0
BITMAP
0000003E0060
000001FF80F8
000003FFF1FC
000007FFFFFE
00000FFFFFFC
00000FFFFFFC
00001FFFFFF8
00001FFFFFF0
00003FFFFFF0
00001F83FFE0
00000700FF80
000001000000
000000000000
000000000000
000000000000
000000000000
000000000000
0007FFFFFFFF
0007FFFFFFFF
0007FFFFFFFF
000FFFFFFFFE
000FFFFFFFFE
000FFFFFFFFE
000FFFFFFFFE
001FFFFFFFFC
001FFFFFFFFC
000001FFC000
000001FFC000
000001FFC000
000003FF8000
000003FF8000
000003FF8000
000003FF8000
000007FF0000
000007FF0000
000007FF0000
000007FF0000
00000FFE0000
00000FFE0000
00000FFE0000
00000FFE0000
00001FFC0000
00001FFC0000
00001FFC0000
00001FFC0000
00001FF80000
00003FF80000
00003FF80000
00003FF80000
00003FF80000
00007FF00000
00007FF00000
00007FF00000
00007FF00000
0000FFE00000
0000FFE00000
0000FFE00000
0000FFE00000
0001FFC00000
0001FFC00000
0001FFC00000
0001FFC00000
0003FF800000
3FFFFFFFF800
3FFFFFFFF800
3FFFFFFFF800
7FFFFFFFF000
7FFFFFFFF000
7FFFFFFFF000
7FFFFFFFF000
FFFFFFFFE000
FFFFFFFFE000
ENDCHAR
STARTCHAR 0129
ENCODING 297
SWIDTH 495 0
DWIDTH 44 0
BBX 35 61 10 -1
BITMAP
0000000200
000FF80700
001FFE0FC0
003FFFFFE0
007FFFFFE0
00FFFFFFC0
00FFFFFFC0
01FFFFFF80
01FFFFFF00
01FC3FFE00
00780FFC00
003001E000
0000000000
0000000000
0000000000
0000000000
0000000000
0000000000
3FFFFF8000
3FFFFF0000
3FFFFF0000
7FFFFF0000
7FFFFF0000
7FFFFE0000
7FFFFE0000
FFFFFE0000
FFFFFE0000
001FFC0000
001FFC0000
001FFC0000
001FFC0000
003FF80000
003FF80000
003FF80000
003FF80000
007FF80000
007FF00000
007FF00000
007FF00000
007FF00000
00FFE00000
00FFE00000
00FFE00000
00FFE00000
01FFC00000
01FFC00000
01FFC00000
01FFC00000
01FFC00000
01FFE00000
01FFE00600
01FFFFFE00
01FFFFFE00
01FFFFFE00
00FFFFFE00
00FFFFFE00
007FFFFE00
007FFFFE00
001FFFFE00
000FFFF800
0001FF8000
ENDCHAR
STARTCHAR 012A
ENCODING 298
SWIDTH 495 0
DWIDTH 44 0
BBX 48 70 3 0
BITMAP
000003FFFFFE
000003FFFFFE
000007FFFFFE
000007FFFFFE
000007FFFFFE
000007FFFFFC
00000FFFFFFC
00000FFFFFFC
000000000000
000000000000
000000000000
000000000000
000000000000
000000000000
000000000000
0007FFFFFFFF
0007FFFFFFFF
0007FFFFFFFF
000FFFFFFFFE
000FFFFFFFFE
000FFFFFFFFE
000FFFFFFFFE
001FFFFFFFFC
001FFFFFFFFC
000001FFC000
000001FFC000
000001FFC000
000003FF8000
000003FF8000
000003FF8000
000003FF8000
000007FF0000
000007FF0000
000007FF0000
000007FF0000
00000FFE0000
00000FFE0000
00000FFE0000
00000FFE0000
00001FFC0000
00001FFC0000
00001FFC0000
00001FFC0000
00001FF80000
00003FF80000
00003FF80000
00003FF80000
00003FF80000
00007FF00000
00007FF00000
00007FF00000
00007FF00000
0000FFE00000
0000FFE00000
0000FFE00000
0000FFE00000
0001FFC00000
0001FFC00000
0001FFC00000
0001FFC00000
0003FF800000
3FFFFFFFF800
3FFFFFFFF800
3FFFFFFFF800
7FFFFFFFF000
7FFFFFFFF000
7FFFFFFFF000
7FFFFFFFF000
FFFFFFFFE000
FFFFFFFFE000
ENDCHAR
STARTCHAR 012B
ENCODING 299
SWIDTH 495 0
DWIDTH 44 0
BBX 35 59 10 -1
BITMAP
007FFFFFE0
007FFFFFE0
007FFFFFE0
007FFFFFC0
00FFFFFFC0
00FFFFFFC0
00FFFFFFC0
00FFFFFF80
0000000000
0000000000
0000000000
0000000000
0000000000
0000000000
0000000000
0000000000
3FFFFF8000
3FFFFF0000
3FFFFF0000
7FFFFF0000
7FFFFF0000
7FFFFE0000
7FFFFE0000
FFFFFE0000
FFFFFE0000
001FFC0000
001FFC0000
001FFC0000
001FFC0000
003FF80000
003FF80000
003FF80000
003FF80000
007FF80000
007FF00000
007FF00000
007FF00000
007FF00000
00FFE00000
00FFE00000
00FFE00000
00FFE00000
01FFC00000
01FFC00000
01FFC00000
01FFC00000
01FFC00000
01FFE00000
01FFE00600
01FFFFFE00
01FFFFFE00
01FFFFFE00
00FFFFFE00
00FFFFFE00
007FFFFE00
007FFFFE00
001FFFFE00
000FFFF800
0001FF8000
ENDCHAR
STARTCHAR 012C
ENCODING 300
SWIDTH 495 0
DWIDTH 44 0
BBX 48 73 3 0
BITMAP
000003FC01FE
000003FC01FE
000003FC03FE
000003FC03FC
000003FE07FC
000003FFBFFC
000003FFFFF8
000001FFFFF0
000001FFFFE0
000000FFFFE0
0000007FFF80
0000003FFF00
0000000FF800
000000000000
000000000000
000000000000
000000000000
000000000000
0007FFFFFFFF
0007FFFFFFFF
0007FFFFFFFF
000FFFFFFFFE
000FFFFFFFFE
000FFFFFFFFE
000FFFFFFFFE
001FFFFFFFFC
001FFFFFFFFC
000001FFC000
000001FFC000
000001FFC000
000003FF8000
000003FF8000
000003FF8000
000003FF8000
000007FF0000
000007FF0000
000007FF0000
000007FF0000
00000FFE0000
00000FFE0000
00000FFE0000
00000FFE0000
00001FFC0000
00001FFC0000
00001FFC0000
00001FFC0000
00001FF80000
00003FF80000
00003FF80000
00003FF80000
00003FF80000
00007FF00000
00007FF00000
00007FF00000
00007FF00000
0000FFE00000
0000FFE00000
0000FFE00000
0000FFE00000
0001FFC00000
0001FFC00000
0001FFC00000
0001FFC00000
0003FF800000
3FFFFFFFF800
3FFFFFFFF800
3FFFFFFFF800
7FFFFFFFF000
7FFFFFFFF000
7FFFFFFFF000
7FFFFFFFF000
FFFFFFFFE000
FFFFFFFFE000
ENDCHAR
STARTCHAR 012D
ENCODING 301
SWIDTH 495 0
DWIDTH 44 0
BBX 35 62 10 -1
BITMAP
003FC01FE0
003FC01FE0
003FC01FE0
003FC03FE0
003FE07FC0
003FF0FFC0
003FFFFF80
001FFFFF80
001FFFFF00
000FFFFE00
0007FFFC00
0003FFF800
0000FFC000
0000000000
0000000000
0000000000
0000000000
0000000000
0000000000
3FFFFF8000
3FFFFF0000
3FFFFF0000
7FFFFF0000
7FFFFF0000
7FFFFE0000
7FFFFE0000
FFFFFE0000
FFFFFE0000
001FFC0000
001FFC0000
001FFC0000
001FFC0000
003FF80000
003FF80000
003FF80000
003FF80000
007FF80000
007FF00000
007FF00000
007FF00000
007FF00000
00FFE00000
00FFE00000
00FFE00000
00FFE00000
01FFC00000
01FFC00000
01FFC00000
01FFC00000
01FFC00000
01FFE00000
01FFE00600
01FFFFFE00
01FFFFFE00
01FFFFFE00
00FFFFFE00
00FFFFFE00
007FFFFE00
007FFFFE00
001FFFFE00
000FFFF800
0001FF8000
ENDCHAR
STARTCHAR 012E
ENCODING 302
SWIDTH 495 0
DWIDTH 44 0
BBX 48 70 3 -15
BITMAP
0007FFFFFFFF
0007FFFFFFFF
0007FFFFFFFF
000FFFFFFFFE
000FFFFFFFFE
000FFFFFFFFE
000FFFFFFFFE
001FFFFFFFFC
001FFFFFFFFC
000001FFC000
000001FFC000
000001FFC000
000003FF8000
000003FF8000
000003FF8000
000003FF8000
000007FF0000
000007FF0000
000007FF0000
000007FF0000
00000FFE0000
00000FFE0000
00000FFE0000
00000FFE0000
00001FFC0000
00001FFC0000
00001FFC0000
00001FFC0000
00001FF80000
00003FF80000
00003FF80000
00003FF80000
00003FF80000
00007FF00000
00007FF00000
00007FF00000
00007FF00000
0000FFE00000
0000FFE00000
0000FFE00000
0000FFE00000
0001FFC00000
0001FFC00000
0001FFC00000
0001FFC00000
0003FF800000
3FFFFFFFF800
3FFFFFFFF800
3FFFFFFFF800
7FFFFFFFF000
7FFFFFFFF000
7FFFFFFFF000
7FFFFFFFF000
FFFFFFFFE000
FFFFFFFFE000
0007FE000000
001FF8000000
003FF0000000
007FE0000000
01FFC0000000
01FF80000000
03FF00000000
07FF00000000
07FF04000000
07FFFC000000
07FFFC000000
07FFF8000000
03FFF8000000
01FFF8000000
007FE0000000
ENDCHAR
STARTCHAR 012F
ENCODING 303
SWIDTH 495 0
DWIDTH 44 0
BBX 31 76 10 -15
BITMAP
00001C00
0000FF80
0001FFC0
0003FFC0
0003FFE0
0003FFE0
0007FFE0
0007FFE0
0007FFE0
0007FFC0
0003FFC0
0003FF80
0001FF00
0000FC00
00000000
00000000
00000000
00000000
00000000
3FFFFF80
3FFFFF00
3FFFFF00
7FFFFF00
7FFFFF00
7FFFFE00
7FFFFE00
FFFFFE00
FFFFFE00
001FFC00
001FFC00
001FFC00
001FFC00
003FF800
003FF800
003FF800
003FF800
007FF800
007FF000
007FF000
007FF000
007FF000
00FFE000
00FFE000
00FFE000
00FFE000
01FFC000
01FFC000
01FFC000
01FFC000
01FFC000
01FFE000
01FFE006
01FFFFFE
01FFFFFE
01FFFFFE
00FFFFFE
00FFFFFE
007FFFFE
007FFFFE
001FFFFE
000FFFFC
0001FFF0
00007FE0
0000FFC0
0003FF80
0007FE00
000FFE00
000FFC00
001FFC00
001FFC10
001FFFF0
001FFFE0
001FFFE0
001FFFE0
000FFFE0
0003FF80
ENDCHAR
STARTCHAR 0130
ENCODING 304
SWIDTH 495 0
DWIDTH 44 0
BBX 48 72 3 0
BITMAP
00000003F800
0000000FFC00
0000000FFC00
0000001FFE00
0000001FFE00
0000001FFE00
0000001FFE00
0000001FFE00
0000001FFC00
0000001FF800
0000000FF000
00000003E000
000000000000
000000000000
000000000000
000000000000
000000000000
0007FFFFFFFF
0007FFFFFFFF
0007FFFFFFFF
000FFFFFFFFE
000FFFFFFFFE
000FFFFFFFFE
000FFFFFFFFE
001FFFFFFFFC
001FFFFFFFFC
000001FFC000
000001FFC000
000001FFC000
000003FF8000
000003FF8000
000003FF8000
000003FF8000
000007FF0000
000007FF0000
000007FF0000
000007FF0000
00000FFE0000
00000FFE0000
00000FFE0000
00000FFE0000
00001FFC0000
00001FFC0000
00001FFC0000
00001FFC0000
00001FF80000
00003FF80000
00003FF80000
00003FF80000
00003FF80000
00007FF00000
00007FF00000
00007FF00000
00007FF00000
0000FFE00000
0000FFE00000
0000FFE00000
0000FFE00000
0001FFC00000
0001FFC00000
0001FFC00000
0001FFC00000
0003FF800000
3FFFFFFFF800
3FFFFFFFF800
3FFFFFFFF800
7FFFFFFFF000
7FFFFFFFF000
7FFFFFFFF000
7FFFFFFFF000
FFFFFFFFE000
FFFFFFFFE000
ENDCHAR
STARTCHAR 0131
ENCODING 305
SWIDTH 495 0
DWIDTH 44 0
BBX 31 43 10 -1
BITMAP
3FFFFF80
3FFFFF00
3FFFFF00
7FFFFF00
7FFFFF00
7FFFFE00
7FFFFE00
FFFFFE00
FFFFFE00
001FFC00
001FFC00
001FFC00
001FFC00
003FF800
003FF800
003FF800
003FF800
007FF800
007FF000
007FF000
007FF000
007FF000
00FFE000
00FFE000
00FFE000
00FFE000
01FFC000
01FFC000
01FFC000
01FFC000
01FFC000
01FFE000
01FFE006
01FFFFFE
01FFFFFE
01FFFFFE
00FFFFFE
00FFFFFE
007FFFFE
007FFFFE
001FFFFE
000FFFF8
0001FF80
ENDCHAR
STARTCHAR 0132
ENCODING 306
SWIDTH 495 0
DWIDTH 44 0
BBX 52 56 1 -1
BITMAP
0007FF00003FF0
0007FE00003FF0
0007FE00003FF0
0007FE00003FF0
000FFE00007FE0
000FFC00007FE0
000FFC00007FE0
000FFC00007FE0
001FFC0000FFE0
001FF80000FFC0
001FF80000FFC0
001FF80000FFC0
003FF80001FFC0
003FF00001FF80
003FF00001FF80
003FF00001FF80
007FF00003FF80
007FE00003FF00
007FE00003FF00
007FE00003FF00
007FE00007FF00
00FFC00007FE00
00FFC00007FE00
00FFC00007FE00
00FFC0000FFE00
01FF80000FFC00
01FF80000FFC00
01FF80000FFC00
01FF80001FFC00
03FF80001FF800
03FF00001FF800
03FF00001FF800
03FF00003FF800
07FF00003FF800
07FE00003FF000
07FE00003FF000
07FE00003FF000
0FFE00007FF000
0FFC00007FE000
0FFC00007FE000
0FFC0000FFE000
1FFC0000FFE000
1FF80000FFC000
1FF80001FFC000
1FF82001FFC000
3FF83003FF8000
3FF07C07FF8000
3FF0FFFFFF0000
3FF1FFFFFF0000
7FF1FFFFFE0000
7FE3FFFFFE0000
7FE3FFFFFC0000
7FE1FFFFF80000
7FE07FFFE00000
FFE03FFFC00000
000007FE000000
ENDCHAR
STARTCHAR 0133
ENCODING 307
SWIDTH 495 0
DWIDTH 44 0
BBX 45 76 6 -15
BITMAP
000070000F00
0003FE003FE0
0007FF007FF0
000FFF00FFF0
000FFF80FFF8
001FFF81FFF8
001FFF81FFF8
001FFF81FFF8
001FFF81FFF8
001FFF01FFF0
000FFF01FFF0
000FFE00FFE0
0007FC00FFC0
0003F0003F00
000000000000
000000000000
000000000000
000000000000
000000000000
003FF803FF80
003FF803FF80
007FF007FF00
007FF007FF00
007FF007FF00
007FF007FF00
00FFF00FFE00
00FFE00FFE00
00FFE00FFE00
00FFE00FFE00
00FFE01FFC00
01FFC01FFC00
01FFC01FFC00
01FFC01FFC00
01FFC03FF800
03FF803FF800
03FF803FF800
03FF803FF800
03FF807FF000
07FF007FF000
07FF007FF000
07FF007FF000
07FF00FFF000
0FFE00FFE000
0FFE00FFE000
0FFE00FFE000
0FFE01FFE000
1FFC01FFC000
1FFC01FFC000
1FFC01FFC000
1FFC01FFC000
3FF803FF8000
3FF803FF8000
3FF803FF8000
3FF803FF8000
3FF007FF0000
7FF007FF0000
7FF007FF0000
7FF007FF0000
7FF00FFE0000
FFE00FFE0000
FFE00FFE0000
00001FFE0000
00001FFC0000
00003FFC0000
00003FFC0000
0061FFF80000
007FFFF80000
00FFFFF00000
00FFFFF00000
00FFFFE00000
01FFFFC00000
01FFFF800000
01FFFF000000
03FFFE000000
01FFF8000000
000F80000000
ENDCHAR
STARTCHAR 0134
ENCODING 308
SWIDTH 495 0
DWIDTH 44 0
BBX 46 74 4 0
BITMAP
000000003800
000000007C00
00000000FE00
00000001FF00
00000007FF00
0000000FFF80
0000001FFFC0
0000003FFFE0
000000FFFFF0
000001FFDFF0
000003FF8FF8
000001FE07FC
000001FC03F0
000000F001E0
0000006000C0
000000000000
000000000000
000000000000
00007FFFFFF8
0000FFFFFFF8
0000FFFFFFF8
0000FFFFFFF8
0000FFFFFFF0
0001FFFFFFF0
0001FFFFFFF0
0001FFFFFFF0
0001FFFFFFF0
00000000FFE0
00000000FFE0
00000000FFE0
00000000FFE0
00000001FFC0
00000001FFC0
00000001FFC0
00000001FFC0
00000003FF80
00000003FF80
00000003FF80
00000003FF80
00000007FF00
00000007FF00
00000007FF00
00000007FF00
00000007FE00
0000000FFE00
0000000FFE00
0000000FFE00
0000000FFC00
0000001FFC00
0000001FFC00
0000001FFC00
0000001FFC00
0000003FF800
0000003FF800
0000003FF800
0000003FF800
0000007FF000
0000007FF000
000000FFF000
000000FFE000
000001FFE000
0C0001FFE000
1F0003FFC000
1FC00FFFC000
3FFC7FFF8000
7FFFFFFF8000
FFFFFFFF0000
FFFFFFFE0000
FFFFFFFC0000
7FFFFFF80000
3FFFFFF00000
0FFFFFE00000
03FFFF000000
007FF8000000
ENDCHAR
STARTCHAR 0135
ENCODING 309
SWIDTH 495 0
DWIDTH 44 0
BBX 44 76 0 -15
BITMAP
000000003000
00000000F000
00000001F800
00000003FC00
0000000FFE00
0000001FFF00
0000003FFF00
0000007FFF80
000001FFFFC0
000003FFFFE0
000007FF3FF0
000007FC1FF0
000003F80FE0
000001E007C0
000001C00380
000000000000
000000000000
000000000000
000000000000
0003FFFFFFC0
0003FFFFFFC0
0003FFFFFFC0
0007FFFFFF80
0007FFFFFF80
0007FFFFFF80
0007FFFFFF80
0007FFFFFF00
000FFFFFFF00
00000007FF00
00000007FF00
0000000FFE00
0000000FFE00
0000000FFE00
0000000FFE00
0000001FFC00
0000001FFC00
0000001FFC00
0000001FFC00
0000001FFC00
0000003FF800
0000003FF800
0000003FF800
0000003FF800
0000007FF000
0000007FF000
0000007FF000
0000007FF000
000000FFE000
000000FFE000
000000FFE000
000000FFE000
000001FFC000
000001FFC000
000001FFC000
000001FFC000
000003FF8000
000003FF8000
000003FF8000
000003FF8000
000007FF0000
000007FF0000
000007FF0000
00000FFF0000
00000FFE0000
1C001FFE0000
1F003FFC0000
3FFFFFFC0000
3FFFFFF80000
7FFFFFF80000
7FFFFFF00000
FFFFFFF00000
FFFFFFE00000
FFFFFFC00000
3FFFFF000000
0FFFFE000000
01FFF0000000
ENDCHAR
STARTCHAR 0136
ENCODING 310
SWIDTH 495 0
DWIDTH 44 0
BBX 50 70 3 -15
BITMAP
0007FF0003FFC0
0007FF0007FF80
000FFE000FFF80
000FFE000FFF00
000FFE001FFE00
000FFE003FFC00
001FFC007FFC00
001FFC00FFF800
001FFC00FFF000
001FFC01FFE000
003FF803FFC000
003FF807FF8000
003FF80FFF8000
003FF81FFF0000
007FF01FFE0000
007FF03FFC0000
007FF07FF80000
007FF0FFF00000
00FFE1FFE00000
00FFE3FFC00000
00FFE7FF800000
00FFEFFF000000
00FFFFFE000000
01FFFFFC000000
01FFFFF8000000
01FFFFF0000000
01FFFFE0000000
03FFFFF0000000
03FFFFF8000000
03FFFFF8000000
03FFBFFC000000
07FF3FFE000000
07FF1FFE000000
07FF0FFF000000
07FF0FFF000000
0FFE07FF800000
0FFE07FF800000
0FFE03FFC00000
0FFE03FFC00000
1FFC01FFE00000
1FFC01FFE00000
1FFC00FFF00000
1FFC00FFF00000
3FF8007FF00000
3FF8007FF80000
3FF8007FF80000
3FF8003FF80000
3FF8003FFC0000
7FF0001FFC0000
7FF0001FFC0000
7FF0001FFE0000
7FF0001FFE0000
FFE0000FFE0000
FFE0000FFE0000
FFE0000FFF0000
00000000000000
00000000000000
00000000000000
00000000000000
0007FC00000000
0007FC00000000
000FF800000000
000FF800000000
003FF800000000
07FFF000000000
07FFF000000000
07FFE000000000
07FFC000000000
0FFF0000000000
0FFC0000000000
ENDCHAR
STARTCHAR 0137
ENCODING 311
SWIDTH 495 0
DWIDTH 44 0
BBX 45 77 5 -15
BITMAP
000000C00000
00003F800000
0003FF800000
0003FF800000
0003FF800000
0007FF000000
0007FF000000
0007FF000000
0007FF000000
000FFE000000
000FFE000000
000FFE000000
000FFE000000
001FFC000000
001FFC000000
001FFC000000
001FFC000000
001FF8000000
003FF8000000
003FF8000000
003FF8007FF8
003FF800FFF0
007FF001FFE0
007FF003FFE0
007FF007FFC0
007FF00FFF80
00FFE01FFF00
00FFE03FFE00
00FFE07FFC00
00FFE0FFF800
01FFC1FFF000
01FFC3FFE000
01FFC7FFC000
01FFCFFF0000
03FF9FFE0000
03FFBFFC0000
03FFFFF80000
03FFFFF00000
07FFFFE00000
07FFFFC00000
07FFFFE00000
07FFFFE00000
0FFEFFF00000
0FFE7FF00000
0FFE3FF80000
0FFE3FFC0000
0FFE1FFC0000
1FFC1FFE0000
1FFC0FFE0000
1FFC0FFF0000
1FFC07FF0000
3FF807FF8000
3FF803FF8000
3FF803FFC000
3FF801FFC000
7FF001FFE000
7FF001FFE000
7FF000FFF000
7FF000FFF000
FFE0007FF000
FFE0007FF800
FFE0007FF800
000000000000
000000000000
000000000000
000000000000
0007F8000000
000FF8000000
000FF8000000
001FF8000000
003FF0000000
07FFF0000000
07FFE0000000
0FFFC0000000
0FFF80000000
0FFF00000000
0FF800000000
ENDCHAR
ENDFONT
